<svg id="b" xmlns="http://www.w3.org/2000/svg" width="259.149" height="205.214" viewBox="0 0 259.149 205.214"><defs><style>.g{fill:#fff;}.h{fill:#fcdc4a;}.i{fill:#211715;}</style></defs><g id="c"><g id="d"><path class="g" d="M111.853,2.4c-34.328,0-107.297,0-109.453,0,0,18.242,0,36.484,0,54.726,36.484,0,72.968,0,109.453,0,0-18.242,0-36.484,0-54.726ZM71.931,33.237c-.415,2.701-1.914,5.048-3.642,7.092-.223.264-.462.506-.725.73-.785.67-1.622,1.363-2.515,1.899-1.252.75-2.709,1.376-4.157,1.661-1.575.31-3.286.586-4.907.413-2.525-.269-4.137-.626-6.436-1.789-.951-.481-1.784-1.236-2.601-1.894-.251-.202-.489-.412-.704-.653-.901-1.005-1.826-2.126-2.396-3.373-.55-1.203-1.159-2.47-1.414-3.789-.249-1.289-.463-2.64-.473-3.964-.004-.611.06-1.205.183-1.781.023-.164.028-.328.051-.494.102-.756.169-1.519.389-2.251.312-1.037.779-2.051,1.242-3.021.157-.328.346-.634.559-.929,1.376-1.9,2.661-3.352,4.73-4.565.972-.57,2.069-.985,3.125-1.358.468-.165.948-.264,1.438-.337,1.189-.176,2.44-.428,3.658-.389,1.164.037,2.353.234,3.491.44.417.075.821.189,1.218.337.997.371,2.051.76,2.976,1.307.924.546,1.782,1.259,2.588,1.959.255.221.477.467.691.728.67.812,1.397,1.652,1.909,2.585.511.93.887,1.936,1.265,2.924.52,1.359.636,2.928.776,4.341.14,1.411-.103,2.765-.319,4.17ZM100.774,26.988c-.133,1.645-.377,2.623-.996,4.101-.35.836-.892,1.551-1.438,2.249-1.07,1.367-2.808,2.45-4.41,2.857-1.7.432-3.831.504-5.493-.141-1.395-.541-2.182-1.062-3.319-2.049-.658-.571-1.168-1.317-1.647-2.064-.997-1.555-1.452-3.584-1.453-5.457.013-1.025.127-2.1.458-3.067.518-1.513,1.024-2.438,1.989-3.673,1.138-1.456,3.021-2.608,4.752-2.929.956-.177,1.941-.316,2.913-.212,1.486.159,2.32.405,3.664,1.067,1.535.756,2.872,2.221,3.73,3.778.88,1.597,1.401,3.677,1.25,5.541Z"></path><path class="g" d="M71.473,24.726c-.378-.989-.754-1.994-1.265-2.924-.512-.934-1.24-1.773-1.909-2.585-.214-.26-.436-.506-.691-.728-.806-.701-1.664-1.413-2.588-1.959-.925-.547-1.979-.936-2.975-1.307-.396-.148-.801-.262-1.218-.337-1.138-.205-2.327-.402-3.491-.44-1.218-.039-2.469.213-3.658.389-.49.073-.97.171-1.438.337-1.055.372-2.153.788-3.125,1.358-2.069,1.213-3.354,2.665-4.73,4.565-.213.294-.402.601-.559.929-.463.971-.93,1.985-1.242,3.021-.22.732-.288,1.496-.389,2.251-.022.166-.028.33-.051.494-.122.576-.187,1.17-.183,1.781.009,1.323.224,2.675.473,3.963.255,1.319.864,2.586,1.414,3.789.57,1.247,1.495,2.368,2.396,3.373.215.24.453.451.704.653.817.658,1.65,1.413,2.601,1.894,2.299,1.163,3.911,1.52,6.436,1.789,1.621.172,3.332-.104,4.907-.413,1.447-.285,2.905-.91,4.157-1.661.894-.536,1.731-1.229,2.515-1.899.262-.224.502-.466.725-.73,1.728-2.044,3.227-4.391,3.642-7.092.216-1.405.459-2.759.319-4.17-.14-1.413-.257-2.982-.776-4.341Z"></path><path class="g" d="M99.524,21.447c-.858-1.557-2.195-3.022-3.73-3.778-1.344-.662-2.178-.908-3.664-1.067-.972-.104-1.957.035-2.913.212-1.731.321-3.614,1.473-4.752,2.929-.965,1.235-1.471,2.16-1.989,3.673-.331.967-.445,2.042-.458,3.067,0,1.874.456,3.902,1.453,5.457.479.746.989,1.492,1.647,2.064,1.136.987,1.924,1.508,3.319,2.049,1.663.645,3.794.573,5.493.141,1.602-.407,3.34-1.49,4.41-2.857.546-.698,1.088-1.413,1.438-2.249.619-1.479.863-2.456.996-4.101.151-1.865-.37-3.944-1.25-5.541Z"></path><g id="e"><path class="h" d="M98.115,144.315v-19.804c0-3.708-3.006-6.714-6.714-6.714h-30.751c-3.708,0-6.714,3.006-6.714,6.714v18.196c0,1.879.787,3.663,2.148,4.959,2.654,2.527,5.238,5.127,7.749,7.796,1.175,1.249,1.815,2.909,1.815,4.624-.001,3.419-.001,6.838-.001,10.256,0,3.708,3.006,6.715,6.715,6.715h19.04c3.708,0,6.714-3.006,6.714-6.714v-26.028Z"></path><path class="h" d="M115.523,150.444c0,4.413,0,8.457,0,11.616,0,3.708,3.006,6.71,6.714,6.71h27.818c3.708,0,6.714-3.006,6.714-6.714v-11.617c0-3.708-3.006-6.714-6.714-6.714h-27.818c-3.708,0-6.714,3.011-6.714,6.719Z"></path><rect class="h" x="16.33" y="191.225" width="27.17" height="11.549" rx="5.774" ry="5.774"></rect><path class="h" d="M110.988,123.631v-9.214c0-3.708,3.006-6.714,6.714-6.714h69.242c3.708,0,6.714-3.011,6.714-6.719,0-5.968,0-10.155,0-16.123,0-3.708,3.006-6.719,6.714-6.719h35.661c3.708,0,6.714,2.999,6.714,6.707,0,21.977,0,53.815,0,76.018,0,3.708-3,6.708-6.709,6.707-14.97,0-45.867-.002-59.495-.002-3.708,0-6.709-3.006-6.709-6.714v-23.8c0-3.708-3.006-6.714-6.714-6.714h-45.418c-3.708,0-6.714-3.006-6.714-6.714Z"></path><path class="h" d="M250.032,14.437h-41.801c-3.708,0-6.714,3.006-6.714,6.714v37.224c0,3.708,3.006,6.714,6.714,6.714h41.801c3.708,0,6.714-3.006,6.714-6.714,0-11.984,0-28.22,0-37.229,0-3.708-3.006-6.709-6.714-6.709Z"></path></g></g><g id="f"><path class="i" d="M100.515,144.315c0-5.554,0-11.108,0-16.662,0-2.817.176-5.623-1.474-8.106-2.031-3.056-5.238-4.149-8.738-4.149h-27.351c-2.439,0-4.8-.033-6.994,1.3-2.427,1.474-4.011,3.984-4.344,6.792-.1.844-.077,1.687-.077,2.536v9.798c0,2.286-.057,4.581,0,6.867.08,3.237,1.634,5.492,3.886,7.666,1.261,1.217,2.505,2.452,3.733,3.702,1.141,1.162,2.565,2.332,3.434,3.708.742,1.176.659,2.453.659,3.785,0,1.954,0,3.907,0,5.861,0,3.165-.031,6.052,2.037,8.645,1.728,2.166,4.328,3.338,7.078,3.4.607.014,1.216,0,1.824,0,5.713,0,11.437.106,17.149,0,5.075-.094,9.067-4.045,9.182-9.127.041-1.826,0-3.658,0-5.485v-19.141c0-.463,0-.927,0-1.39,0-3.089-4.8-3.094-4.8,0,0,4.793,0,9.586,0,14.38v9.005c0,1.736.268,3.739-.83,5.217-1.512,2.034-3.921,1.74-6.14,1.74-3.227,0-6.455,0-9.682,0-2.21,0-4.425.041-6.635,0-1.541-.028-2.907-.721-3.738-2.044-.595-.948-.644-1.91-.644-3.003,0-1.709,0-3.419,0-5.128,0-3.162.378-6.511-1.415-9.305-.874-1.363-2.128-2.503-3.249-3.658-1.165-1.201-2.345-2.387-3.54-3.557-1.602-1.57-3.472-2.892-3.507-5.325-.011-.774,0-1.548,0-2.322,0-5.262-.114-10.538,0-15.799.061-2.801,2.294-4.319,4.888-4.319h25.786c1.459,0,2.922-.033,4.38,0,1.72.039,3.3,1.002,3.99,2.615.344.803.334,1.611.334,2.457,0,5.804,0,11.609,0,17.413v1.632c0,3.089,4.8,3.094,4.8,0Z"></path><path class="i" d="M113.123,150.444c0,2.237,0,4.473,0,6.71,0,1.794-.115,3.633.022,5.422.281,3.696,2.632,6.862,6.146,8.101,2.625.926,5.996.493,8.726.493,7.321,0,14.658.142,21.978,0,3.131-.061,5.946-1.542,7.7-4.149,1.274-1.894,1.474-4.053,1.474-6.255,0-3.587.251-7.266-.022-10.843-.283-3.712-2.634-6.843-6.146-8.105-1.312-.471-2.678-.493-4.048-.493h-11.187c-4.233,0-8.467,0-12.7,0-.922,0-1.847-.017-2.769,0-3.13.059-5.948,1.547-7.7,4.152-.983,1.462-1.43,3.221-1.474,4.967-.078,3.09,4.722,3.088,4.8,0,.061-2.396,1.909-4.269,4.314-4.319.604-.013,1.209,0,1.813,0h10.848c3.917,0,7.834,0,11.75,0,2.414,0,5.268-.447,6.901,1.771.909,1.235.819,2.645.819,4.086v5.985c0,1.353.029,2.709,0,4.061-.045,2.103-1.502,3.955-3.628,4.307-.734.122-1.569.035-2.307.035h-4.472c-4.16,0-8.321,0-12.481,0-2.944,0-5.889.01-8.833,0-1.416-.005-2.722-.372-3.683-1.494-.788-.921-1.036-1.983-1.041-3.17-.007-1.734,0-3.468,0-5.202,0-2.02,0-4.04,0-6.06,0-3.089-4.8-3.094-4.8,0Z"></path><path class="i" d="M13.93,196.999c0,3.941,2.964,7.449,6.863,8.05,1.589.245,3.253.125,4.854.125,4.016,0,8.043.092,12.057,0,3.816-.087,7.282-2.705,8.023-6.535.784-4.048-1.532-8.031-5.417-9.392-1.645-.576-3.498-.422-5.217-.422h-7.515c-1.816,0-3.638-.044-5.454,0-4.546.111-8.064,3.636-8.195,8.174-.089,3.09,4.711,3.087,4.8,0,.118-4.091,4.776-3.374,7.573-3.374,3.713,0,7.427-.026,11.139,0,1.745.012,3.343,1.008,3.624,2.849.317,2.081-1.304,3.836-3.354,3.899-3.331.103-6.681,0-10.014,0-2.843,0-8.969,1.073-8.969-3.374,0-3.089-4.8-3.094-4.8,0Z"></path><path class="i" d="M113.388,123.631c0-2.652,0-5.303,0-7.955s-.056-2.203.483-3.248c.752-1.461,2.235-2.292,3.85-2.325,2.708-.055,5.424,0,8.133,0h55.728c3.395,0,7.366.495,10.328-1.476,2.337-1.555,3.792-4.008,4.093-6.788.33-3.052.056-6.268.056-9.339,0-1.444,0-2.889,0-4.333,0-1.406-.205-2.977.126-4.346.447-1.848,2.121-3.209,4.016-3.274,4.184-.143,8.396-.004,12.582-.004h19.349c1.299,0,2.602-.03,3.9,0,1.734.04,3.302,1.016,3.995,2.638.417.976.322,2.02.322,3.056,0,1.373,0,2.746,0,4.119,0,22.801,0,45.603,0,68.404,0,2.097.14,4.196-1.737,5.589-1.536,1.14-3.59.827-5.388.827-4.364,0-8.728,0-13.092,0-10.161,0-20.322,0-30.483,0-3.989,0-7.978,0-11.968,0-1.948,0-3.679-.253-4.802-2.044-.539-.86-.64-1.766-.643-2.745-.02-5.84,0-11.681,0-17.522,0-1.923.04-3.85,0-5.773-.105-5.058-4.062-9.03-9.121-9.145-3.626-.082-7.264,0-10.891,0-11.365,0-22.732.047-34.097,0-2.55-.011-4.669-1.621-4.737-4.314-.078-3.083-4.878-3.095-4.8,0,.128,5.076,4.103,9.02,9.179,9.114,1.315.024,2.633,0,3.948,0h37.687c1.229,0,2.461-.026,3.689,0,2.857.06,4.343,2.322,4.343,4.954,0,6.138,0,12.275,0,18.413,0,1.847-.143,3.761.056,5.602.3,2.777,1.755,5.232,4.089,6.785,2.087,1.389,4.404,1.474,6.815,1.474,19.051,0,38.104.093,57.155.002,2.652-.013,5.173-.822,7.041-2.782,1.978-2.074,2.556-4.588,2.556-7.373,0-5.568,0-11.136,0-16.704,0-12.199,0-24.398,0-36.596,0-5.692,0-11.385,0-17.077,0-2.564.346-5.412-.613-7.844-1.012-2.564-3.079-4.559-5.71-5.417-1.755-.572-3.657-.44-5.479-.44h-28.738c-1.407,0-2.818-.031-4.225,0-2.506.055-4.971,1.027-6.676,2.905-2.085,2.296-2.447,4.921-2.447,7.906,0,3.119,0,6.238,0,9.357,0,1.688.049,3.386,0,5.073-.027.923-.269,1.82-.83,2.576-1.12,1.508-2.741,1.743-4.446,1.743h-66.813c-1.498,0-2.965-.018-4.412.493-2.609.921-4.65,2.931-5.614,5.522-.528,1.419-.553,2.873-.553,4.358s0,5.303,0,7.955c0,3.089,4.8,3.094,4.8,0Z"></path><path class="i" d="M250.032,12.037h-35.777c-1.907,0-3.815-.011-5.723,0-4.724.027-8.772,3.315-9.338,8.092-.192,1.619-.077,3.3-.077,4.926,0,3.259,0,6.518,0,9.776v20.969c0,2.319-.083,4.534.99,6.697,1.726,3.481,5.247,4.992,8.953,4.992h38.126c1.921,0,3.955.155,5.793-.493,2.84-1.002,5.114-3.365,5.87-6.305.352-1.368.297-2.783.297-4.182,0-1.565,0-3.13,0-4.694,0-6.516,0-13.032,0-19.547,0-2.822,0-5.643,0-8.465,0-2.783.056-5.512-1.661-7.883-1.763-2.434-4.451-3.807-7.453-3.883-3.09-.078-3.088,4.722,0,4.8,2.083.053,3.913,1.492,4.263,3.595.163.975.051,2.069.051,3.059,0,1.326,0,2.651,0,3.977,0,5.931,0,11.862,0,17.793,0,3.108,0,6.217,0,9.325,0,2.171.483,4.822-1.041,6.606-1.364,1.597-3.211,1.497-5.083,1.497h-37.407c-1.349,0-3.02.207-4.284-.334-2.332-.999-2.615-3.179-2.615-5.368v-18.469c0-5.585,0-11.17,0-16.756,0-2.606,1.498-4.862,4.322-4.925,1.33-.03,2.664,0,3.994,0h37.8c3.089,0,3.094-4.8,0-4.8Z"></path><path class="i" d="M0,2.4c0,18.242,0,36.484,0,54.726,0,1.297,1.1,2.4,2.4,2.4,28.488,0,56.975,0,85.463,0,7.997,0,15.993,0,23.99,0,1.297,0,2.4-1.1,2.4-2.4,0-18.242,0-36.484,0-54.726,0-1.297-1.1-2.4-2.4-2.4-17.121,0-34.241,0-51.362,0-15.873,0-31.747,0-47.62,0-3.49,0-6.98,0-10.47,0-3.089,0-3.094,4.8,0,4.8,9.464,0,18.928,0,28.392,0,18.024,0,36.048,0,54.073,0,8.996,0,17.992,0,26.988,0l-2.4-2.4c0,18.242,0,36.484,0,54.726l2.4-2.4c-28.488,0-56.975,0-85.463,0-7.997,0-15.993,0-23.99,0l2.4,2.4c0-18.242,0-36.484,0-54.726C4.8-.688,0-.694,0,2.4Z"></path><path class="i" d="M73.787,24.088c-.649-1.699-1.301-3.373-2.403-4.836-1.128-1.498-2.319-2.74-3.815-3.873-2.889-2.188-6.634-3.254-10.234-3.333-7.42-.163-13.84,4.245-16.592,11.042-2.611,6.45-.885,15.374,4.507,19.959,2.725,2.317,5.689,3.71,9.24,4.2,3.74.516,7.625-.026,10.994-1.783,7.505-3.914,11.081-13.405,8.302-21.376-.426-1.223-1.643-2.036-2.952-1.676-1.188.326-2.105,1.723-1.676,2.952,1.795,5.148.295,11.138-3.978,14.574-4.092,3.291-10.664,3.743-15.113.827-4.672-3.062-6.205-8.637-5.414-13.923.809-5.407,5.388-9.059,10.564-9.833,2.906-.435,6.041.1,8.591,1.593,2.635,1.544,4.281,3.964,5.35,6.762.462,1.21,1.616,2.043,2.952,1.676,1.158-.318,2.141-1.735,1.676-2.952Z"></path><path class="i" d="M17.057,28.688c-.081-.211-.161-.426-.27-.624-.109-.199-.265-.379-.408-.552-.046-.056-.093-.108-.147-.155-.172-.15-.355-.302-.553-.418-.197-.117-.422-.2-.635-.279-.085-.032-.171-.056-.26-.072-.243-.044-.497-.086-.745-.094-.26-.008-.527.045-.781.083-.105.016-.207.037-.307.072-.225.08-.46.168-.667.29-.442.259-.716.569-1.01.975-.045.063-.086.128-.119.198-.099.207-.199.424-.265.645-.047.156-.061.319-.083.481-.005.035-.006.07-.011.105-.026.123-.04.25-.039.38.002.283.048.571.101.846.054.282.184.552.302.809.122.266.319.506.512.72.046.051.097.096.15.139.174.14.352.302.555.404.491.248.835.325,1.374.382.346.037.711-.022,1.048-.088.309-.061.62-.194.888-.355.191-.114.37-.262.537-.405.056-.048.107-.1.155-.156.369-.436.689-.937.778-1.514.046-.3.098-.589.068-.89-.03-.302-.055-.637-.166-.927Z"></path><path class="i" d="M25.651,28.688c-.081-.211-.161-.426-.27-.624-.109-.199-.265-.379-.408-.552-.046-.056-.093-.108-.147-.155-.172-.15-.355-.302-.553-.418-.197-.117-.422-.2-.635-.279-.085-.032-.171-.056-.26-.072-.243-.044-.497-.086-.745-.094-.26-.008-.527.045-.781.083-.105.016-.207.037-.307.072-.225.08-.46.168-.667.29-.442.259-.716.569-1.01.975-.045.063-.086.128-.119.198-.099.207-.199.424-.265.645-.047.156-.061.319-.083.481-.005.035-.006.07-.011.105-.026.123-.04.25-.039.38.002.283.048.571.101.846.054.282.184.552.302.809.122.266.319.506.512.72.046.051.097.096.15.139.174.14.352.302.555.404.491.248.835.325,1.374.382.346.037.711-.022,1.048-.088.309-.061.62-.194.888-.355.191-.114.37-.262.537-.405.056-.048.107-.1.155-.156.369-.436.689-.937.778-1.514.046-.3.098-.589.068-.89-.03-.302-.055-.637-.166-.927Z"></path><path class="i" d="M34.245,28.688c-.081-.211-.161-.426-.27-.624-.109-.199-.265-.379-.408-.552-.046-.056-.093-.108-.147-.155-.172-.15-.355-.302-.553-.418-.197-.117-.422-.2-.635-.279-.085-.032-.171-.056-.26-.072-.243-.044-.497-.086-.745-.094-.26-.008-.527.045-.781.083-.105.016-.207.037-.307.072-.225.08-.46.168-.667.29-.442.259-.716.569-1.01.975-.045.063-.086.128-.119.198-.099.207-.199.424-.265.645-.047.156-.061.319-.083.481-.005.035-.006.07-.011.105-.026.123-.04.25-.039.38.002.283.048.571.101.846.054.282.184.552.302.809.122.266.319.506.512.72.046.051.097.096.15.139.174.14.352.302.555.404.491.248.835.325,1.374.382.346.037.711-.022,1.048-.088.309-.061.62-.194.888-.355.191-.114.37-.262.537-.405.056-.048.107-.1.155-.156.369-.436.689-.937.778-1.514.046-.3.098-.589.068-.89-.03-.302-.055-.637-.166-.927Z"></path><path class="i" d="M98.053,34.395c.53.36,1.051.784,1.535,1.25.93.9,1.74,1.885,2.41,2.934,1.545,2.426,2.326,5.158,2.391,7.902.047,2.034-1.452,3.675-3.238,3.675h-19.484c-1.787,0-3.285-1.642-3.238-3.675.065-2.743.847-5.476,2.391-7.902.661-1.049,1.479-2.034,2.41-2.934.493-.477,1.014-.9,1.554-1.271"></path><path class="i" d="M96.842,36.468c2.066,1.457,3.672,3.776,4.46,6.163.354,1.074,1.545,4.617-.024,5.105-.31.097-.962.021-1.368.021h-3.372c-3.047,0-6.094,0-9.141,0h-3.845c-.586,0-1.253.09-1.833,0-1.499-.232-.794-2.945-.509-4.075.712-2.822,2.392-5.532,4.785-7.235,1.055-.75,1.557-2.094.861-3.284-.61-1.042-2.222-1.616-3.284-.861-2.915,2.075-5.082,4.894-6.384,8.225-1.114,2.848-1.932,6.803-.097,9.518,1.99,2.945,5.291,2.511,8.351,2.511h10.878c2.379,0,5.684.503,7.771-.886,3.382-2.251,2.985-6.692,1.907-10.107-1.178-3.731-3.54-6.987-6.735-9.24-1.06-.748-2.669-.19-3.284.861-.702,1.201-.201,2.534.861,3.284h0Z"></path><path class="i" d="M12.992,15.039h7.885c1.255,0,2.458-1.104,2.4-2.4s-1.055-2.4-2.4-2.4h-7.885c-1.255,0-2.458,1.104-2.4,2.4s1.055,2.4,2.4,2.4h0Z"></path><path class="i" d="M101.596,20.235c-2.68-4.692-7.769-6.812-13.017-5.735-4.789.983-8.232,5.592-8.831,10.282-.637,4.987,1.535,10.046,5.943,12.621,4.313,2.52,10.147,1.85,13.721-1.673,4.085-4.026,4.826-10.506,2.184-15.495-.606-1.145-2.198-1.496-3.284-.861-1.159.678-1.47,2.134-.861,3.284,1.481,2.796,1.196,6.273-.68,8.806-1.746,2.358-5.045,3.337-7.687,2.286-2.797-1.113-4.581-3.869-4.662-6.952-.078-2.962,1.475-6.205,4.349-7.375,1.495-.608,3.408-.586,4.994-.037,1.565.541,2.819,1.754,3.686,3.272,1.532,2.682,5.681.267,4.145-2.423Z"></path></g></g></svg>