<svg width="589" height="234" viewBox="0 0 589 234" fill="none" xmlns="http://www.w3.org/2000/svg">
<path d="M2.196 8.98V13H1.188V4.204H6.384V5.092H2.196V8.092H6.036V8.98H2.196ZM7.88888 13V6.508H8.84888V7.696H8.90888C9.02888 7.352 9.24488 7.068 9.55688 6.844C9.87688 6.62 10.2889 6.508 10.7929 6.508H11.2009V7.468H10.6009C10.0729 7.468 9.64888 7.572 9.32888 7.78C9.00888 7.988 8.84888 8.256 8.84888 8.584V13H7.88888ZM14.8598 13.156C14.2838 13.156 13.7758 13.016 13.3358 12.736C12.8958 12.456 12.5518 12.06 12.3038 11.548C12.0638 11.028 11.9438 10.428 11.9438 9.748C11.9438 9.068 12.0638 8.472 12.3038 7.96C12.5518 7.448 12.8958 7.052 13.3358 6.772C13.7758 6.492 14.2838 6.352 14.8598 6.352C15.4358 6.352 15.9438 6.492 16.3838 6.772C16.8318 7.052 17.1758 7.448 17.4158 7.96C17.6638 8.472 17.7878 9.068 17.7878 9.748C17.7878 10.428 17.6638 11.028 17.4158 11.548C17.1758 12.06 16.8318 12.456 16.3838 12.736C15.9438 13.016 15.4358 13.156 14.8598 13.156ZM14.8598 12.304C15.4358 12.304 15.8958 12.128 16.2398 11.776C16.5838 11.416 16.7558 10.896 16.7558 10.216V9.292C16.7558 8.612 16.5838 8.096 16.2398 7.744C15.8958 7.384 15.4358 7.204 14.8598 7.204C14.2918 7.204 13.8358 7.384 13.4918 7.744C13.1478 8.096 12.9758 8.612 12.9758 9.292V10.216C12.9758 10.896 13.1478 11.416 13.4918 11.776C13.8358 12.128 14.2918 12.304 14.8598 12.304ZM19.4787 13V6.508H20.4387V7.552H20.4867C20.8307 6.76 21.4467 6.364 22.3347 6.364C23.0067 6.364 23.5347 6.58 23.9187 7.012C24.3107 7.444 24.5067 8.048 24.5067 8.824V13H23.5467V9.016C23.5467 8.424 23.4187 7.98 23.1627 7.684C22.9147 7.38 22.5467 7.228 22.0587 7.228C21.6107 7.228 21.2267 7.34 20.9067 7.564C20.5947 7.78 20.4387 8.092 20.4387 8.5V13H19.4787ZM27.9954 13C27.6674 13 27.4154 12.908 27.2394 12.724C27.0634 12.532 26.9754 12.28 26.9754 11.968V7.348H25.8834V6.508H26.5074C26.7154 6.508 26.8594 6.468 26.9394 6.388C27.0194 6.3 27.0594 6.148 27.0594 5.932V4.696H27.9354V6.508H29.3634V7.348H27.9354V12.16H29.2674V13H27.9954ZM33.8473 9.688H30.5713V8.656H33.8473V9.688ZM38.3558 13.156C37.7798 13.156 37.2718 13.016 36.8318 12.736C36.3918 12.456 36.0518 12.06 35.8118 11.548C35.5718 11.036 35.4518 10.436 35.4518 9.748C35.4518 9.068 35.5718 8.472 35.8118 7.96C36.0518 7.448 36.3878 7.056 36.8198 6.784C37.2598 6.504 37.7678 6.364 38.3438 6.364C38.9118 6.364 39.4038 6.5 39.8198 6.772C40.2438 7.036 40.5678 7.408 40.7918 7.888C41.0158 8.368 41.1278 8.916 41.1278 9.532V9.976H36.4598V10.288C36.4598 10.888 36.6318 11.376 36.9758 11.752C37.3278 12.128 37.8038 12.316 38.4038 12.316C38.8198 12.316 39.1838 12.216 39.4958 12.016C39.8158 11.816 40.0598 11.532 40.2278 11.164L40.9118 11.656C40.7038 12.112 40.3758 12.476 39.9278 12.748C39.4798 13.02 38.9558 13.156 38.3558 13.156ZM36.4598 9.256H40.0958V9.136C40.0958 8.544 39.9318 8.068 39.6038 7.708C39.2838 7.348 38.8638 7.168 38.3438 7.168C37.7918 7.168 37.3398 7.356 36.9878 7.732C36.6358 8.108 36.4598 8.592 36.4598 9.184V9.256ZM42.8342 13V6.508H43.7942V7.552H43.8422C44.1862 6.76 44.8022 6.364 45.6902 6.364C46.3622 6.364 46.8902 6.58 47.2742 7.012C47.6662 7.444 47.8622 8.048 47.8622 8.824V13H46.9022V9.016C46.9022 8.424 46.7742 7.98 46.5182 7.684C46.2702 7.38 45.9022 7.228 45.4142 7.228C44.9662 7.228 44.5822 7.34 44.2622 7.564C43.9502 7.78 43.7942 8.092 43.7942 8.5V13H42.8342ZM52.1549 13.156C51.6269 13.156 51.1629 13.02 50.7629 12.748C50.3709 12.468 50.0669 12.072 49.8509 11.56C49.6349 11.04 49.5269 10.436 49.5269 9.748C49.5269 9.06 49.6349 8.46 49.8509 7.948C50.0669 7.436 50.3709 7.044 50.7629 6.772C51.1629 6.492 51.6269 6.352 52.1549 6.352C53.0989 6.352 53.7389 6.752 54.0749 7.552H54.1229V3.676H55.0829V13H54.1229V11.956H54.0749C53.8829 12.356 53.6269 12.656 53.3069 12.856C52.9949 13.056 52.6109 13.156 52.1549 13.156ZM52.4189 12.292C52.9069 12.292 53.3109 12.172 53.6309 11.932C53.9589 11.684 54.1229 11.352 54.1229 10.936V8.5C54.1229 8.124 53.9549 7.816 53.6189 7.576C53.2909 7.336 52.8909 7.216 52.4189 7.216C51.8509 7.216 51.3989 7.4 51.0629 7.768C50.7269 8.128 50.5589 8.608 50.5589 9.208V10.288C50.5589 10.896 50.7269 11.384 51.0629 11.752C51.3989 12.112 51.8509 12.292 52.4189 12.292Z" fill="#808080"/>
<path d="M65.4355 45.4522C88.2065 20.2581 124.246 4.96985 174.5 15.7627C289.328 55.4648 304 58.827 304 115.502C304 172.178 285 201.998 189 211C109.5 214.998 35.5 181.176 35.5 124.5C35.5 106.599 39.9125 87.1292 48.9346 69.5069C33.0963 57.327 28.6469 45.8568 28.1074 22.1973C37.3562 39.413 46.8858 45.4806 65.4355 45.4522Z" fill="#4CE6FA" fill-opacity="0.39"/>
<path d="M96.45 79H94.322V74.744H90.29V79H88.162V68.738H90.29V72.868H94.322V68.738H96.45V79ZM105.799 68.738V70.628H102.957V79H100.829V70.628H97.9874V68.738H105.799ZM109.346 79H107.344V68.738H109.598L112.188 73.638H112.23L114.778 68.738H117.046V79H115.044V72.042H115.002L114.246 73.568L112.188 77.306L110.172 73.582L109.388 71.958H109.346V79ZM125.423 77.11V79H119.375V68.738H121.503V77.11H125.423ZM127.922 81.226H126.214L130.526 68.122H132.234L127.922 81.226ZM137.777 79.182C136.377 79.182 135.276 78.734 134.473 77.838C133.68 76.942 133.283 75.6447 133.283 73.946C133.283 72.8073 133.465 71.8367 133.829 71.034C134.193 70.222 134.711 69.606 135.383 69.186C136.065 68.766 136.863 68.556 137.777 68.556C138.701 68.556 139.471 68.752 140.087 69.144C140.703 69.536 141.198 70.1427 141.571 70.964L139.737 71.902C139.42 70.9313 138.767 70.446 137.777 70.446C137.096 70.446 136.55 70.6747 136.139 71.132C135.738 71.5893 135.537 72.2333 135.537 73.064V74.688C135.537 75.5093 135.738 76.1487 136.139 76.606C136.55 77.0633 137.096 77.292 137.777 77.292C138.3 77.292 138.734 77.152 139.079 76.872C139.425 76.5827 139.686 76.2047 139.863 75.738L141.599 76.732C140.815 78.3653 139.541 79.182 137.777 79.182ZM146.467 79.182C144.899 79.182 143.611 78.622 142.603 77.502L144.017 76.102C144.708 76.9047 145.571 77.306 146.607 77.306C147.158 77.306 147.578 77.1893 147.867 76.956C148.156 76.7227 148.301 76.4007 148.301 75.99C148.301 75.6633 148.203 75.402 148.007 75.206C147.82 75.01 147.494 74.8793 147.027 74.814L146.033 74.674C143.952 74.3847 142.911 73.372 142.911 71.636C142.911 71.0293 143.065 70.4927 143.373 70.026C143.681 69.5593 144.12 69.2 144.689 68.948C145.268 68.6867 145.944 68.556 146.719 68.556C148.212 68.556 149.388 69.046 150.247 70.026L148.833 71.426C148.562 71.1087 148.245 70.866 147.881 70.698C147.526 70.5207 147.097 70.432 146.593 70.432C146.08 70.432 145.692 70.5253 145.431 70.712C145.17 70.8987 145.039 71.1647 145.039 71.51C145.039 71.8647 145.137 72.1307 145.333 72.308C145.538 72.476 145.874 72.5973 146.341 72.672L147.335 72.84C148.39 73.0267 149.169 73.3627 149.673 73.848C150.177 74.3333 150.429 75.0053 150.429 75.864C150.429 76.5173 150.27 77.096 149.953 77.6C149.645 78.0947 149.192 78.482 148.595 78.762C147.998 79.042 147.288 79.182 146.467 79.182ZM155.381 79.182C153.813 79.182 152.525 78.622 151.517 77.502L152.931 76.102C153.622 76.9047 154.485 77.306 155.521 77.306C156.072 77.306 156.492 77.1893 156.781 76.956C157.07 76.7227 157.215 76.4007 157.215 75.99C157.215 75.6633 157.117 75.402 156.921 75.206C156.734 75.01 156.408 74.8793 155.941 74.814L154.947 74.674C152.866 74.3847 151.825 73.372 151.825 71.636C151.825 71.0293 151.979 70.4927 152.287 70.026C152.595 69.5593 153.034 69.2 153.603 68.948C154.182 68.6867 154.858 68.556 155.633 68.556C157.126 68.556 158.302 69.046 159.161 70.026L157.747 71.426C157.476 71.1087 157.159 70.866 156.795 70.698C156.44 70.5207 156.011 70.432 155.507 70.432C154.994 70.432 154.606 70.5253 154.345 70.712C154.084 70.8987 153.953 71.1647 153.953 71.51C153.953 71.8647 154.051 72.1307 154.247 72.308C154.452 72.476 154.788 72.5973 155.255 72.672L156.249 72.84C157.304 73.0267 158.083 73.3627 158.587 73.848C159.091 74.3333 159.343 75.0053 159.343 75.864C159.343 76.5173 159.184 77.096 158.867 77.6C158.559 78.0947 158.106 78.482 157.509 78.762C156.912 79.042 156.202 79.182 155.381 79.182Z" fill="#005D79"/>
<path d="M90.752 106.168C89.8 106.168 89.0393 105.921 88.47 105.426C87.91 104.922 87.5553 104.231 87.406 103.354L89.366 102.948C89.5527 103.853 90.0007 104.306 90.71 104.306C91.0833 104.306 91.382 104.194 91.606 103.97C91.83 103.737 91.942 103.401 91.942 102.962V97.446H88.792V95.738H94.07V103.074C94.07 103.69 93.9347 104.231 93.664 104.698C93.4027 105.165 93.02 105.529 92.516 105.79C92.0213 106.042 91.4333 106.168 90.752 106.168ZM98.0608 106.182C97.2954 106.182 96.6981 105.977 96.2688 105.566C95.8488 105.155 95.6388 104.609 95.6388 103.928C95.6388 103.135 95.9234 102.537 96.4928 102.136C97.0714 101.735 97.8928 101.534 98.9568 101.534H100.203V101.016C100.203 100.167 99.7594 99.742 98.8728 99.742C98.4714 99.742 98.1354 99.826 97.8648 99.994C97.6034 100.162 97.3748 100.391 97.1788 100.68L95.9468 99.588C96.2641 99.112 96.6654 98.748 97.1508 98.496C97.6361 98.244 98.2568 98.118 99.0128 98.118C100.077 98.118 100.884 98.3607 101.435 98.846C101.995 99.322 102.275 100.013 102.275 100.918V104.39H103.003V106H101.855C101.463 106 101.136 105.879 100.875 105.636C100.623 105.393 100.469 105.067 100.413 104.656H100.329C100.207 105.151 99.9461 105.529 99.5448 105.79C99.1434 106.051 98.6488 106.182 98.0608 106.182ZM98.8028 104.74C99.2134 104.74 99.5494 104.651 99.8108 104.474C100.072 104.287 100.203 104.021 100.203 103.676V102.71H99.0968C98.6488 102.71 98.3081 102.789 98.0748 102.948C97.8414 103.107 97.7248 103.335 97.7248 103.634V103.858C97.7248 104.446 98.0841 104.74 98.8028 104.74ZM108.435 106H105.971L103.437 98.3H105.481L106.475 101.492L107.189 104.264H107.315L108.043 101.492L109.009 98.3H110.969L108.435 106ZM113.906 106.182C113.141 106.182 112.544 105.977 112.114 105.566C111.694 105.155 111.484 104.609 111.484 103.928C111.484 103.135 111.769 102.537 112.338 102.136C112.917 101.735 113.738 101.534 114.802 101.534H116.048V101.016C116.048 100.167 115.605 99.742 114.718 99.742C114.317 99.742 113.981 99.826 113.71 99.994C113.449 100.162 113.22 100.391 113.024 100.68L111.792 99.588C112.11 99.112 112.511 98.748 112.996 98.496C113.482 98.244 114.102 98.118 114.858 98.118C115.922 98.118 116.73 98.3607 117.28 98.846C117.84 99.322 118.12 100.013 118.12 100.918V104.39H118.848V106H117.7C117.308 106 116.982 105.879 116.72 105.636C116.468 105.393 116.314 105.067 116.258 104.656H116.174C116.053 105.151 115.792 105.529 115.39 105.79C114.989 106.051 114.494 106.182 113.906 106.182ZM114.648 104.74C115.059 104.74 115.395 104.651 115.656 104.474C115.918 104.287 116.048 104.021 116.048 103.676V102.71H114.942C114.494 102.71 114.154 102.789 113.92 102.948C113.687 103.107 113.57 103.335 113.57 103.634V103.858C113.57 104.446 113.93 104.74 114.648 104.74ZM123.703 106.182C122.135 106.182 120.847 105.622 119.839 104.502L121.253 103.102C121.944 103.905 122.807 104.306 123.843 104.306C124.394 104.306 124.814 104.189 125.103 103.956C125.393 103.723 125.537 103.401 125.537 102.99C125.537 102.663 125.439 102.402 125.243 102.206C125.057 102.01 124.73 101.879 124.263 101.814L123.269 101.674C121.188 101.385 120.147 100.372 120.147 98.636C120.147 98.0293 120.301 97.4927 120.609 97.026C120.917 96.5593 121.356 96.2 121.925 95.948C122.504 95.6867 123.181 95.556 123.955 95.556C125.449 95.556 126.625 96.046 127.483 97.026L126.069 98.426C125.799 98.1087 125.481 97.866 125.117 97.698C124.763 97.5207 124.333 97.432 123.829 97.432C123.316 97.432 122.929 97.5253 122.667 97.712C122.406 97.8987 122.275 98.1647 122.275 98.51C122.275 98.8647 122.373 99.1307 122.569 99.308C122.775 99.476 123.111 99.5973 123.577 99.672L124.571 99.84C125.626 100.027 126.405 100.363 126.909 100.848C127.413 101.333 127.665 102.005 127.665 102.864C127.665 103.517 127.507 104.096 127.189 104.6C126.881 105.095 126.429 105.482 125.831 105.762C125.234 106.042 124.525 106.182 123.703 106.182ZM132.515 106.182C131.376 106.182 130.494 105.823 129.869 105.104C129.243 104.376 128.931 103.391 128.931 102.15C128.931 100.899 129.243 99.9147 129.869 99.196C130.494 98.4773 131.376 98.118 132.515 98.118C133.271 98.118 133.91 98.2953 134.433 98.65C134.965 98.9953 135.343 99.4807 135.567 100.106L133.901 100.848C133.817 100.521 133.658 100.26 133.425 100.064C133.191 99.8587 132.888 99.756 132.515 99.756C132.048 99.756 131.693 99.9053 131.451 100.204C131.208 100.503 131.087 100.913 131.087 101.436V102.864C131.087 103.387 131.208 103.797 131.451 104.096C131.693 104.395 132.048 104.544 132.515 104.544C132.916 104.544 133.233 104.441 133.467 104.236C133.7 104.021 133.887 103.732 134.027 103.368L135.623 104.082C135.371 104.782 134.979 105.309 134.447 105.664C133.924 106.009 133.28 106.182 132.515 106.182ZM136.995 106V98.3H139.067V99.938H139.137C139.24 99.4713 139.454 99.084 139.781 98.776C140.117 98.4587 140.565 98.3 141.125 98.3H141.517V100.232H140.957C140.313 100.232 139.837 100.325 139.529 100.512C139.221 100.689 139.067 100.993 139.067 101.422V106H136.995ZM143.896 97.362C143.495 97.362 143.192 97.2687 142.986 97.082C142.79 96.8953 142.692 96.648 142.692 96.34V96.032C142.692 95.724 142.79 95.4767 142.986 95.29C143.192 95.1033 143.495 95.01 143.896 95.01C144.298 95.01 144.596 95.1033 144.792 95.29C144.998 95.4767 145.1 95.724 145.1 96.032V96.34C145.1 96.648 144.998 96.8953 144.792 97.082C144.596 97.2687 144.298 97.362 143.896 97.362ZM144.932 106H142.86V98.3H144.932V106ZM147.003 108.94V98.3H149.075V99.588H149.145C149.275 99.1493 149.527 98.7947 149.901 98.524C150.283 98.2533 150.727 98.118 151.231 98.118C152.201 98.118 152.939 98.4633 153.443 99.154C153.956 99.8447 154.213 100.843 154.213 102.15C154.213 103.447 153.956 104.446 153.443 105.146C152.939 105.837 152.201 106.182 151.231 106.182C150.736 106.182 150.293 106.047 149.901 105.776C149.518 105.496 149.261 105.141 149.131 104.712H149.075V108.94H147.003ZM150.545 104.502C150.993 104.502 151.357 104.348 151.637 104.04C151.917 103.723 152.057 103.312 152.057 102.808V101.492C152.057 100.988 151.917 100.582 151.637 100.274C151.357 99.9567 150.993 99.798 150.545 99.798C150.115 99.798 149.761 99.9053 149.481 100.12C149.21 100.335 149.075 100.619 149.075 100.974V103.312C149.075 103.676 149.21 103.965 149.481 104.18C149.751 104.395 150.106 104.502 150.545 104.502ZM158.397 106C157.688 106 157.147 105.818 156.773 105.454C156.409 105.081 156.227 104.549 156.227 103.858V99.91H155.121V98.3H155.681C155.961 98.3 156.157 98.2347 156.269 98.104C156.381 97.9733 156.437 97.768 156.437 97.488V96.214H158.299V98.3H159.825V99.91H158.299V104.39H159.713V106H158.397Z" fill="#005D79"/>
<path d="M90.29 156.164V160H88.162V149.738H92.936C93.5613 149.738 94.1027 149.873 94.56 150.144C95.0267 150.415 95.3813 150.793 95.624 151.278C95.876 151.763 96.002 152.328 96.002 152.972C96.002 153.691 95.8433 154.307 95.526 154.82C95.2087 155.324 94.742 155.688 94.126 155.912L96.17 160H93.804L91.97 156.164H90.29ZM92.684 154.372C93.0293 154.372 93.3 154.283 93.496 154.106C93.7013 153.919 93.804 153.649 93.804 153.294V152.65C93.804 152.305 93.7013 152.043 93.496 151.866C93.3 151.679 93.0293 151.586 92.684 151.586H90.29V154.372H92.684ZM100.866 160.182C99.7183 160.182 98.8177 159.823 98.1643 159.104C97.5203 158.376 97.1983 157.391 97.1983 156.15C97.1983 154.918 97.5157 153.938 98.1503 153.21C98.785 152.482 99.667 152.118 100.796 152.118C101.59 152.118 102.252 152.295 102.784 152.65C103.316 152.995 103.708 153.467 103.96 154.064C104.212 154.652 104.338 155.31 104.338 156.038V156.668H99.3403V156.808C99.3403 157.359 99.485 157.788 99.7743 158.096C100.073 158.404 100.512 158.558 101.09 158.558C101.51 158.558 101.865 158.474 102.154 158.306C102.453 158.138 102.742 157.895 103.022 157.578L104.072 158.838C103.736 159.258 103.288 159.589 102.728 159.832C102.178 160.065 101.557 160.182 100.866 160.182ZM99.3403 155.45H102.196V155.31C102.196 154.797 102.075 154.391 101.832 154.092C101.599 153.793 101.263 153.644 100.824 153.644C100.376 153.644 100.017 153.798 99.7463 154.106C99.4757 154.414 99.3403 154.82 99.3403 155.324V155.45ZM107.809 160.182C107.043 160.182 106.446 159.977 106.017 159.566C105.597 159.155 105.387 158.609 105.387 157.928C105.387 157.135 105.671 156.537 106.241 156.136C106.819 155.735 107.641 155.534 108.705 155.534H109.951V155.016C109.951 154.167 109.507 153.742 108.621 153.742C108.219 153.742 107.883 153.826 107.613 153.994C107.351 154.162 107.123 154.391 106.927 154.68L105.695 153.588C106.012 153.112 106.413 152.748 106.899 152.496C107.384 152.244 108.005 152.118 108.761 152.118C109.825 152.118 110.632 152.361 111.183 152.846C111.743 153.322 112.023 154.013 112.023 154.918V158.39H112.751V160H111.603C111.211 160 110.884 159.879 110.623 159.636C110.371 159.393 110.217 159.067 110.161 158.656H110.077C109.955 159.151 109.694 159.529 109.293 159.79C108.891 160.051 108.397 160.182 107.809 160.182ZM108.551 158.74C108.961 158.74 109.297 158.651 109.559 158.474C109.82 158.287 109.951 158.021 109.951 157.676V156.71H108.845C108.397 156.71 108.056 156.789 107.823 156.948C107.589 157.107 107.473 157.335 107.473 157.634V157.858C107.473 158.446 107.832 158.74 108.551 158.74ZM117.312 160.182C116.173 160.182 115.291 159.823 114.666 159.104C114.04 158.376 113.728 157.391 113.728 156.15C113.728 154.899 114.04 153.915 114.666 153.196C115.291 152.477 116.173 152.118 117.312 152.118C118.068 152.118 118.707 152.295 119.23 152.65C119.762 152.995 120.14 153.481 120.364 154.106L118.698 154.848C118.614 154.521 118.455 154.26 118.222 154.064C117.988 153.859 117.685 153.756 117.312 153.756C116.845 153.756 116.49 153.905 116.248 154.204C116.005 154.503 115.884 154.913 115.884 155.436V156.864C115.884 157.387 116.005 157.797 116.248 158.096C116.49 158.395 116.845 158.544 117.312 158.544C117.713 158.544 118.03 158.441 118.264 158.236C118.497 158.021 118.684 157.732 118.824 157.368L120.42 158.082C120.168 158.782 119.776 159.309 119.244 159.664C118.721 160.009 118.077 160.182 117.312 160.182ZM124.382 160C123.673 160 123.131 159.818 122.758 159.454C122.394 159.081 122.212 158.549 122.212 157.858V153.91H121.106V152.3H121.666C121.946 152.3 122.142 152.235 122.254 152.104C122.366 151.973 122.422 151.768 122.422 151.488V150.214H124.284V152.3H125.81V153.91H124.284V158.39H125.698V160H124.382Z" fill="#005D79"/>
<path d="M189.922 106H187.542L184.224 95.738H186.38L187.92 100.694L188.76 103.984H188.816L189.628 100.694L191.168 95.738H193.268L189.922 106ZM196.535 106.182C195.751 106.182 195.149 105.916 194.729 105.384C194.309 104.852 194.099 104.101 194.099 103.13V98.3H196.171V102.962C196.171 103.485 196.259 103.872 196.437 104.124C196.623 104.376 196.917 104.502 197.319 104.502C197.72 104.502 198.056 104.399 198.327 104.194C198.607 103.989 198.747 103.699 198.747 103.326V98.3H200.819V106H198.747V104.712H198.677C198.518 105.16 198.261 105.519 197.907 105.79C197.561 106.051 197.104 106.182 196.535 106.182ZM206.069 106.182C204.921 106.182 204.021 105.823 203.367 105.104C202.723 104.376 202.401 103.391 202.401 102.15C202.401 100.918 202.719 99.938 203.353 99.21C203.988 98.482 204.87 98.118 205.999 98.118C206.793 98.118 207.455 98.2953 207.987 98.65C208.519 98.9953 208.911 99.4667 209.163 100.064C209.415 100.652 209.541 101.31 209.541 102.038V102.668H204.543V102.808C204.543 103.359 204.688 103.788 204.977 104.096C205.276 104.404 205.715 104.558 206.293 104.558C206.713 104.558 207.068 104.474 207.357 104.306C207.656 104.138 207.945 103.895 208.225 103.578L209.275 104.838C208.939 105.258 208.491 105.589 207.931 105.832C207.381 106.065 206.76 106.182 206.069 106.182ZM204.543 101.45H207.399V101.31C207.399 100.797 207.278 100.391 207.035 100.092C206.802 99.7933 206.466 99.644 206.027 99.644C205.579 99.644 205.22 99.798 204.949 100.106C204.679 100.414 204.543 100.82 204.543 101.324V101.45ZM212.163 106.182C211.762 106.182 211.454 106.079 211.239 105.874C211.034 105.669 210.931 105.398 210.931 105.062V104.782C210.931 104.446 211.034 104.175 211.239 103.97C211.454 103.765 211.762 103.662 212.163 103.662C212.564 103.662 212.868 103.765 213.073 103.97C213.288 104.175 213.395 104.446 213.395 104.782V105.062C213.395 105.398 213.288 105.669 213.073 105.874C212.868 106.079 212.564 106.182 212.163 106.182ZM216.519 97.362C216.118 97.362 215.815 97.2687 215.609 97.082C215.413 96.8953 215.315 96.648 215.315 96.34V96.032C215.315 95.724 215.413 95.4767 215.609 95.29C215.815 95.1033 216.118 95.01 216.519 95.01C216.921 95.01 217.219 95.1033 217.415 95.29C217.621 95.4767 217.723 95.724 217.723 96.032V96.34C217.723 96.648 217.621 96.8953 217.415 97.082C217.219 97.2687 216.921 97.362 216.519 97.362ZM214.335 108.94V107.33H215.483V98.3H217.555V106.868C217.555 108.249 216.846 108.94 215.427 108.94H214.335ZM222.202 106.182C221.493 106.182 220.881 106.065 220.368 105.832C219.855 105.599 219.393 105.249 218.982 104.782L220.228 103.55C220.816 104.231 221.502 104.572 222.286 104.572C223.079 104.572 223.476 104.306 223.476 103.774C223.476 103.569 223.406 103.41 223.266 103.298C223.135 103.177 222.925 103.097 222.636 103.06L221.824 102.962C220.965 102.85 220.321 102.603 219.892 102.22C219.463 101.837 219.248 101.301 219.248 100.61C219.248 100.115 219.369 99.6813 219.612 99.308C219.855 98.9347 220.2 98.6453 220.648 98.44C221.096 98.2253 221.614 98.118 222.202 98.118C222.949 98.118 223.546 98.216 223.994 98.412C224.451 98.608 224.885 98.9113 225.296 99.322L224.106 100.54C223.854 100.288 223.574 100.092 223.266 99.952C222.958 99.8027 222.641 99.728 222.314 99.728C221.95 99.728 221.679 99.7933 221.502 99.924C221.325 100.045 221.236 100.218 221.236 100.442C221.236 100.666 221.301 100.839 221.432 100.96C221.563 101.081 221.787 101.165 222.104 101.212L222.944 101.324C224.624 101.548 225.464 102.318 225.464 103.634C225.464 104.129 225.329 104.567 225.058 104.95C224.787 105.333 224.405 105.636 223.91 105.86C223.415 106.075 222.846 106.182 222.202 106.182Z" fill="#005D79"/>
<path d="M95.19 122.738V124.628H92.348V133H90.22V124.628H87.378V122.738H95.19ZM96.2684 135.94V134.33H97.6964L97.9904 133.378L95.2604 125.3H97.3184L98.5364 129.08L99.0544 131.208H99.1384L99.7124 129.08L100.902 125.3H102.834L99.8244 134.26C99.6191 134.848 99.3438 135.273 98.9984 135.534C98.6531 135.805 98.1631 135.94 97.5284 135.94H96.2684ZM103.977 135.94V125.3H106.049V126.588H106.119C106.25 126.149 106.502 125.795 106.875 125.524C107.258 125.253 107.701 125.118 108.205 125.118C109.176 125.118 109.913 125.463 110.417 126.154C110.931 126.845 111.187 127.843 111.187 129.15C111.187 130.447 110.931 131.446 110.417 132.146C109.913 132.837 109.176 133.182 108.205 133.182C107.711 133.182 107.267 133.047 106.875 132.776C106.493 132.496 106.236 132.141 106.105 131.712H106.049V135.94H103.977ZM107.519 131.502C107.967 131.502 108.331 131.348 108.611 131.04C108.891 130.723 109.031 130.312 109.031 129.808V128.492C109.031 127.988 108.891 127.582 108.611 127.274C108.331 126.957 107.967 126.798 107.519 126.798C107.09 126.798 106.735 126.905 106.455 127.12C106.185 127.335 106.049 127.619 106.049 127.974V130.312C106.049 130.676 106.185 130.965 106.455 131.18C106.726 131.395 107.081 131.502 107.519 131.502ZM116.042 133.182C114.894 133.182 113.993 132.823 113.34 132.104C112.696 131.376 112.374 130.391 112.374 129.15C112.374 127.918 112.691 126.938 113.326 126.21C113.961 125.482 114.843 125.118 115.972 125.118C116.765 125.118 117.428 125.295 117.96 125.65C118.492 125.995 118.884 126.467 119.136 127.064C119.388 127.652 119.514 128.31 119.514 129.038V129.668H114.516V129.808C114.516 130.359 114.661 130.788 114.95 131.096C115.249 131.404 115.687 131.558 116.266 131.558C116.686 131.558 117.041 131.474 117.33 131.306C117.629 131.138 117.918 130.895 118.198 130.578L119.248 131.838C118.912 132.258 118.464 132.589 117.904 132.832C117.353 133.065 116.733 133.182 116.042 133.182ZM114.516 128.45H117.372V128.31C117.372 127.797 117.251 127.391 117.008 127.092C116.775 126.793 116.439 126.644 116 126.644C115.552 126.644 115.193 126.798 114.922 127.106C114.651 127.414 114.516 127.82 114.516 128.324V128.45ZM124.346 133.182C122.778 133.182 121.49 132.622 120.482 131.502L121.896 130.102C122.587 130.905 123.45 131.306 124.486 131.306C125.037 131.306 125.457 131.189 125.746 130.956C126.035 130.723 126.18 130.401 126.18 129.99C126.18 129.663 126.082 129.402 125.886 129.206C125.699 129.01 125.373 128.879 124.906 128.814L123.912 128.674C121.831 128.385 120.79 127.372 120.79 125.636C120.79 125.029 120.944 124.493 121.252 124.026C121.56 123.559 121.999 123.2 122.568 122.948C123.147 122.687 123.823 122.556 124.598 122.556C126.091 122.556 127.267 123.046 128.126 124.026L126.712 125.426C126.441 125.109 126.124 124.866 125.76 124.698C125.405 124.521 124.976 124.432 124.472 124.432C123.959 124.432 123.571 124.525 123.31 124.712C123.049 124.899 122.918 125.165 122.918 125.51C122.918 125.865 123.016 126.131 123.212 126.308C123.417 126.476 123.753 126.597 124.22 126.672L125.214 126.84C126.269 127.027 127.048 127.363 127.552 127.848C128.056 128.333 128.308 129.005 128.308 129.864C128.308 130.517 128.149 131.096 127.832 131.6C127.524 132.095 127.071 132.482 126.474 132.762C125.877 133.042 125.167 133.182 124.346 133.182ZM133.157 133.182C132.019 133.182 131.137 132.823 130.511 132.104C129.886 131.376 129.573 130.391 129.573 129.15C129.573 127.899 129.886 126.915 130.511 126.196C131.137 125.477 132.019 125.118 133.157 125.118C133.913 125.118 134.553 125.295 135.075 125.65C135.607 125.995 135.985 126.481 136.209 127.106L134.543 127.848C134.459 127.521 134.301 127.26 134.067 127.064C133.834 126.859 133.531 126.756 133.157 126.756C132.691 126.756 132.336 126.905 132.093 127.204C131.851 127.503 131.729 127.913 131.729 128.436V129.864C131.729 130.387 131.851 130.797 132.093 131.096C132.336 131.395 132.691 131.544 133.157 131.544C133.559 131.544 133.876 131.441 134.109 131.236C134.343 131.021 134.529 130.732 134.669 130.368L136.265 131.082C136.013 131.782 135.621 132.309 135.089 132.664C134.567 133.009 133.923 133.182 133.157 133.182ZM137.638 133V125.3H139.71V126.938H139.78C139.882 126.471 140.097 126.084 140.424 125.776C140.76 125.459 141.208 125.3 141.768 125.3H142.16V127.232H141.6C140.956 127.232 140.48 127.325 140.172 127.512C139.864 127.689 139.71 127.993 139.71 128.422V133H137.638ZM144.539 124.362C144.137 124.362 143.834 124.269 143.629 124.082C143.433 123.895 143.335 123.648 143.335 123.34V123.032C143.335 122.724 143.433 122.477 143.629 122.29C143.834 122.103 144.137 122.01 144.539 122.01C144.94 122.01 145.239 122.103 145.435 122.29C145.64 122.477 145.743 122.724 145.743 123.032V123.34C145.743 123.648 145.64 123.895 145.435 124.082C145.239 124.269 144.94 124.362 144.539 124.362ZM145.575 133H143.503V125.3H145.575V133ZM147.645 135.94V125.3H149.717V126.588H149.787C149.918 126.149 150.17 125.795 150.543 125.524C150.926 125.253 151.369 125.118 151.873 125.118C152.844 125.118 153.581 125.463 154.085 126.154C154.599 126.845 154.855 127.843 154.855 129.15C154.855 130.447 154.599 131.446 154.085 132.146C153.581 132.837 152.844 133.182 151.873 133.182C151.379 133.182 150.935 133.047 150.543 132.776C150.161 132.496 149.904 132.141 149.773 131.712H149.717V135.94H147.645ZM151.187 131.502C151.635 131.502 151.999 131.348 152.279 131.04C152.559 130.723 152.699 130.312 152.699 129.808V128.492C152.699 127.988 152.559 127.582 152.279 127.274C151.999 126.957 151.635 126.798 151.187 126.798C150.758 126.798 150.403 126.905 150.123 127.12C149.853 127.335 149.717 127.619 149.717 127.974V130.312C149.717 130.676 149.853 130.965 150.123 131.18C150.394 131.395 150.749 131.502 151.187 131.502ZM159.04 133C158.331 133 157.789 132.818 157.416 132.454C157.052 132.081 156.87 131.549 156.87 130.858V126.91H155.764V125.3H156.324C156.604 125.3 156.8 125.235 156.912 125.104C157.024 124.973 157.08 124.768 157.08 124.488V123.214H158.942V125.3H160.468V126.91H158.942V131.39H160.356V133H159.04Z" fill="#005D79"/>
<path d="M187.164 79H185.162V68.738H187.486L190.412 73.764L191.392 75.85H191.448V68.738H193.45V79H191.126L188.2 73.974L187.206 71.888H187.164V79ZM198.753 79.182C198.016 79.182 197.377 79.0187 196.835 78.692C196.294 78.3653 195.879 77.8987 195.589 77.292C195.3 76.6853 195.155 75.9713 195.155 75.15C195.155 74.3287 195.3 73.6147 195.589 73.008C195.879 72.4013 196.294 71.9347 196.835 71.608C197.377 71.2813 198.016 71.118 198.753 71.118C199.491 71.118 200.13 71.2813 200.671 71.608C201.213 71.9347 201.628 72.4013 201.917 73.008C202.207 73.6147 202.351 74.3287 202.351 75.15C202.351 75.9713 202.207 76.6853 201.917 77.292C201.628 77.8987 201.213 78.3653 200.671 78.692C200.13 79.0187 199.491 79.182 198.753 79.182ZM198.753 77.544C199.211 77.544 199.565 77.404 199.817 77.124C200.069 76.8347 200.195 76.4287 200.195 75.906V74.394C200.195 73.8713 200.069 73.47 199.817 73.19C199.565 72.9007 199.211 72.756 198.753 72.756C198.296 72.756 197.941 72.9007 197.689 73.19C197.437 73.47 197.311 73.8713 197.311 74.394V75.906C197.311 76.4287 197.437 76.8347 197.689 77.124C197.941 77.404 198.296 77.544 198.753 77.544ZM206.521 79.182C205.55 79.182 204.808 78.8367 204.295 78.146C203.791 77.446 203.539 76.4473 203.539 75.15C203.539 73.8433 203.791 72.8447 204.295 72.154C204.808 71.4633 205.55 71.118 206.521 71.118C207.025 71.118 207.463 71.2533 207.837 71.524C208.219 71.7947 208.476 72.1493 208.607 72.588H208.677V68.122H210.749V79H208.677V77.712H208.621C208.49 78.1413 208.229 78.496 207.837 78.776C207.454 79.0467 207.015 79.182 206.521 79.182ZM207.207 77.502C207.645 77.502 208 77.3947 208.271 77.18C208.541 76.9653 208.677 76.676 208.677 76.312V73.974C208.677 73.6193 208.537 73.3347 208.257 73.12C207.986 72.9053 207.636 72.798 207.207 72.798C206.759 72.798 206.395 72.9567 206.115 73.274C205.835 73.582 205.695 73.988 205.695 74.492V75.808C205.695 76.312 205.835 76.7227 206.115 77.04C206.395 77.348 206.759 77.502 207.207 77.502ZM215.995 79.182C214.847 79.182 213.947 78.8227 213.293 78.104C212.649 77.376 212.327 76.3913 212.327 75.15C212.327 73.918 212.645 72.938 213.279 72.21C213.914 71.482 214.796 71.118 215.925 71.118C216.719 71.118 217.381 71.2953 217.913 71.65C218.445 71.9953 218.837 72.4667 219.089 73.064C219.341 73.652 219.467 74.31 219.467 75.038V75.668H214.469V75.808C214.469 76.3587 214.614 76.788 214.903 77.096C215.202 77.404 215.641 77.558 216.219 77.558C216.639 77.558 216.994 77.474 217.283 77.306C217.582 77.138 217.871 76.8953 218.151 76.578L219.201 77.838C218.865 78.258 218.417 78.5893 217.857 78.832C217.307 79.0653 216.686 79.182 215.995 79.182ZM214.469 74.45H217.325V74.31C217.325 73.7967 217.204 73.3907 216.961 73.092C216.728 72.7933 216.392 72.644 215.953 72.644C215.505 72.644 215.146 72.798 214.875 73.106C214.605 73.414 214.469 73.82 214.469 74.324V74.45ZM222.089 79.182C221.687 79.182 221.379 79.0793 221.165 78.874C220.959 78.6687 220.857 78.398 220.857 78.062V77.782C220.857 77.446 220.959 77.1753 221.165 76.97C221.379 76.7647 221.687 76.662 222.089 76.662C222.49 76.662 222.793 76.7647 222.999 76.97C223.213 77.1753 223.321 77.446 223.321 77.782V78.062C223.321 78.398 223.213 78.6687 222.999 78.874C222.793 79.0793 222.49 79.182 222.089 79.182ZM226.445 70.362C226.044 70.362 225.74 70.2687 225.535 70.082C225.339 69.8953 225.241 69.648 225.241 69.34V69.032C225.241 68.724 225.339 68.4767 225.535 68.29C225.74 68.1033 226.044 68.01 226.445 68.01C226.846 68.01 227.145 68.1033 227.341 68.29C227.546 68.4767 227.649 68.724 227.649 69.032V69.34C227.649 69.648 227.546 69.8953 227.341 70.082C227.145 70.2687 226.846 70.362 226.445 70.362ZM224.261 81.94V80.33H225.409V71.3H227.481V79.868C227.481 81.2493 226.772 81.94 225.353 81.94H224.261ZM232.128 79.182C231.418 79.182 230.807 79.0653 230.294 78.832C229.78 78.5987 229.318 78.2487 228.908 77.782L230.154 76.55C230.742 77.2313 231.428 77.572 232.212 77.572C233.005 77.572 233.402 77.306 233.402 76.774C233.402 76.5687 233.332 76.41 233.192 76.298C233.061 76.1767 232.851 76.0973 232.562 76.06L231.75 75.962C230.891 75.85 230.247 75.6027 229.818 75.22C229.388 74.8373 229.174 74.3007 229.174 73.61C229.174 73.1153 229.295 72.6813 229.538 72.308C229.78 71.9347 230.126 71.6453 230.574 71.44C231.022 71.2253 231.54 71.118 232.128 71.118C232.874 71.118 233.472 71.216 233.92 71.412C234.377 71.608 234.811 71.9113 235.222 72.322L234.032 73.54C233.78 73.288 233.5 73.092 233.192 72.952C232.884 72.8027 232.566 72.728 232.24 72.728C231.876 72.728 231.605 72.7933 231.428 72.924C231.25 73.0453 231.162 73.218 231.162 73.442C231.162 73.666 231.227 73.8387 231.358 73.96C231.488 74.0813 231.712 74.1653 232.03 74.212L232.87 74.324C234.55 74.548 235.39 75.318 235.39 76.634C235.39 77.1287 235.254 77.5673 234.984 77.95C234.713 78.3327 234.33 78.636 233.836 78.86C233.341 79.0747 232.772 79.182 232.128 79.182Z" fill="#005D79"/>
<path d="M187.164 133H185.162V122.738H187.486L190.412 127.764L191.392 129.85H191.448V122.738H193.45V133H191.126L188.2 127.974L187.206 125.888H187.164V133ZM198.823 133.182C197.675 133.182 196.775 132.823 196.121 132.104C195.477 131.376 195.155 130.391 195.155 129.15C195.155 127.918 195.473 126.938 196.107 126.21C196.742 125.482 197.624 125.118 198.753 125.118C199.547 125.118 200.209 125.295 200.741 125.65C201.273 125.995 201.665 126.467 201.917 127.064C202.169 127.652 202.295 128.31 202.295 129.038V129.668H197.297V129.808C197.297 130.359 197.442 130.788 197.731 131.096C198.03 131.404 198.469 131.558 199.047 131.558C199.467 131.558 199.822 131.474 200.111 131.306C200.41 131.138 200.699 130.895 200.979 130.578L202.029 131.838C201.693 132.258 201.245 132.589 200.685 132.832C200.135 133.065 199.514 133.182 198.823 133.182ZM197.297 128.45H200.153V128.31C200.153 127.797 200.032 127.391 199.789 127.092C199.556 126.793 199.22 126.644 198.781 126.644C198.333 126.644 197.974 126.798 197.703 127.106C197.433 127.414 197.297 127.82 197.297 128.324V128.45ZM205.043 133H202.887L205.449 129.094L202.929 125.3H205.281L206.765 127.778H206.835L208.291 125.3H210.475L207.913 129.15L210.489 133H208.137L206.611 130.424H206.541L205.043 133ZM214.382 133C213.673 133 213.131 132.818 212.758 132.454C212.394 132.081 212.212 131.549 212.212 130.858V126.91H211.106V125.3H211.666C211.946 125.3 212.142 125.235 212.254 125.104C212.366 124.973 212.422 124.768 212.422 124.488V123.214H214.284V125.3H215.81V126.91H214.284V131.39H215.698V133H214.382ZM218.616 133.182C218.215 133.182 217.907 133.079 217.692 132.874C217.487 132.669 217.384 132.398 217.384 132.062V131.782C217.384 131.446 217.487 131.175 217.692 130.97C217.907 130.765 218.215 130.662 218.616 130.662C219.017 130.662 219.321 130.765 219.526 130.97C219.741 131.175 219.848 131.446 219.848 131.782V132.062C219.848 132.398 219.741 132.669 219.526 132.874C219.321 133.079 219.017 133.182 218.616 133.182ZM222.972 124.362C222.571 124.362 222.268 124.269 222.062 124.082C221.866 123.895 221.768 123.648 221.768 123.34V123.032C221.768 122.724 221.866 122.477 222.062 122.29C222.268 122.103 222.571 122.01 222.972 122.01C223.374 122.01 223.672 122.103 223.868 122.29C224.074 122.477 224.176 122.724 224.176 123.032V123.34C224.176 123.648 224.074 123.895 223.868 124.082C223.672 124.269 223.374 124.362 222.972 124.362ZM220.788 135.94V134.33H221.936V125.3H224.008V133.868C224.008 135.249 223.299 135.94 221.88 135.94H220.788ZM228.655 133.182C227.946 133.182 227.334 133.065 226.821 132.832C226.308 132.599 225.846 132.249 225.435 131.782L226.681 130.55C227.269 131.231 227.955 131.572 228.739 131.572C229.532 131.572 229.929 131.306 229.929 130.774C229.929 130.569 229.859 130.41 229.719 130.298C229.588 130.177 229.378 130.097 229.089 130.06L228.277 129.962C227.418 129.85 226.774 129.603 226.345 129.22C225.916 128.837 225.701 128.301 225.701 127.61C225.701 127.115 225.822 126.681 226.065 126.308C226.308 125.935 226.653 125.645 227.101 125.44C227.549 125.225 228.067 125.118 228.655 125.118C229.402 125.118 229.999 125.216 230.447 125.412C230.904 125.608 231.338 125.911 231.749 126.322L230.559 127.54C230.307 127.288 230.027 127.092 229.719 126.952C229.411 126.803 229.094 126.728 228.767 126.728C228.403 126.728 228.132 126.793 227.955 126.924C227.778 127.045 227.689 127.218 227.689 127.442C227.689 127.666 227.754 127.839 227.885 127.96C228.016 128.081 228.24 128.165 228.557 128.212L229.397 128.324C231.077 128.548 231.917 129.318 231.917 130.634C231.917 131.129 231.782 131.567 231.511 131.95C231.24 132.333 230.858 132.636 230.363 132.86C229.868 133.075 229.299 133.182 228.655 133.182Z" fill="#005D79"/>
<path d="M532.188 51V42.204H535.776C536.496 42.204 537.064 42.408 537.48 42.816C537.896 43.224 538.104 43.772 538.104 44.46C538.104 45.052 537.96 45.496 537.672 45.792C537.384 46.088 537.056 46.268 536.688 46.332V46.416C536.936 46.432 537.192 46.516 537.456 46.668C537.72 46.812 537.944 47.036 538.128 47.34C538.312 47.644 538.404 48.02 538.404 48.468C538.404 48.948 538.304 49.38 538.104 49.764C537.912 50.148 537.644 50.452 537.3 50.676C536.964 50.892 536.58 51 536.148 51H532.188ZM535.656 46.032C536.088 46.032 536.424 45.924 536.664 45.708C536.904 45.484 537.024 45.172 537.024 44.772V44.352C537.024 43.952 536.904 43.644 536.664 43.428C536.424 43.204 536.088 43.092 535.656 43.092H533.196V46.032H535.656ZM535.836 50.112C536.308 50.112 536.672 49.992 536.928 49.752C537.192 49.504 537.324 49.16 537.324 48.72V48.276C537.324 47.836 537.192 47.496 536.928 47.256C536.672 47.016 536.308 46.896 535.836 46.896H533.196V50.112H535.836ZM541.939 51.156C541.259 51.156 540.727 50.98 540.343 50.628C539.967 50.276 539.779 49.796 539.779 49.188C539.779 48.572 540.007 48.104 540.463 47.784C540.919 47.456 541.607 47.292 542.527 47.292H543.835V46.644C543.835 46.164 543.703 45.8 543.439 45.552C543.183 45.304 542.795 45.18 542.275 45.18C541.547 45.18 540.987 45.508 540.595 46.164L540.019 45.624C540.211 45.248 540.503 44.944 540.895 44.712C541.295 44.472 541.771 44.352 542.323 44.352C543.099 44.352 543.703 44.544 544.135 44.928C544.575 45.312 544.795 45.848 544.795 46.536V50.16H545.539V51H545.023C544.359 51 543.983 50.648 543.895 49.944H543.835C543.699 50.336 543.463 50.636 543.127 50.844C542.799 51.052 542.403 51.156 541.939 51.156ZM542.107 50.34C542.603 50.34 543.015 50.224 543.343 49.992C543.671 49.752 543.835 49.456 543.835 49.104V48.012H542.479C541.911 48.012 541.487 48.1 541.207 48.276C540.927 48.444 540.787 48.692 540.787 49.02V49.284C540.787 49.62 540.903 49.88 541.135 50.064C541.375 50.248 541.699 50.34 542.107 50.34ZM549.422 51.156C548.518 51.156 547.81 50.852 547.298 50.244C546.786 49.628 546.53 48.796 546.53 47.748C546.53 46.7 546.786 45.876 547.298 45.276C547.81 44.668 548.518 44.364 549.422 44.364C550.03 44.364 550.534 44.5 550.934 44.772C551.334 45.036 551.634 45.4 551.834 45.864L551.03 46.272C550.902 45.936 550.698 45.676 550.418 45.492C550.146 45.308 549.814 45.216 549.422 45.216C548.822 45.216 548.362 45.4 548.042 45.768C547.722 46.128 547.562 46.612 547.562 47.22V48.288C547.562 48.904 547.722 49.396 548.042 49.764C548.362 50.124 548.822 50.304 549.422 50.304C550.23 50.304 550.822 49.924 551.198 49.164L551.894 49.62C551.678 50.1 551.358 50.476 550.934 50.748C550.518 51.02 550.014 51.156 549.422 51.156ZM554.31 51H553.338V41.676H554.31V47.628H554.358L555.342 46.524L557.25 44.508H558.414L555.978 47.076L558.654 51H557.49L555.282 47.676L554.31 48.684V51ZM562.468 47.688H559.192V46.656H562.468V47.688ZM566.977 51.156C566.401 51.156 565.893 51.016 565.453 50.736C565.013 50.456 564.673 50.06 564.433 49.548C564.193 49.036 564.073 48.436 564.073 47.748C564.073 47.068 564.193 46.472 564.433 45.96C564.673 45.448 565.009 45.056 565.441 44.784C565.881 44.504 566.389 44.364 566.965 44.364C567.533 44.364 568.025 44.5 568.441 44.772C568.865 45.036 569.189 45.408 569.413 45.888C569.637 46.368 569.749 46.916 569.749 47.532V47.976H565.081V48.288C565.081 48.888 565.253 49.376 565.597 49.752C565.949 50.128 566.425 50.316 567.025 50.316C567.441 50.316 567.805 50.216 568.117 50.016C568.437 49.816 568.681 49.532 568.849 49.164L569.533 49.656C569.325 50.112 568.997 50.476 568.549 50.748C568.101 51.02 567.577 51.156 566.977 51.156ZM565.081 47.256H568.717V47.136C568.717 46.544 568.553 46.068 568.225 45.708C567.905 45.348 567.485 45.168 566.965 45.168C566.413 45.168 565.961 45.356 565.609 45.732C565.257 46.108 565.081 46.592 565.081 47.184V47.256ZM571.455 51V44.508H572.415V45.552H572.463C572.807 44.76 573.423 44.364 574.311 44.364C574.983 44.364 575.511 44.58 575.895 45.012C576.287 45.444 576.483 46.048 576.483 46.824V51H575.523V47.016C575.523 46.424 575.395 45.98 575.139 45.684C574.891 45.38 574.523 45.228 574.035 45.228C573.587 45.228 573.203 45.34 572.883 45.564C572.571 45.78 572.415 46.092 572.415 46.5V51H571.455ZM580.776 51.156C580.248 51.156 579.784 51.02 579.384 50.748C578.992 50.468 578.688 50.072 578.472 49.56C578.256 49.04 578.148 48.436 578.148 47.748C578.148 47.06 578.256 46.46 578.472 45.948C578.688 45.436 578.992 45.044 579.384 44.772C579.784 44.492 580.248 44.352 580.776 44.352C581.72 44.352 582.36 44.752 582.696 45.552H582.744V41.676H583.704V51H582.744V49.956H582.696C582.504 50.356 582.248 50.656 581.928 50.856C581.616 51.056 581.232 51.156 580.776 51.156ZM581.04 50.292C581.528 50.292 581.932 50.172 582.252 49.932C582.58 49.684 582.744 49.352 582.744 48.936V46.5C582.744 46.124 582.576 45.816 582.24 45.576C581.912 45.336 581.512 45.216 581.04 45.216C580.472 45.216 580.02 45.4 579.684 45.768C579.348 46.128 579.18 46.608 579.18 47.208V48.288C579.18 48.896 579.348 49.384 579.684 49.752C580.02 50.112 580.472 50.292 581.04 50.292Z" fill="#808080"/>
<path d="M491.037 88.2226C459.232 65.8522 417.537 51.1197 388.5 58.7616C332.5 73.4998 250.5 94.4996 259 158.502C259 215.177 340 234 388.5 234C457.5 234 524.417 204.502 536 158.502C539.747 143.621 531.494 126.39 516.718 110.383C530.408 98.9487 534.385 87.478 534.893 65.1962C524.616 84.3245 513.994 89.69 491.037 88.2226Z" fill="#FFA4F7" fill-opacity="0.39"/>
<path d="M332.141 116H330.013V105.738H334.801C335.426 105.738 335.972 105.873 336.439 106.144C336.905 106.415 337.26 106.797 337.503 107.292C337.755 107.777 337.881 108.337 337.881 108.972C337.881 109.616 337.755 110.181 337.503 110.666C337.26 111.151 336.905 111.529 336.439 111.8C335.972 112.071 335.426 112.206 334.801 112.206H332.141V116ZM332.141 107.586V110.358H334.563C334.908 110.358 335.179 110.269 335.375 110.092C335.58 109.905 335.683 109.639 335.683 109.294V108.65C335.683 108.305 335.58 108.043 335.375 107.866C335.179 107.679 334.908 107.586 334.563 107.586H332.141ZM347.899 116H345.771V111.744H341.739V116H339.611V105.738H341.739V109.868H345.771V105.738H347.899V116ZM352.307 116H350.179V105.738H354.967C355.592 105.738 356.138 105.873 356.605 106.144C357.071 106.415 357.426 106.797 357.669 107.292C357.921 107.777 358.047 108.337 358.047 108.972C358.047 109.616 357.921 110.181 357.669 110.666C357.426 111.151 357.071 111.529 356.605 111.8C356.138 112.071 355.592 112.206 354.967 112.206H352.307V116ZM352.307 107.586V110.358H354.729C355.074 110.358 355.345 110.269 355.541 110.092C355.746 109.905 355.849 109.639 355.849 109.294V108.65C355.849 108.305 355.746 108.043 355.541 107.866C355.345 107.679 355.074 107.586 354.729 107.586H352.307Z" fill="#D11CC2"/>
<path d="M336.103 141.11V143H330.055V132.738H332.183V141.11H336.103ZM339.612 143.182C338.846 143.182 338.249 142.977 337.82 142.566C337.4 142.155 337.19 141.609 337.19 140.928C337.19 140.135 337.474 139.537 338.044 139.136C338.622 138.735 339.444 138.534 340.508 138.534H341.754V138.016C341.754 137.167 341.31 136.742 340.424 136.742C340.022 136.742 339.686 136.826 339.416 136.994C339.154 137.162 338.926 137.391 338.73 137.68L337.498 136.588C337.815 136.112 338.216 135.748 338.702 135.496C339.187 135.244 339.808 135.118 340.564 135.118C341.628 135.118 342.435 135.361 342.986 135.846C343.546 136.322 343.826 137.013 343.826 137.918V141.39H344.554V143H343.406C343.014 143 342.687 142.879 342.426 142.636C342.174 142.393 342.02 142.067 341.964 141.656H341.88C341.758 142.151 341.497 142.529 341.096 142.79C340.694 143.051 340.2 143.182 339.612 143.182ZM340.354 141.74C340.764 141.74 341.1 141.651 341.362 141.474C341.623 141.287 341.754 141.021 341.754 140.676V139.71H340.648C340.2 139.71 339.859 139.789 339.626 139.948C339.392 140.107 339.276 140.335 339.276 140.634V140.858C339.276 141.446 339.635 141.74 340.354 141.74ZM346.02 143V135.3H348.092V136.938H348.162C348.265 136.471 348.48 136.084 348.806 135.776C349.142 135.459 349.59 135.3 350.15 135.3H350.542V137.232H349.982C349.338 137.232 348.862 137.325 348.554 137.512C348.246 137.689 348.092 137.993 348.092 138.422V143H346.02ZM353.584 143.182C352.819 143.182 352.222 142.977 351.792 142.566C351.372 142.155 351.162 141.609 351.162 140.928C351.162 140.135 351.447 139.537 352.016 139.136C352.595 138.735 353.416 138.534 354.48 138.534H355.726V138.016C355.726 137.167 355.283 136.742 354.396 136.742C353.995 136.742 353.659 136.826 353.388 136.994C353.127 137.162 352.898 137.391 352.702 137.68L351.47 136.588C351.788 136.112 352.189 135.748 352.674 135.496C353.16 135.244 353.78 135.118 354.536 135.118C355.6 135.118 356.408 135.361 356.958 135.846C357.518 136.322 357.798 137.013 357.798 137.918V141.39H358.526V143H357.378C356.986 143 356.66 142.879 356.398 142.636C356.146 142.393 355.992 142.067 355.936 141.656H355.852C355.731 142.151 355.47 142.529 355.068 142.79C354.667 143.051 354.172 143.182 353.584 143.182ZM354.326 141.74C354.737 141.74 355.073 141.651 355.334 141.474C355.596 141.287 355.726 141.021 355.726 140.676V139.71H354.62C354.172 139.71 353.832 139.789 353.598 139.948C353.365 140.107 353.248 140.335 353.248 140.634V140.858C353.248 141.446 353.608 141.74 354.326 141.74ZM363.958 143H361.494L358.96 135.3H361.004L361.998 138.492L362.712 141.264H362.838L363.566 138.492L364.532 135.3H366.492L363.958 143ZM370.732 143.182C369.584 143.182 368.683 142.823 368.03 142.104C367.386 141.376 367.064 140.391 367.064 139.15C367.064 137.918 367.381 136.938 368.016 136.21C368.65 135.482 369.532 135.118 370.662 135.118C371.455 135.118 372.118 135.295 372.65 135.65C373.182 135.995 373.574 136.467 373.826 137.064C374.078 137.652 374.204 138.31 374.204 139.038V139.668H369.206V139.808C369.206 140.359 369.35 140.788 369.64 141.096C369.938 141.404 370.377 141.558 370.956 141.558C371.376 141.558 371.73 141.474 372.02 141.306C372.318 141.138 372.608 140.895 372.888 140.578L373.938 141.838C373.602 142.258 373.154 142.589 372.594 142.832C372.043 143.065 371.422 143.182 370.732 143.182ZM369.206 138.45H372.062V138.31C372.062 137.797 371.94 137.391 371.698 137.092C371.464 136.793 371.128 136.644 370.69 136.644C370.242 136.644 369.882 136.798 369.612 137.106C369.341 137.414 369.206 137.82 369.206 138.324V138.45ZM377.842 143C377.151 143 376.633 142.827 376.288 142.482C375.952 142.137 375.784 141.637 375.784 140.984V132.122H377.856V141.39H378.836V143H377.842Z" fill="#D11CC2"/>
<path d="M331.343 197H329.187L332.589 186.738H335.221L338.595 197H336.383L335.613 194.494H332.099L331.343 197ZM333.807 188.67L332.603 192.688H335.095L333.877 188.67H333.807ZM343.684 197H341.248L338.91 186.738H341.01L342.004 191.666L342.578 194.634H342.62L343.306 191.666L344.454 186.738H346.778L347.94 191.666L348.612 194.634H348.654L349.242 191.666L350.236 186.738H352.252L349.844 197H347.422L346.134 191.498L345.588 189.076H345.546L344.972 191.498L343.684 197ZM357.078 197.182C355.51 197.182 354.222 196.622 353.214 195.502L354.628 194.102C355.319 194.905 356.182 195.306 357.218 195.306C357.769 195.306 358.189 195.189 358.478 194.956C358.768 194.723 358.912 194.401 358.912 193.99C358.912 193.663 358.814 193.402 358.618 193.206C358.432 193.01 358.105 192.879 357.638 192.814L356.644 192.674C354.563 192.385 353.522 191.372 353.522 189.636C353.522 189.029 353.676 188.493 353.984 188.026C354.292 187.559 354.731 187.2 355.3 186.948C355.879 186.687 356.556 186.556 357.33 186.556C358.824 186.556 360 187.046 360.858 188.026L359.444 189.426C359.174 189.109 358.856 188.866 358.492 188.698C358.138 188.521 357.708 188.432 357.204 188.432C356.691 188.432 356.304 188.525 356.042 188.712C355.781 188.899 355.65 189.165 355.65 189.51C355.65 189.865 355.748 190.131 355.944 190.308C356.15 190.476 356.486 190.597 356.952 190.672L357.946 190.84C359.001 191.027 359.78 191.363 360.284 191.848C360.788 192.333 361.04 193.005 361.04 193.864C361.04 194.517 360.882 195.096 360.564 195.6C360.256 196.095 359.804 196.482 359.206 196.762C358.609 197.042 357.9 197.182 357.078 197.182Z" fill="#D11CC2"/>
<path d="M418.164 143H416.162V132.738H418.416L421.006 137.638H421.048L423.596 132.738H425.864V143H423.862V136.042H423.82L423.064 137.568L421.006 141.306L418.99 137.582L418.206 135.958H418.164V143ZM428.151 145.94V144.33H429.579L429.873 143.378L427.143 135.3H429.201L430.419 139.08L430.937 141.208H431.021L431.595 139.08L432.785 135.3H434.717L431.707 144.26C431.502 144.848 431.227 145.273 430.881 145.534C430.536 145.805 430.046 145.94 429.411 145.94H428.151ZM439.248 143.182C437.68 143.182 436.392 142.622 435.384 141.502L436.798 140.102C437.489 140.905 438.352 141.306 439.388 141.306C439.939 141.306 440.359 141.189 440.648 140.956C440.938 140.723 441.082 140.401 441.082 139.99C441.082 139.663 440.984 139.402 440.788 139.206C440.602 139.01 440.275 138.879 439.808 138.814L438.814 138.674C436.733 138.385 435.692 137.372 435.692 135.636C435.692 135.029 435.846 134.493 436.154 134.026C436.462 133.559 436.901 133.2 437.47 132.948C438.049 132.687 438.726 132.556 439.5 132.556C440.994 132.556 442.17 133.046 443.028 134.026L441.614 135.426C441.344 135.109 441.026 134.866 440.662 134.698C440.308 134.521 439.878 134.432 439.374 134.432C438.861 134.432 438.474 134.525 438.212 134.712C437.951 134.899 437.82 135.165 437.82 135.51C437.82 135.865 437.918 136.131 438.114 136.308C438.32 136.476 438.656 136.597 439.122 136.672L440.116 136.84C441.171 137.027 441.95 137.363 442.454 137.848C442.958 138.333 443.21 139.005 443.21 139.864C443.21 140.517 443.052 141.096 442.734 141.6C442.426 142.095 441.974 142.482 441.376 142.762C440.779 143.042 440.07 143.182 439.248 143.182ZM450.44 145.674C449.002 145.674 448.284 144.988 448.284 143.616V143.112C447.154 142.916 446.272 142.37 445.638 141.474C445.003 140.578 444.686 139.379 444.686 137.876C444.686 136.737 444.868 135.771 445.232 134.978C445.605 134.175 446.128 133.573 446.8 133.172C447.472 132.761 448.265 132.556 449.18 132.556C450.085 132.556 450.874 132.761 451.546 133.172C452.218 133.573 452.736 134.175 453.1 134.978C453.473 135.771 453.66 136.737 453.66 137.876C453.66 139.341 453.361 140.517 452.764 141.404C452.166 142.291 451.336 142.846 450.272 143.07V143.938H451.854V145.674H450.44ZM449.18 141.292C449.861 141.292 450.402 141.059 450.804 140.592C451.205 140.125 451.406 139.477 451.406 138.646V137.092C451.406 136.261 451.205 135.613 450.804 135.146C450.402 134.679 449.861 134.446 449.18 134.446C448.48 134.446 447.929 134.679 447.528 135.146C447.136 135.613 446.94 136.261 446.94 137.092V138.646C446.94 139.477 447.136 140.125 447.528 140.592C447.929 141.059 448.48 141.292 449.18 141.292ZM461.626 141.11V143H455.578V132.738H457.706V141.11H461.626Z" fill="#D11CC2"/>
<path d="M336.943 168.11V170H330.055V159.738H336.943V161.628H332.183V163.868H336.299V165.744H332.183V168.11H336.943ZM340.188 170H338.032L340.594 166.094L338.074 162.3H340.426L341.91 164.778H341.98L343.436 162.3H345.62L343.058 166.15L345.634 170H343.282L341.756 167.424H341.686L340.188 170ZM346.936 172.94V162.3H349.008V163.588H349.078C349.209 163.149 349.461 162.795 349.834 162.524C350.217 162.253 350.66 162.118 351.164 162.118C352.135 162.118 352.872 162.463 353.376 163.154C353.89 163.845 354.146 164.843 354.146 166.15C354.146 167.447 353.89 168.446 353.376 169.146C352.872 169.837 352.135 170.182 351.164 170.182C350.67 170.182 350.226 170.047 349.834 169.776C349.452 169.496 349.195 169.141 349.064 168.712H349.008V172.94H346.936ZM350.478 168.502C350.926 168.502 351.29 168.348 351.57 168.04C351.85 167.723 351.99 167.312 351.99 166.808V165.492C351.99 164.988 351.85 164.582 351.57 164.274C351.29 163.957 350.926 163.798 350.478 163.798C350.049 163.798 349.694 163.905 349.414 164.12C349.144 164.335 349.008 164.619 349.008 164.974V167.312C349.008 167.676 349.144 167.965 349.414 168.18C349.685 168.395 350.04 168.502 350.478 168.502ZM355.823 170V162.3H357.895V163.938H357.965C358.068 163.471 358.282 163.084 358.609 162.776C358.945 162.459 359.393 162.3 359.953 162.3H360.345V164.232H359.785C359.141 164.232 358.665 164.325 358.357 164.512C358.049 164.689 357.895 164.993 357.895 165.422V170H355.823ZM364.798 170.182C363.65 170.182 362.749 169.823 362.096 169.104C361.452 168.376 361.13 167.391 361.13 166.15C361.13 164.918 361.447 163.938 362.082 163.21C362.717 162.482 363.599 162.118 364.728 162.118C365.521 162.118 366.184 162.295 366.716 162.65C367.248 162.995 367.64 163.467 367.892 164.064C368.144 164.652 368.27 165.31 368.27 166.038V166.668H363.272V166.808C363.272 167.359 363.417 167.788 363.706 168.096C364.005 168.404 364.443 168.558 365.022 168.558C365.442 168.558 365.797 168.474 366.086 168.306C366.385 168.138 366.674 167.895 366.954 167.578L368.004 168.838C367.668 169.258 367.22 169.589 366.66 169.832C366.109 170.065 365.489 170.182 364.798 170.182ZM363.272 165.45H366.128V165.31C366.128 164.797 366.007 164.391 365.764 164.092C365.531 163.793 365.195 163.644 364.756 163.644C364.308 163.644 363.949 163.798 363.678 164.106C363.407 164.414 363.272 164.82 363.272 165.324V165.45ZM372.426 170.182C371.717 170.182 371.106 170.065 370.592 169.832C370.079 169.599 369.617 169.249 369.206 168.782L370.452 167.55C371.04 168.231 371.726 168.572 372.51 168.572C373.304 168.572 373.7 168.306 373.7 167.774C373.7 167.569 373.63 167.41 373.49 167.298C373.36 167.177 373.15 167.097 372.86 167.06L372.048 166.962C371.19 166.85 370.546 166.603 370.116 166.22C369.687 165.837 369.472 165.301 369.472 164.61C369.472 164.115 369.594 163.681 369.836 163.308C370.079 162.935 370.424 162.645 370.872 162.44C371.32 162.225 371.838 162.118 372.426 162.118C373.173 162.118 373.77 162.216 374.218 162.412C374.676 162.608 375.11 162.911 375.52 163.322L374.33 164.54C374.078 164.288 373.798 164.092 373.49 163.952C373.182 163.803 372.865 163.728 372.538 163.728C372.174 163.728 371.904 163.793 371.726 163.924C371.549 164.045 371.46 164.218 371.46 164.442C371.46 164.666 371.526 164.839 371.656 164.96C371.787 165.081 372.011 165.165 372.328 165.212L373.168 165.324C374.848 165.548 375.688 166.318 375.688 167.634C375.688 168.129 375.553 168.567 375.282 168.95C375.012 169.333 374.629 169.636 374.134 169.86C373.64 170.075 373.07 170.182 372.426 170.182ZM379.714 170.182C379.004 170.182 378.393 170.065 377.88 169.832C377.366 169.599 376.904 169.249 376.494 168.782L377.74 167.55C378.328 168.231 379.014 168.572 379.798 168.572C380.591 168.572 380.988 168.306 380.988 167.774C380.988 167.569 380.918 167.41 380.778 167.298C380.647 167.177 380.437 167.097 380.148 167.06L379.336 166.962C378.477 166.85 377.833 166.603 377.404 166.22C376.974 165.837 376.76 165.301 376.76 164.61C376.76 164.115 376.881 163.681 377.124 163.308C377.366 162.935 377.712 162.645 378.16 162.44C378.608 162.225 379.126 162.118 379.714 162.118C380.46 162.118 381.058 162.216 381.506 162.412C381.963 162.608 382.397 162.911 382.808 163.322L381.618 164.54C381.366 164.288 381.086 164.092 380.778 163.952C380.47 163.803 380.152 163.728 379.826 163.728C379.462 163.728 379.191 163.793 379.014 163.924C378.836 164.045 378.748 164.218 378.748 164.442C378.748 164.666 378.813 164.839 378.944 164.96C379.074 165.081 379.298 165.165 379.616 165.212L380.456 165.324C382.136 165.548 382.976 166.318 382.976 167.634C382.976 168.129 382.84 168.567 382.57 168.95C382.299 169.333 381.916 169.636 381.422 169.86C380.927 170.075 380.358 170.182 379.714 170.182Z" fill="#D11CC2"/>
<path d="M418.29 111.744V116H416.162V105.738H422.882V107.628H418.29V109.868H422.238V111.744H418.29ZM425.631 107.362C425.229 107.362 424.926 107.269 424.721 107.082C424.525 106.895 424.427 106.648 424.427 106.34V106.032C424.427 105.724 424.525 105.477 424.721 105.29C424.926 105.103 425.229 105.01 425.631 105.01C426.032 105.01 426.331 105.103 426.527 105.29C426.732 105.477 426.835 105.724 426.835 106.032V106.34C426.835 106.648 426.732 106.895 426.527 107.082C426.331 107.269 426.032 107.362 425.631 107.362ZM426.667 116H424.595V108.3H426.667V116ZM428.737 116V108.3H430.809V109.938H430.879C430.982 109.471 431.197 109.084 431.523 108.776C431.859 108.459 432.307 108.3 432.867 108.3H433.259V110.232H432.699C432.055 110.232 431.579 110.325 431.271 110.512C430.963 110.689 430.809 110.993 430.809 111.422V116H428.737ZM437.712 116.182C436.564 116.182 435.663 115.823 435.01 115.104C434.366 114.376 434.044 113.391 434.044 112.15C434.044 110.918 434.361 109.938 434.996 109.21C435.631 108.482 436.513 108.118 437.642 108.118C438.435 108.118 439.098 108.295 439.63 108.65C440.162 108.995 440.554 109.467 440.806 110.064C441.058 110.652 441.184 111.31 441.184 112.038V112.668H436.186V112.808C436.186 113.359 436.331 113.788 436.62 114.096C436.919 114.404 437.357 114.558 437.936 114.558C438.356 114.558 438.711 114.474 439 114.306C439.299 114.138 439.588 113.895 439.868 113.578L440.918 114.838C440.582 115.258 440.134 115.589 439.574 115.832C439.023 116.065 438.403 116.182 437.712 116.182ZM436.186 111.45H439.042V111.31C439.042 110.797 438.921 110.391 438.678 110.092C438.445 109.793 438.109 109.644 437.67 109.644C437.222 109.644 436.863 109.798 436.592 110.106C436.321 110.414 436.186 110.82 436.186 111.324V111.45ZM446.993 116.182C446.498 116.182 446.055 116.047 445.663 115.776C445.28 115.496 445.023 115.141 444.893 114.712H444.837V116H442.765V105.122H444.837V109.588H444.907C445.037 109.149 445.289 108.795 445.663 108.524C446.045 108.253 446.489 108.118 446.993 108.118C447.963 108.118 448.701 108.463 449.205 109.154C449.718 109.845 449.975 110.843 449.975 112.15C449.975 113.447 449.718 114.446 449.205 115.146C448.701 115.837 447.963 116.182 446.993 116.182ZM446.307 114.502C446.755 114.502 447.119 114.348 447.399 114.04C447.679 113.723 447.819 113.312 447.819 112.808V111.492C447.819 110.988 447.679 110.582 447.399 110.274C447.119 109.957 446.755 109.798 446.307 109.798C445.877 109.798 445.523 109.905 445.243 110.12C444.972 110.335 444.837 110.619 444.837 110.974V113.312C444.837 113.676 444.972 113.965 445.243 114.18C445.513 114.395 445.868 114.502 446.307 114.502ZM453.541 116.182C452.776 116.182 452.179 115.977 451.749 115.566C451.329 115.155 451.119 114.609 451.119 113.928C451.119 113.135 451.404 112.537 451.973 112.136C452.552 111.735 453.373 111.534 454.437 111.534H455.683V111.016C455.683 110.167 455.24 109.742 454.353 109.742C453.952 109.742 453.616 109.826 453.345 109.994C453.084 110.162 452.855 110.391 452.659 110.68L451.427 109.588C451.745 109.112 452.146 108.748 452.631 108.496C453.117 108.244 453.737 108.118 454.493 108.118C455.557 108.118 456.365 108.361 456.915 108.846C457.475 109.322 457.755 110.013 457.755 110.918V114.39H458.483V116H457.335C456.943 116 456.617 115.879 456.355 115.636C456.103 115.393 455.949 115.067 455.893 114.656H455.809C455.688 115.151 455.427 115.529 455.025 115.79C454.624 116.051 454.129 116.182 453.541 116.182ZM454.283 114.74C454.694 114.74 455.03 114.651 455.291 114.474C455.553 114.287 455.683 114.021 455.683 113.676V112.71H454.577C454.129 112.71 453.789 112.789 453.555 112.948C453.322 113.107 453.205 113.335 453.205 113.634V113.858C453.205 114.446 453.565 114.74 454.283 114.74ZM462.526 116.182C461.817 116.182 461.205 116.065 460.692 115.832C460.179 115.599 459.717 115.249 459.306 114.782L460.552 113.55C461.14 114.231 461.826 114.572 462.61 114.572C463.403 114.572 463.8 114.306 463.8 113.774C463.8 113.569 463.73 113.41 463.59 113.298C463.459 113.177 463.249 113.097 462.96 113.06L462.148 112.962C461.289 112.85 460.645 112.603 460.216 112.22C459.787 111.837 459.572 111.301 459.572 110.61C459.572 110.115 459.693 109.681 459.936 109.308C460.179 108.935 460.524 108.645 460.972 108.44C461.42 108.225 461.938 108.118 462.526 108.118C463.273 108.118 463.87 108.216 464.318 108.412C464.775 108.608 465.209 108.911 465.62 109.322L464.43 110.54C464.178 110.288 463.898 110.092 463.59 109.952C463.282 109.803 462.965 109.728 462.638 109.728C462.274 109.728 462.003 109.793 461.826 109.924C461.649 110.045 461.56 110.218 461.56 110.442C461.56 110.666 461.625 110.839 461.756 110.96C461.887 111.081 462.111 111.165 462.428 111.212L463.268 111.324C464.948 111.548 465.788 112.318 465.788 113.634C465.788 114.129 465.653 114.567 465.382 114.95C465.111 115.333 464.729 115.636 464.234 115.86C463.739 116.075 463.17 116.182 462.526 116.182ZM470.511 116.182C469.363 116.182 468.462 115.823 467.809 115.104C467.165 114.376 466.843 113.391 466.843 112.15C466.843 110.918 467.16 109.938 467.795 109.21C468.43 108.482 469.312 108.118 470.441 108.118C471.234 108.118 471.897 108.295 472.429 108.65C472.961 108.995 473.353 109.467 473.605 110.064C473.857 110.652 473.983 111.31 473.983 112.038V112.668H468.985V112.808C468.985 113.359 469.13 113.788 469.419 114.096C469.718 114.404 470.156 114.558 470.735 114.558C471.155 114.558 471.51 114.474 471.799 114.306C472.098 114.138 472.387 113.895 472.667 113.578L473.717 114.838C473.381 115.258 472.933 115.589 472.373 115.832C471.822 116.065 471.202 116.182 470.511 116.182ZM468.985 111.45H471.841V111.31C471.841 110.797 471.72 110.391 471.477 110.092C471.244 109.793 470.908 109.644 470.469 109.644C470.021 109.644 469.662 109.798 469.391 110.106C469.12 110.414 468.985 110.82 468.985 111.324V111.45Z" fill="#D11CC2"/>
<path d="M418.248 170H416.12V159.738H420.908C421.533 159.738 422.079 159.873 422.546 160.144C423.013 160.415 423.367 160.797 423.61 161.292C423.862 161.777 423.988 162.337 423.988 162.972C423.988 163.616 423.862 164.181 423.61 164.666C423.367 165.151 423.013 165.529 422.546 165.8C422.079 166.071 421.533 166.206 420.908 166.206H418.248V170ZM418.248 161.586V164.358H420.67C421.015 164.358 421.286 164.269 421.482 164.092C421.687 163.905 421.79 163.639 421.79 163.294V162.65C421.79 162.305 421.687 162.043 421.482 161.866C421.286 161.679 421.015 161.586 420.67 161.586H418.248ZM428.427 170.182C427.69 170.182 427.051 170.019 426.509 169.692C425.968 169.365 425.553 168.899 425.263 168.292C424.974 167.685 424.829 166.971 424.829 166.15C424.829 165.329 424.974 164.615 425.263 164.008C425.553 163.401 425.968 162.935 426.509 162.608C427.051 162.281 427.69 162.118 428.427 162.118C429.165 162.118 429.804 162.281 430.345 162.608C430.887 162.935 431.302 163.401 431.591 164.008C431.881 164.615 432.025 165.329 432.025 166.15C432.025 166.971 431.881 167.685 431.591 168.292C431.302 168.899 430.887 169.365 430.345 169.692C429.804 170.019 429.165 170.182 428.427 170.182ZM428.427 168.544C428.885 168.544 429.239 168.404 429.491 168.124C429.743 167.835 429.869 167.429 429.869 166.906V165.394C429.869 164.871 429.743 164.47 429.491 164.19C429.239 163.901 428.885 163.756 428.427 163.756C427.97 163.756 427.615 163.901 427.363 164.19C427.111 164.47 426.985 164.871 426.985 165.394V166.906C426.985 167.429 427.111 167.835 427.363 168.124C427.615 168.404 427.97 168.544 428.427 168.544ZM436.18 170.182C435.471 170.182 434.86 170.065 434.346 169.832C433.833 169.599 433.371 169.249 432.96 168.782L434.206 167.55C434.794 168.231 435.48 168.572 436.264 168.572C437.058 168.572 437.454 168.306 437.454 167.774C437.454 167.569 437.384 167.41 437.244 167.298C437.114 167.177 436.904 167.097 436.614 167.06L435.802 166.962C434.944 166.85 434.3 166.603 433.87 166.22C433.441 165.837 433.226 165.301 433.226 164.61C433.226 164.115 433.348 163.681 433.59 163.308C433.833 162.935 434.178 162.645 434.626 162.44C435.074 162.225 435.592 162.118 436.18 162.118C436.927 162.118 437.524 162.216 437.972 162.412C438.43 162.608 438.864 162.911 439.274 163.322L438.084 164.54C437.832 164.288 437.552 164.092 437.244 163.952C436.936 163.803 436.619 163.728 436.292 163.728C435.928 163.728 435.658 163.793 435.48 163.924C435.303 164.045 435.214 164.218 435.214 164.442C435.214 164.666 435.28 164.839 435.41 164.96C435.541 165.081 435.765 165.165 436.082 165.212L436.922 165.324C438.602 165.548 439.442 166.318 439.442 167.634C439.442 168.129 439.307 168.567 439.036 168.95C438.766 169.333 438.383 169.636 437.888 169.86C437.394 170.075 436.824 170.182 436.18 170.182ZM443.468 170C442.758 170 442.217 169.818 441.844 169.454C441.48 169.081 441.298 168.549 441.298 167.858V163.91H440.192V162.3H440.752C441.032 162.3 441.228 162.235 441.34 162.104C441.452 161.973 441.508 161.768 441.508 161.488V160.214H443.37V162.3H444.896V163.91H443.37V168.39H444.784V170H443.468ZM449.396 173.122C448.117 173.122 447.193 172.968 446.624 172.66C446.055 172.352 445.77 171.904 445.77 171.316C445.77 170.905 445.891 170.574 446.134 170.322C446.386 170.07 446.736 169.907 447.184 169.832V169.678C446.839 169.613 446.573 169.463 446.386 169.23C446.199 168.987 446.106 168.698 446.106 168.362C446.106 167.989 446.241 167.69 446.512 167.466C446.783 167.242 447.123 167.088 447.534 167.004V166.934C447.077 166.729 446.731 166.439 446.498 166.066C446.265 165.683 446.148 165.235 446.148 164.722C446.148 163.919 446.428 163.285 446.988 162.818C447.548 162.351 448.355 162.118 449.41 162.118C449.914 162.118 450.353 162.174 450.726 162.286V162.02C450.726 161.255 451.104 160.872 451.86 160.872H453.064V162.412H451.384V162.538C451.804 162.762 452.121 163.061 452.336 163.434C452.551 163.807 452.658 164.237 452.658 164.722C452.658 165.515 452.378 166.145 451.818 166.612C451.267 167.069 450.465 167.298 449.41 167.298C448.971 167.298 448.537 167.242 448.108 167.13C447.837 167.289 447.702 167.503 447.702 167.774C447.702 168.166 448.019 168.362 448.654 168.362H450.824C452.616 168.362 453.512 169.104 453.512 170.588C453.512 171.437 453.195 172.072 452.56 172.492C451.925 172.912 450.871 173.122 449.396 173.122ZM449.41 165.94C449.839 165.94 450.166 165.847 450.39 165.66C450.614 165.464 450.726 165.179 450.726 164.806V164.61C450.726 164.246 450.614 163.971 450.39 163.784C450.166 163.588 449.839 163.49 449.41 163.49C448.981 163.49 448.649 163.588 448.416 163.784C448.192 163.971 448.08 164.246 448.08 164.61V164.806C448.08 165.179 448.192 165.464 448.416 165.66C448.64 165.847 448.971 165.94 449.41 165.94ZM449.9 171.75C450.479 171.75 450.899 171.68 451.16 171.54C451.431 171.4 451.566 171.176 451.566 170.868C451.566 170.616 451.468 170.429 451.272 170.308C451.085 170.187 450.773 170.126 450.334 170.126H447.702C447.59 170.21 447.506 170.317 447.45 170.448C447.394 170.588 447.366 170.728 447.366 170.868C447.366 171.167 447.492 171.386 447.744 171.526C447.996 171.675 448.411 171.75 448.99 171.75H449.9ZM454.536 170V162.3H456.608V163.938H456.678C456.781 163.471 456.995 163.084 457.322 162.776C457.658 162.459 458.106 162.3 458.666 162.3H459.058V164.232H458.498C457.854 164.232 457.378 164.325 457.07 164.512C456.762 164.689 456.608 164.993 456.608 165.422V170H454.536ZM463.511 170.182C462.363 170.182 461.462 169.823 460.809 169.104C460.165 168.376 459.843 167.391 459.843 166.15C459.843 164.918 460.16 163.938 460.795 163.21C461.43 162.482 462.312 162.118 463.441 162.118C464.234 162.118 464.897 162.295 465.429 162.65C465.961 162.995 466.353 163.467 466.605 164.064C466.857 164.652 466.983 165.31 466.983 166.038V166.668H461.985V166.808C461.985 167.359 462.13 167.788 462.419 168.096C462.718 168.404 463.156 168.558 463.735 168.558C464.155 168.558 464.51 168.474 464.799 168.306C465.098 168.138 465.387 167.895 465.667 167.578L466.717 168.838C466.381 169.258 465.933 169.589 465.373 169.832C464.822 170.065 464.202 170.182 463.511 170.182ZM461.985 165.45H464.841V165.31C464.841 164.797 464.72 164.391 464.477 164.092C464.244 163.793 463.908 163.644 463.469 163.644C463.021 163.644 462.662 163.798 462.391 164.106C462.12 164.414 461.985 164.82 461.985 165.324V165.45ZM471.815 170.182C470.247 170.182 468.959 169.622 467.951 168.502L469.365 167.102C470.055 167.905 470.919 168.306 471.955 168.306C472.505 168.306 472.925 168.189 473.215 167.956C473.504 167.723 473.649 167.401 473.649 166.99C473.649 166.663 473.551 166.402 473.355 166.206C473.168 166.01 472.841 165.879 472.375 165.814L471.381 165.674C469.299 165.385 468.259 164.372 468.259 162.636C468.259 162.029 468.413 161.493 468.721 161.026C469.029 160.559 469.467 160.2 470.037 159.948C470.615 159.687 471.292 159.556 472.067 159.556C473.56 159.556 474.736 160.046 475.595 161.026L474.181 162.426C473.91 162.109 473.593 161.866 473.229 161.698C472.874 161.521 472.445 161.432 471.941 161.432C471.427 161.432 471.04 161.525 470.779 161.712C470.517 161.899 470.387 162.165 470.387 162.51C470.387 162.865 470.485 163.131 470.681 163.308C470.886 163.476 471.222 163.597 471.689 163.672L472.683 163.84C473.737 164.027 474.517 164.363 475.021 164.848C475.525 165.333 475.777 166.005 475.777 166.864C475.777 167.517 475.618 168.096 475.301 168.6C474.993 169.095 474.54 169.482 473.943 169.762C473.345 170.042 472.636 170.182 471.815 170.182ZM483.006 172.674C481.569 172.674 480.85 171.988 480.85 170.616V170.112C479.721 169.916 478.839 169.37 478.204 168.474C477.569 167.578 477.252 166.379 477.252 164.876C477.252 163.737 477.434 162.771 477.798 161.978C478.171 161.175 478.694 160.573 479.366 160.172C480.038 159.761 480.831 159.556 481.746 159.556C482.651 159.556 483.44 159.761 484.112 160.172C484.784 160.573 485.302 161.175 485.666 161.978C486.039 162.771 486.226 163.737 486.226 164.876C486.226 166.341 485.927 167.517 485.33 168.404C484.733 169.291 483.902 169.846 482.838 170.07V170.938H484.42V172.674H483.006ZM481.746 168.292C482.427 168.292 482.969 168.059 483.37 167.592C483.771 167.125 483.972 166.477 483.972 165.646V164.092C483.972 163.261 483.771 162.613 483.37 162.146C482.969 161.679 482.427 161.446 481.746 161.446C481.046 161.446 480.495 161.679 480.094 162.146C479.702 162.613 479.506 163.261 479.506 164.092V165.646C479.506 166.477 479.702 167.125 480.094 167.592C480.495 168.059 481.046 168.292 481.746 168.292ZM494.192 168.11V170H488.144V159.738H490.272V168.11H494.192Z" fill="#D11CC2"/>
</svg>
