<svg id="b" xmlns="http://www.w3.org/2000/svg" width="455.574" height="365.12" viewBox="0 0 455.574 365.12"><defs><style>.g{fill:#fcdc4a;}.g,.h,.i{stroke-width:0px;}.h{fill:#fff;}.i{fill:#211715;}</style></defs><g id="c"><g id="d"><path class="h" d="M202.681,261.724c1.464-6.149,2.81-11.901,3.9-16.708.388-1.713.681-3.774-.583-4.994-.64-.619-1.539-.886-2.408-1.08-11.915-2.666-24.505-5.293-36.635-7.741-.963-.194-2.105-.187-2.786.52-.338.351-.497.832-.646,1.296-5.509,17.173-10.814,34.412-15.912,51.712h-32.723c0,3.224,0,5.325,0,5.325v29.583c15.67,0,55.901.031,70.439.036,1.83,0,3.419-1.236,3.87-3.009,2.193-8.611,8.514-34.064,13.483-54.939Z"></path><path class="h" d="M297.781,296.398c-1.264-2.083-2.65-4.435-4.063-6.87-2.348.863-5.568,1.973-6.062,6.312-.177,1.552,1.611,2.777,1.572,4.339-.02.81-.514,1.523-.761,2.295-.52,1.626.199,3.563,1.654,4.456-.965,2.114-.992,4.637-.073,6.772s2.771,3.848,4.97,4.599c.796.272,1.627.422,2.454.571,3.945.711,7.89,1.421,11.835,2.132,1.051-4.354,3.33-9.574,5.545-13.794-.687-2.208-1.655-4.329-2.873-6.294-1.707-2.973-4.497-7.807-6.068-10.246-1.431-2.22-3.839-4.022-5.806-2.845-1.467.878-1.193,2.913-1.052,4.057.327,2.639.575,4.631,1.094,8.306-.715-1.102-1.513-2.384-2.366-3.789Z"></path><path class="h" d="M71.595,254.241c2.464,4.356,4.251,10.551,5.869,17.318,0-1.222,0-9.044,0-9.052-.033-4.135-.066-8.287-.091-12.43-.016-1.606-.025-3.229-.321-4.811l-4.5-2.371c.142-1.489.205-2.475.267-3.355.131-1.855-.836-3.623-2.481-4.491-6.987-3.684-20.785-9.207-26.229-11.092,0,0,0,3.112-.002,6.225,7.876,4.893,16.505,9.989,23.035,17.308.947,1.063,2.932,4.059,4.454,6.75"></path><path class="h" d="M83.487,176.308c-4.478,7.765-12.129,14.577-21.743,19.225-.82-.653-1.706-1.122-2.868-1.269-1.474-.185-2.844.167-3.815,1.073-1.445,1.348-1.879,3.854-1.539,5.831.735,4.274,2.98,7.193,6.537,8.974-1.428,6.091-2.165,8.682-1.76,13.806.116,1.471.82,4.001,1.987,6.42,3.602,1.549,7.065,3.13,9.675,4.484.554-1.744.968-3.025.968-3.025.938-2.896,2.196-5.271,2.234-5.397.252-.77,1.037-1.245,1.832-1.091,3.315.637,8.299-.216,11.867-1.831,1.82-.824,3.527-2.295,4.742-5.077.574-1.301.967-3.031,1.229-4.799.396-2.684.497-5.469.464-7.055.237-1.18.666-2.288,1.45-3.269,1.184-1.485,3.181-2.722,1.941-5.054-.471-.882-1.296-1.502-2.211-1.913-4.611-2.07-5.294-8.777-5.799-13.611-.137-4.805-1.048-8.824-2.518-12.197-.694,1.969-1.59,3.9-2.672,5.775Z"></path><path class="h" d="M126.046,311.036c-.448-.055-.907-.109-1.352-.043-.431.064-.818.237-1.2.4-3.847,1.644-7.756,3.056-12.163,3.271-1.605.078-4.396-1.083-5.055-2.722,0,0-1.746,0-3.574,0-.259-5.229-.828-10.441-1.707-15.601,4.895-7.65,13.381-12.615,22.32-13.565,1.449-.154,2.927-.203,4.351.103,2.064.445,3.954,1.656,5.22,3.347.36.481.678,1.132.386,1.658,3.13,2.162,5.727,5.089,7.501,8.454.234.444.461.94.355,1.431s-.711.886-1.125.6l-1.756,1.978c.293.174.6.363.925.567.479.301,1.471,1.586,1.471,3.184v2.269c.27.122.506.273.744.464.81.649,1.182,2.246.806,3.056-.5,1.076-2.042,2.173-4.292,2.125-3.688-.079-7.911-.431-11.855-.919"></path><path class="h" d="M341.267,154.03c-7.026,15.941-16.579,34.462-23.16,47.697h-3.189c-.803-8.307-6.258-48.583-6.456-58.256l-.989-1.148c-11.63,3.99-21.976,7.44-28.511,18.654-5.294,9.084-8.954,19.597-14.127,28.421-1.935-2.052-11.793-13.261-14.626-16.622-4.19,3.06-14.92,11.77-20.55,16.65,5.49,8.91,10.17,16.31,17.08,25.5,3.85,5.11,10.96,12.48,16.92,14.82,4.67,1.83,12.2,2.06,18.89-1l.027-.012c.308,8.226.581,16.452.828,24.678h89.705s2.596,0,5.599,0c5.239-19.423,8.106-39.478,8.553-59.588.208-9.372-.129-20.281-4.621-28.509-7.158-13.112-22.992-17.714-36.396-23.341-1.41,3.735-3.105,7.804-4.979,12.055Z"></path><path class="h" d="M312.407,180.833c-1.775-14.411-3.825-31.502-3.944-37.361,1.01-1.305,1.842-2.372,2.789-3.466.712-.823,1.49-1.661,2.455-2.625.297-.296,1.208-.451,1.555-.056,1.654,1.88,3.54,3.723,6.077,5.977,5.997-2.977,11.484-6.125,17.041-10.647,1.194-.972,2.582-.022,3.261,1.233l3.663,8.521.409.952c-6.838,17.649-19.485,42.033-27.607,58.367h-3.189c-.317-3.275-1.356-11.517-2.511-20.895Z"></path><path class="h" d="M332.101,137.243c.348-.228.695-.459,1.042-.694v-2.447c-2.679.965-6.444,1.986-9.223,2.267-1.074.108-2.17.164-3.302.164-1.88,0-3.66-.165-5.355-.503,0,.707,0,1.294,0,1.294,1.654,1.88,3.54,3.723,6.077,5.977,3.738-1.856,7.279-3.778,10.761-6.058Z"></path><path class="h" d="M354.644,103.367c1.103-.651,2.42-.709,3.481-.451,2.31.561,3.052,1.966,3.331,2.757.831,2.366-.027,6.221-1.382,8.439-.955,1.569-2.391,3.733-5.163,5.096-.873.427-3.042.952-4.959.575-.261.438-.427.719-.427.719-.634,1.071-2.073,2.915-2.073,2.915-1.466,1.807-3.02,3.501-4.889,5.12l-2.17,1.871-7.249,3.695c-2.679.965-6.444,1.986-9.223,2.267-1.074.108-2.17.164-3.302.164-7.057.003-12.701-2.345-17.779-7.304-4.844-4.73-6.523-11.666-6.686-19.186-.094-4.336-.093-9.041-.299-13.76,0,0-4.66-16.436,20.422-16.436,32.919,0,38.369,23.519,38.369,23.519Z"></path><path class="h" d="M226.219,148.876c-.008.268-.019.637-.031,1.085-.56-.094-1.206-.124-1.939-.072-4.524.318-8.999,2.485-8.579,4.759.088,1.161.628,2.073,1.952,3.6-.57.964-.561,3.313.146,3.634l.857,1.031c-1.369,0-2.29.658-2.787,1.579-.907,1.681-.014,3.783,1.767,4.471l.551.213c-.179-.015-.357-.03-.357-.03-1.956-.162-4.042,2.063-3.473,3.665.424,1.194,1.662,2.094,2.869,2.651,2.767,3.098,6.209,5.586,10.011,7.256.922.405,1.866.763,2.77,1.206.683.335,1.343.717,1.973,1.144,1.88,1.274,4.368,1.242,6.231-.056,3.034-2.112,6.254-4.66,9.068-7.039,1.103-.933,1.517-2.448,1.058-3.818-2.667-7.968-4.983-15.454-7.015-17.331-2.822-2.606-5.879-3.292-7.483-6.477-1.115-2.214-3.152-4.972-5.681-4.479-1.676.327-1.863,1.719-1.893,2.517,0,0-.006.175-.016.488Z"></path><path class="h" d="M344.923,243.411c-.88-6.176-2.242-11.784-3.907-16.18-.166-.439-.612-.7-1.078-.648-1.622.181-4.31.282-5.291-.239-3.946-2.092-6.951-1.694-11.467-1.784-2.183-.043-3.727.028-6.645.248-1.406.106-4.057.027-5.306.772s-1.855,1.231-1.817,2.694c.024.934.347,1.737,1.091,2.191.866.529,2.114.769,3.099.948,1.198.218,2.578.375,3.851.621-2.825,1.627-5.567,3.398-8.214,5.301-.65.468-1.389,1.178-1.636,1.94-.207.638-.332,1.53-.168,2.18.229.905.748,1.735,1.567,2.183.918.503,2.111.937,3.302.952.731,2.343.951,3.636,2.954,5.111,2.264,1.667,4.615,4.099,7.469,5.093.786.274,1.619.487,2.59.435.793-.137,1.527-.294,2.268-.678,4.094-2.121,8.988-5.987,12.788-8.101.759-.422,2.768-.85,3.874-1.112.514-.122.856-.617.785-1.14-.036-.264-.072-.527-.109-.788Z"></path><path class="h" d="M350.571,192.884c-1.259-2.686-2.367-5.039-3.118-6.61-.411-.855-1.406-1.245-2.285-.904-9.195,3.59-32.536,13.626-40.299,16.919-.917.391-1.34,1.449-.955,2.367,0,0,4.401,10.326,8.718,20.455,1.301-.245,2.912-.228,3.902-.302,2.919-.22,4.462-.291,6.645-.248,4.516.089,7.521-.308,11.467,1.784.982.52,3.67.419,5.291.239l.299-1.629c2.906-.917,19.719-9.151,20.715-10.121l-.383-.768-1.451-2.912c-1.992-4.23-5.665-12.12-8.547-18.269Z"></path><path class="h" d="M299.234,298.755c-5.165-8.226-13.492-23.372-16.685-28.59,7.925-5.56,27.084-18.687,37.556-25.694,5.161,8.111,23.877,36.694,29.804,46.199l-18.693,15.888"></path><path class="h" d="M361.96,187.521c.658-5.119,1.896-7.923,4.132-11.686,1.013-1.705,6.768-9.278,18.3-12.36,5.504-1.471,11.532-2.02,17.622-.797,6.091,1.223,15.897,4.208,23.767,17.873,3.059,5.311,5.249,12.79,4.913,20.004-.609,13.055-7.717,21.944-12.481,26.418-3.091,2.903-8.639,6.726-9.364,10.963-.065.38-.07,1.098-.035,1.926-3.902-.118-7.043.537-11.289,1.621-7.417,1.893-11.44,4.181-16.424,7.369-.963-2.766-1.754-5.041-1.754-5.041-.955-2.95-2.236-5.37-2.276-5.498-.256-.785-1.056-1.268-1.866-1.111-3.377.649-8.454-.22-12.088-1.865-1.854-.839-3.593-2.337-4.831-5.172-.585-1.325-.985-3.087-1.252-4.888-.404-2.734-.506-5.571-.472-7.186-.241-1.202-.678-2.331-1.477-3.33-1.206-1.513-3.24-2.773-1.977-5.149.48-.898,1.32-1.53,2.252-1.949,4.697-2.108,5.393-8.941,5.908-13.865.084-2.931.45-5.575,1.052-7.963l-.36,1.685Z"></path><path class="h" d="M327.126,305.929c5.999,1.434,12.689,3.1,13.536,3.356l4.936,1.491c3.804-13.077,5.671-22.496,11.356-36.484,1.715-4.22,3.887-8.263,6.948-11.636.373-.411.738-.806,1.097-1.186,2.433-2.581,4.571-4.49,7.048-6.27.185-.133.373-.266.562-.398l2.737-1.877c.673-1.604,1.883-4.779,3.094-5.808,2.251-1.913,8.564-5.46,13.801-6.9,5.749-1.581,13.643-3.087,16.141-3.165,2.174-.067,5.526,3.131,7.963,7.121l5.633.813c7.891,5.562,13.756,13.658,17.804,22.423,4.918,10.648,7.306,22.314,9.346,33.803-1.354-.49-2.878-.58-4.367-.147-11.401,3.314-27.906,8.131-39.238,11.4-3.816,1.101-6.185,4.596-6.462,8.558-.541,7.73-1.187,12.683-1.674,19.585-12.403,0-35.618,0-35.618,0-4.557,1.452-11.858,1.715-24.973-3.998-9.957-4.337-23.806-11.454-27.608-15.089,1.283-5.774,4.887-13.249,7.649-17.872.577.106,1.012.181,1.012.181,1.34.232,5.145,1.11,9.278,2.099Z"></path><path class="h" d="M71.595,254.241c-1.522-2.691-3.507-5.687-4.454-6.75-6.995-7.84-16.399-13.129-24.703-18.347-9.734,7.646-11.735,8.409-16.942,18.249-3.159,5.969-5.572,14.676-7.857,24.75-2.645,15.71-3.28,24.336-4.289,37.263-.333,3.28-.6,7.428-.767,11.151,15.461-.002,50.655-.002,50.655-.002,2.963.574,6.028.788,9.082.935,10.173.49,20.407.266,30.524-.67.162-9.347-.662-18.712-2.461-27.884-11.423.746-18.336-1.152-20.323-9.93-2.459-10.86-4.649-22.018-8.465-28.764"></path><g id="e"><path class="g" d="M330.536,54.029c-6.516.092-12.567,1.773-18.361,5.136-1.617.939-4.984,2.757-7.576,5.777-2.131,2.08-4.103,4.644-5.649,7.684-1.692,3.326-2.875,7.223-3.2,11.68-.322,3.488-.247,8.015.158,12.019.23-6.006,5.466-6.729,7.58-9.637,1.169-1.608,2.009-3.563,3.757-4.574,1.316-.762,2.939-.85,4.481-.78,2.389.108,6.807.263,9.994.936,0,0,2.184-1.438,5.235-.69,2.862.702,9.135,3.749,9.135,3.749,4.224,2.273,6.129,3.969,8.537,7.746,1.83,2.87,2.633,6.323,2.663,9.737,2.568,0,7.354.555,7.354.555,1.103-.651,2.42-.709,3.481-.451,2.307.56,3.05,1.963,3.33,2.754,2.176-3.921,4.049-8.187,4.572-12.774,1.558-13.662-1.275-19.102-8.008-26.34-5.456-8.442-13.958-11.426-22.54-12.303-1.679-.172-3.326-.247-4.944-.224Z" style="fill: rgb(208, 208, 208);"></path><path class="g" d="M386.634,162.935c-.756.162-1.504.343-2.242.54-.575.154-1.136.319-1.683.493-10.412,3.329-15.655,10.247-16.618,11.866-1.883,3.168-3.058,5.656-3.775,9.418,9.522.979,16.976,7.885,21.328,13.609,2.003,2.864,2.328,4.772,4.009,8.921,1.167-1.141,2.282-2.022,3.971-2.234,1.502-.189,2.897.17,3.886,1.093,1.472,1.373,1.914,3.926,1.568,5.94-.556,3.232-1.959,5.704-4.128,7.504.058.281.093.441.093.441.928,4.255,5.603,11.338,9.881,14.649l5.884,4.555c-.004-.172-.009-.344-.009-.344-.015-.624-.002-1.146.05-1.451.725-4.237,6.273-8.06,9.364-10.963,4.764-4.474,11.872-13.363,12.481-26.418.336-7.214-1.854-14.692-4.913-20.004-7.87-13.665-17.677-16.65-23.767-17.873-5.274-1.059-10.5-.789-15.38.257Z" style="fill: rgb(208, 208, 208);"></path><path class="g" d="M44.485,152.256c1.477-.46,2.85-.776,4.074-1.022,6.105-1.226,12.147-.675,17.664.799,11.559,3.089,17.328,10.68,18.343,12.389.879,1.479,1.604,2.809,2.2,4.19-3.067,10.887-12.336,20.787-25.023,26.923-.818-.655-1.704-1.125-2.867-1.271-1.474-.185-2.844.167-3.815,1.073-1.445,1.348-1.879,3.854-1.539,5.831.735,4.274,2.979,7.193,6.537,8.974-1.428,6.092-2.165,8.683-1.76,13.807.246,3.115,3.128,10.982,7.456,12.472-4.189,3.21-9.433,5.717-14.459,6.602-9.497,1.672-18.71-.647-23.1-3.475-3.573-2.302-6.047-4.089-7.605-8.104-.826-2.128-.379-5.574-.07-7.563,1.129-7.264,3.162-11.164.728-23.203-.452-2.077-.963-6.104-1.437-11.476-.337-7.231,1.858-14.727,4.924-20.051,6.308-10.952,13.856-15.06,19.749-16.893Z" style="fill: rgb(208, 208, 208);"></path><path class="g" d="M321.334,195.276c1.436-2.862,2.951-5.874,4.508-8.988-.138-1.534-.246-2.752-.246-2.752-.245-2.677-.401-6.622-.491-10.301-.114-4.636-.122-8.847-.072-9.554.071-1.002,1.503-6.34,2.178-9.195,0,0,.048-.167.126-.437-1.431-1.86-2.877-3.524-4.514-5.364-.166-.186-.349-.372-.584-.454-.502-.174-1.011.198-1.418.539-1.686,1.408-3.09,2.566-4.758,4.075.043.225.069.36.069.36.123,1.866.446,5.191.496,6.811.033,1.058-.39,3.37-1.007,6.139-.768,3.448-1.836,7.605-2.701,10.936,0,0-.264,1.019-.659,2.542.907,7.374,1.759,14.156,2.269,18.539,2.14-.912,4.442-1.893,6.805-2.896Z" style="fill: rgb(208, 208, 208);"></path></g></g><g id="f"><path class="i" d="M306.459,143.476c.143,6.261,1.014,12.542,1.721,18.756.949,8.34,1.986,16.669,3.017,24.999.451,3.647.906,7.295,1.332,10.945.125,1.073.83,2,2,2,.984,0,2.126-.92,2-2-1.786-15.292-3.914-30.548-5.413-45.873-.287-2.933-.59-5.879-.657-8.827-.059-2.57-4.059-2.579-4,0h0Z"></path><path class="i" d="M323.056,196.286c6.914-13.767,13.909-27.516,20.109-41.625,1.624-3.695,3.19-7.417,4.643-11.183.389-1.008-.429-2.194-1.397-2.46-1.129-.31-2.07.385-2.46,1.397-5.375,13.936-12.098,27.358-18.761,40.711-1.855,3.718-3.723,7.429-5.587,11.142-1.152,2.294,2.297,4.322,3.454,2.019h0Z"></path><path class="i" d="M299.428,149.085c-1.777,2.188-3.467,4.444-4.957,6.838-.344.552-.405,1.474,0,2.019,1.548,2.083,2.972,4.26,4.558,6.315l.313-2.424c-1.083,1.243-2.165,2.487-3.248,3.73-.805.925-2.103,1.996-2.583,3.136-.435,1.033.195,2.56.443,3.618.304,1.295.607,2.589.911,3.884,1.406,5.997,2.812,11.995,4.215,17.993.586,2.505,4.444,1.445,3.857-1.063-1.887-8.065-3.776-16.129-5.67-24.192l-.514,1.946c1.806-2.074,3.612-4.148,5.417-6.222.523-.601.869-1.703.313-2.424-1.586-2.055-3.01-4.232-4.558-6.315v2.019c1.31-2.105,2.769-4.104,4.332-6.029.68-.838.819-2.009,0-2.828-.703-.703-2.144-.843-2.828,0h0Z"></path><path class="i" d="M351.802,151.766c1.705,2.836,2.973,5.875,3.598,9.132l1.397-2.46c-2.609,1.044-5.283,1.922-7.828,3.122-1.202.567-1.228,2.283-.405,3.141,2.031,2.12,3.774,4.495,5.8,6.62l-.313-2.424c-3.567,5.063-6.972,10.236-10.39,15.4-1.425,2.153,2.038,4.158,3.454,2.019,3.418-5.164,6.823-10.337,10.39-15.4.514-.73.263-1.819-.313-2.424-2.026-2.125-3.769-4.5-5.8-6.62l-.405,3.141c2.23-1.051,4.586-1.803,6.872-2.718,1.067-.427,1.621-1.294,1.397-2.46-.685-3.566-2.135-6.984-4.002-10.088-1.325-2.204-4.785-.195-3.454,2.019h0Z"></path><path class="i" d="M316.241,155.397c1.168-1.092,2.361-2.155,3.58-3.19.555-.471,1.113-.938,1.672-1.404.202-.169.624-.496.708-.592l.2-.124c-.413.15-.767.121-1.063-.088-.081-.06-.079-.049.006.031.081.086.16.174.238.264,2.144,2.4,4.169,4.825,5.985,7.458.613.888,1.755,1.292,2.736.718.88-.514,1.334-1.843.718-2.736-1.155-1.675-2.386-3.296-3.679-4.867-.6-.729-1.214-1.446-1.835-2.157-.634-.727-1.257-1.617-2.091-2.126-2.204-1.344-4.266.978-5.814,2.281-1.426,1.2-2.825,2.43-4.187,3.703-.789.738-.746,2.083,0,2.828.787.787,2.037.74,2.828,0h0Z"></path><path class="i" d="M314.13,153.206c.144,2.102.37,4.2.475,6.304.075,1.506-.158,2.46-.46,3.977-.877,4.395-2.03,8.736-3.154,13.073-.647,2.493,3.21,3.557,3.857,1.063,1.149-4.43,2.333-8.867,3.211-13.361.287-1.467.608-2.988.559-4.489-.072-2.193-.337-4.38-.487-6.568-.175-2.554-4.176-2.574-4,0h0Z"></path><path class="i" d="M325.281,153.956c-.659,2.767-1.453,5.509-2.025,8.297-.311,1.514-.259,3.03-.251,4.568.029,5.566.094,11.17.59,16.716.096,1.076.85,2,2,2,1.007,0,2.097-.918,2-2-.488-5.467-.555-10.988-.588-16.474-.005-.875-.011-1.751.003-2.626.004-.232.021-.467.018-.698-.003-.265-.114.583-.019.114.043-.214.082-.429.127-.643.577-2.75,1.351-5.458,2.002-8.19.596-2.503-3.26-3.57-3.857-1.063h0Z"></path><path class="i" d="M316.993,162.827c2.316.21,4.637.382,6.956.541,1.046.072,2.046-.971,2-2-.051-1.145-.88-1.923-2-2-2.32-.16-4.641-.331-6.956-.541-.483-.044-1.083.255-1.414.586-.347.347-.608.916-.586,1.414.052,1.165.881,1.899,2,2h0Z"></path><path class="i" d="M309.877,144.886c.908-1.172,1.818-2.345,2.789-3.466.413-.477.836-.945,1.269-1.405.202-.215.624-.49.721-.749.182-.094.215-.151.096-.172-.212-.075-.433-.103-.665-.086-.109.294,2.186,2.301,2.47,2.58,1.094,1.074,2.225,2.109,3.369,3.129.706.63,1.586.73,2.424.313,3.47-1.728,6.885-3.568,10.15-5.662,1.677-1.076,3.313-2.216,4.9-3.42.439-.333.876-.67,1.31-1.01.06-.047.706-.675.813-.687-.283.031.044.099.144.267.081.137.185.269.263.412.765,1.397,1.287,2.994,1.916,4.457.578,1.344,1.156,2.688,1.733,4.032.427.993,1.886,1.215,2.736.718,1.026-.6,1.146-1.74.718-2.736-.676-1.572-1.352-3.144-2.027-4.716-.712-1.656-1.272-3.754-2.576-5.068-1.569-1.581-3.713-1.75-5.461-.375s-3.531,2.719-5.393,3.958c-3.593,2.391-7.383,4.454-11.243,6.376l2.424.313c-1.388-1.237-2.757-2.496-4.063-3.82-1.118-1.133-2.175-2.895-3.92-2.97-1.898-.082-3.031,1.383-4.195,2.662-1.249,1.372-2.392,2.832-3.528,4.298-.661.853-.831,1.997,0,2.828.689.689,2.163.859,2.828,0h0Z"></path><path class="i" d="M351.708,146.335c10.548,4.201,22.339,8.743,28.565,18.881,1.345,2.19,4.806.183,3.454-2.019-6.829-11.12-19.371-16.105-30.955-20.719-1.004-.4-2.197.437-2.46,1.397-.313,1.138.389,2.059,1.397,2.46h0Z"></path><path class="i" d="M279.023,191.073c.962,20.773,1.756,41.554,2.381,62.34.077,2.568,4.078,2.579,4,0-.625-20.786-1.419-41.567-2.381-62.34-.119-2.563-4.119-2.578-4,0h0Z"></path><path class="i" d="M322.251,80.341c-3.276-.663-6.631-.834-9.962-.982-1.801-.08-3.629-.058-5.308.676-1.705.746-2.864,2.074-3.875,3.599-.755,1.138-1.248,2.084-2.286,2.923-.775.627-1.714,1.199-2.538,1.823-2.478,1.878-3.916,4.135-4.325,7.243-.141,1.073,1.02,2,2,2,1.198,0,1.858-.924,2-2,.269-2.046,1.715-3.374,3.314-4.495,1.891-1.326,3.414-2.558,4.676-4.523.668-1.041,1.324-2.302,2.49-2.861,1.273-.611,2.788-.434,4.156-.373,2.872.128,5.771.254,8.595.826,2.513.509,3.588-3.346,1.063-3.857h0Z"></path><path class="i" d="M331.432,84.365c-.19-3.39-2.754-6.386-5.636-7.946-1.109-.6-2.314-1.049-3.545-1.319-1.019-.224-2.212.306-2.46,1.397-.23,1.011.304,2.22,1.397,2.46.621.136,1.232.313,1.824.543.513.2-.276-.134.038.014.132.062.264.122.395.186.221.11.439.228.652.353.234.138.463.284.686.44.108.075.211.158.319.233-.543-.374-.149-.113-.027-.011.352.295.683.615.99.957.136.152.616.816.18.194.11.158.226.31.332.471.225.342.417.7.595,1.068.193.399-.168-.443-.062-.153.024.064.05.127.074.192.06.163.113.329.159.496.042.155.074.312.105.469.077.39-.053-.545-.033-.255.005.07.013.14.016.211.059,1.043.878,2.05,2,2,1.033-.046,2.063-.881,2-2h0Z"></path><path class="i" d="M349.29,102.812c-.07-4.508-1.368-8.689-4.017-12.344-2.177-3.004-4.928-5.109-8.174-6.866-2.264-1.226-4.286,2.227-2.019,3.454,1.339.725,2.967,1.673,3.971,2.501,1.052.868,2.053,1.944,2.769,2.93,1.04,1.435,1.974,2.945,2.542,4.633.622,1.849.899,3.747.929,5.692.04,2.571,4.04,2.579,4,0h0Z"></path><path class="i" d="M325.233,106.351c-.277-1.557.448-4.969,3.326-4.913,3.752.485,3.439,4.68,1.934,6.486-1.233,1.478-4.358,1.771-5.259-1.573Z"></path><path class="i" d="M302.852,104.308c-.242-1.558.45-4.985,3.087-4.952,3.435.456,3.115,4.665,1.721,6.487-1.141,1.492-4.008,1.81-4.807-1.535Z"></path><path class="i" d="M313.662,108.701c-.556.772-1.096,1.56-1.581,2.378-.216.363-.431.757-.498,1.177-.074.462-.109.882.04,1.336.144.44.395.819.724,1.144.418.413.887.681,1.439.867.179.06.367.077.55.121.516.123,1.078.07,1.541-.202.415-.243.811-.718.919-1.195.117-.512.091-1.087-.202-1.541-.277-.43-.685-.797-1.195-.919-.215-.051-.431-.072-.638-.154l.478.202c-.117-.051-.222-.114-.324-.191l.405.313c-.108-.089-.203-.186-.293-.293l.313.405c-.024-.03-.045-.062-.061-.097l.202.478c-.021-.055-.033-.101-.041-.16l.071.532c-.003-.038-.003-.075.001-.113l-.071.532c.014-.102.041-.196.078-.293l-.202.478c.225-.521.583-1.007.896-1.477.294-.441.594-.878.903-1.307.287-.398.327-1.088.202-1.541-.128-.464-.486-.967-.919-1.195-.464-.245-1.026-.368-1.541-.202l-.478.202c-.301.178-.54.417-.718.718h0Z"></path><path class="i" d="M355.653,105.094c.954-.52,2.045-.364,2.87.078.125.068.246.141.365.22-.134-.119-.115-.104.056.044.078.07.536.616.253.221.113.157.201.324.301.488.276.452-.009-.179.03.059.044.265.159.525.208.793.043.243.049.281.016.115.013.15.022.3.027.451.018.508-.027,1.262-.08,1.61-.174,1.15-.536,2.372-.991,3.276-.979,1.945-2.182,3.519-4.083,4.641-.271.16-.548.307-.832.441.538-.255-.104.016-.226.053-.238.071-.479.131-.722.183-.075.016-.78.123-.509.093-1.179.131-2.133.079-2.97-.401-2.237-1.282-4.254,2.172-2.019,3.454,2.2,1.262,5.071,1.252,7.443.479,2.479-.808,4.469-2.658,5.986-4.719,1.404-1.907,2.391-4.093,2.779-6.436.371-2.242.407-4.808-1-6.724-2.011-2.739-5.976-3.478-8.921-1.873-2.261,1.233-.244,4.688,2.019,3.454h0Z"></path><path class="i" d="M313.304,123.727c1.484.91,3.288,1.292,5.007,1.39.864.049,1.731-.023,2.582-.182.857-.16,1.636-.562,2.447-.864.977-.365,1.75-1.369,1.397-2.46-.309-.956-1.411-1.789-2.46-1.397-.74.276-1.454.644-2.228.819-.146.033-.3.046-.444.083.069-.018.465-.051.183-.027-.1.009-.199.018-.298.025-.35.023-.701.025-1.052.01-.169-.008-.337-.019-.506-.035-.082-.008-.17-.028-.253-.027.089-.001.429.067.154.02-.351-.06-.7-.125-1.044-.215-.329-.086-.649-.193-.968-.313-.26-.098.113.028.164.069-.065-.053-.173-.081-.248-.119-.141-.071-.278-.149-.412-.232-.893-.548-2.239-.223-2.736.718-.516.976-.236,2.152.718,2.736h0Z"></path><path class="i" d="M341.806,131.821c1.476-1.272,2.975-2.519,4.338-3.915,1.881-1.926,3.716-4.079,5.107-6.396.539-.898.23-2.236-.718-2.736-.968-.512-2.161-.241-2.736.718-.583.971-1.28,1.872-1.964,2.774.538-.71.104-.141-.017.007-.295.359-.594.714-.899,1.064-.556.64-1.13,1.264-1.726,1.867-1.328,1.347-2.783,2.555-4.214,3.788-.795.685-.756,2.135,0,2.828.847.778,1.98.731,2.828,0h0Z"></path><path class="i" d="M293.853,96.283c.222,5.271.06,10.567.384,15.832.274,4.44,1.12,8.874,3.106,12.884,3.874,7.821,12.357,12.748,20.886,13.441,5.271.428,10.495-.652,15.445-2.41,2.409-.855,1.371-4.721-1.063-3.857-7.531,2.674-16.03,3.675-23.251-.449-3.312-1.891-6.28-4.565-8.134-7.923-1.894-3.429-2.686-7.402-2.961-11.276-.384-5.396-.184-10.837-.411-16.242-.108-2.565-4.108-2.578-4,0h0Z"></path><path class="i" d="M358.687,64.024c-3.842-5.042-9.022-8.477-15.096-10.264-6.203-1.825-12.947-2.218-19.316-1.148-11.614,1.951-22.897,9.525-27.741,20.455-3.155,7.12-3.362,15.047-2.681,22.697.096,1.076.851,2,2,2,1.008,0,2.096-.918,2-2-.551-6.185-.643-12.698,1.362-18.648,1.674-4.969,4.895-9.386,8.847-12.805,1.774-1.534,3.838-2.721,5.884-3.852,2.697-1.491,5.551-2.64,8.541-3.393,5.658-1.424,11.676-1.344,17.367-.125,6.008,1.287,11.595,4.137,15.378,9.101.654.858,1.723,1.31,2.736.718.845-.494,1.376-1.872.718-2.736h0Z"></path><path class="i" d="M364.276,104.619c1.861-3.723,3.26-7.574,3.752-11.724.397-3.353.589-6.778.251-10.144-.558-5.552-2.718-10.252-6.19-14.576-.677-.843-2.123-.705-2.828,0-.833.833-.679,1.983,0,2.828,2.831,3.525,4.644,7.548,5.05,12.077.605,6.761-.449,13.441-3.488,19.519-1.148,2.296,2.302,4.324,3.454,2.019h0Z"></path><path class="i" d="M306.942,140.395c-7.326,2.513-14.884,5-21.095,9.779-7.171,5.517-10.923,13.667-14.618,21.695-2.284,4.963-4.491,9.967-7.126,14.757-1.241,2.257,2.212,4.278,3.454,2.019,4.526-8.232,7.782-17.092,12.358-25.298,1.907-3.419,4.168-6.475,7.146-9.04,2.673-2.302,5.782-4.065,8.975-5.54,3.873-1.789,7.94-3.133,11.971-4.516,2.421-.83,1.381-4.696-1.063-3.857h0Z"></path><path class="i" d="M232.685,184.242c-1.489,1.246-2.975,2.495-4.44,3.77-.65.565-.753,1.709-.313,2.424,5.592,9.073,11.31,18.123,17.875,26.534,2.816,3.608,6.007,6.985,9.556,9.882,3.349,2.734,6.985,5.025,11.301,5.794,5.733,1.022,11.594.193,16.895-2.173.986-.44,1.22-1.877.718-2.736-.594-1.016-1.746-1.159-2.736-.718-4.135,1.845-8.975,2.54-13.458,1.83-3.913-.619-7.175-2.57-10.191-5.073-7.13-5.918-12.425-13.647-17.543-21.282-3.098-4.621-6.043-9.342-8.961-14.078l-.313,2.424c1.465-1.275,2.951-2.524,4.44-3.77,1.976-1.654-.866-4.471-2.828-2.828h0Z"></path><path class="i" d="M249.299,175.943c.635-.486,1.273-.97,1.92-1.44l-2.424-.313c3.899,4.62,7.921,9.142,11.943,13.654.817.917,1.634,1.834,2.467,2.736,1.751,1.895,4.574-.939,2.828-2.828-4.011-4.34-7.873-8.827-11.746-13.29-.893-1.029-1.786-2.059-2.664-3.1-.521-.617-1.757-.797-2.424-.313-.647.47-1.285.954-1.92,1.44-.856.656-1.311,1.722-.718,2.736.493.843,1.873,1.378,2.736.718h0Z"></path><path class="i" d="M222.063,172.893c.07.058.334.35.1.067-.279-.337.097.301-.062-.097-.132-.333.012.067.036.161.013.052.017.112.035.162.074.205-.018-.419-.025-.197-.006.211-.041.537-.004.743-.061-.34.073-.4.023-.199-.013.053-.022.107-.035.16-.023.095-.189.55-.045.203.147-.354-.037-.004-.052.055-.033.134.128-.183.159-.201-.053.03-.125.137-.174.185-.047.046-.1.086-.146.132-.147.148.121-.105.14-.105-.106-.004-.377.24-.476.292-.063.033-.129.061-.191.094-.206.11.154-.07.149-.063-.058.086-.367.12-.474.147-.035.009-.182.02-.205.046.007-.008.412-.031.192-.023-.184.006-.365,0-.548.004-.23.004.084.022.114.025-.11-.011-.225-.037-.332-.059-.166-.034-.33-.074-.493-.119-.384-.106-.756-.244-1.127-.386-.074-.028-.352-.151.005.005-.078-.034-.156-.068-.234-.102-.134-.06-.268-.121-.399-.186-.327-.162-.644-.343-.945-.548-.06-.041-.119-.086-.179-.127-.191-.129.121.082.116.09,0,0-.362-.328-.373-.338-.055-.055-.378-.348-.172-.166.171.152.034.051-.011-.019-.062-.096-.124-.191-.179-.292-.022-.041-.057-.154-.093-.181-.004-.003.143.353.083.178-.032-.092-.053-.319-.021.014.034.351.009.125.014.06.003-.044.01-.114.002-.157-.031-.169-.028.246-.041.268.035-.059.127-.35.118-.423.004.029-.202.361-.088.216.055-.07.094-.18.14-.257.029-.047.076-.099.097-.15.08-.195-.25.263-.093.114.119-.113.219-.247.34-.36.046-.043.093-.083.139-.126.204-.185-.028.061-.108.081.132-.033.301-.196.427-.263.054-.029.115-.052.168-.083.199-.117-.414.119-.076.043.095-.021.544-.105.208-.074-.329.03-.046.003.034.005.1.003.199,0,.3.006,1.046.061,2.046-.963,2-2-.051-1.136-.879-1.935-2-2-1.978-.115-3.942,1.165-4.92,2.838-.549.94-.751,1.989-.557,3.058.181.998.881,1.971,1.615,2.644.742.681,1.594,1.217,2.513,1.621,1.014.446,2.039.878,3.142,1.042,1.275.19,2.391.051,3.576-.462.924-.401,1.821-1.082,2.343-1.957.991-1.662.964-4.553-.621-5.866-.804-.667-2.051-.847-2.828,0-.677.737-.86,2.115,0,2.828h0Z"></path><path class="i" d="M220.404,161.14c-1.443-.325-2.89-.317-4.238.345-1.157.568-1.953,1.612-2.405,2.793-.417,1.087-.532,2.363-.264,3.501.148.629.439,1.226.877,1.705.209.228.447.44.716.597.312.182.802.35.967.421,1.968.845,3.944,1.641,5.929,2.444.772.312,1.569.646,2.397.778,1.316.21,2.658-.139,3.77-.875,1.343-.888,2.13-2.192,2.246-3.797.114-1.578-.639-3.144-1.833-4.151-.799-.674-2.056-.842-2.828,0-.682.743-.854,2.108,0,2.828.178.15.338.311.498.478.211.22-.13-.226.005.027.038.071.079.154.125.221-.183-.268-.052-.174-.02-.032.02.088.045.219.077.297-.017-.04.007-.365-.021-.165-.014.102.003.257.007.358.012.338.124-.372-.016.072-.019.06-.038.125-.052.187-.085.379.051-.163.068-.135.013.022-.158.278-.153.269.024-.046.223-.219.06-.091-.085.067-.164.156-.242.232-.18.174.224-.104-.012-.003-.185.079-.356.21-.541.296.372-.171-.238.049-.334.075-.39.106.248-.018-.053.002-.362.024.488.125.062.006-.635-.177-1.251-.377-1.865-.62-.652-.258-1.295-.539-1.944-.805-.208-.085-.416-.172-.628-.244-.142-.049-.287-.088-.429-.135-.133-.044-.265-.091-.396-.14-.044-.017-.449-.182-.197-.074-.456-.195-.902-.415-1.355-.619-.283-.128-.569-.25-.856-.371-.146-.062-.309-.118-.453-.189.464.23-.25-.143.145.085.362.209-.252-.074.108.098.133.063.097.139.022-.006.253.488.066.046.008-.085-.1-.226-.025.363.012.11.01-.066-.01-.152-.011-.219-.002-.099,0-.199.005-.298.004-.077.091-.475.012-.183-.072.266.002.018.015-.03.033-.118.056-.238.091-.356.02-.069.045-.136.065-.205.119-.398-.142.205-.017.041.051-.067.089-.157.13-.232.08-.149.272-.259-.039.025.146-.133.44-.389.088-.147.155-.107.313-.198.48-.284-.393.203.059.033.23-.029-.326.118-.212.009-.048.008.146,0,.291-.01.437-.004.092.003.184.01.276.018-.398-.033.23.058.261.065,1.018.229,2.213-.31,2.46-1.397.231-1.016-.305-2.214-1.397-2.46h0Z"></path><path class="i" d="M226.44,163.821c-2.035-.934-4.036-1.935-6.052-2.909-.395-.191-.79-.379-1.188-.563-.086-.04-.188-.1-.28-.129-.394-.126.12.181.229.289.25.247,0-.118.106.182.119.337.014-.026-.011-.1-.139-.401-.004.335-.004.055,0-.098-.015-.198-.019-.296-.008-.233.011-.461.021-.693-.019.437.003-.014.054-.208-.006.022.068-.266.079-.266.001,0-.229.437.035-.017.191-.33.056-.051-.002.001.084-.076.159-.16.245-.234-.376.322.459-.194.234-.109-.261.098.794-.152.237-.085.115-.014.234-.019.349-.021.11-.002.612.062.163-.016.55.096,1.099.259,1.632.424.283.088.565.182.843.284.121.044.241.09.361.137.089.035.178.07.266.107-.158-.066-.173-.071-.044-.015,1.001.455,1.969.991,2.874,1.616.102.071.204.143.304.216-.295-.216.014.014.085.075.177.151.347.308.509.474.187.191.366.392.532.602-.057-.073-.19-.273.03.055.095.142.178.273.261.421-.038-.067-.134-.398-.046-.058.117.454.026-.405.02.075-.001.103-.004.212-.001.315.01.398.12-.31-.019.101-.033.097-.063.213-.087.31-.091.379.18-.238-.048.111-.055.084-.112.184-.161.271.151-.271.064-.096-.075.07-.058.069-.276.216.035-.016-.301.223.128-.064-.069.02l-.081.019c.255-.034.264-.046.028-.036l-.171-.011c.217.032.251.033.104.004-.265-.094-.558-.171-.829-.252-.313-.094.41.191-.05-.018-.132-.06-.264-.119-.396-.18-.949-.435-2.198-.302-2.736.718-.465.879-.298,2.271.718,2.736,1.469.673,3.089,1.346,4.719.806,1.571-.52,2.671-2.062,2.991-3.646.164-.813.185-1.653-.033-2.46-.236-.873-.77-1.565-1.332-2.254-.935-1.147-2.206-2.003-3.48-2.733-1.304-.748-2.71-1.352-4.152-1.78-1.763-.523-3.487-.715-5.19.124-1.371.676-2.345,1.983-2.596,3.487-.243,1.454-.224,3.158.812,4.321.466.523,1.239.761,1.857,1.057.577.276,1.152.559,1.726.841,1.551.763,3.106,1.516,4.677,2.237.949.435,2.198.302,2.736-.718.465-.88.298-2.271-.718-2.736Z"></path><path class="i" d="M228.236,148.388s-.076-.325.068-.451c-.051.044.038-.111.356-.138.702-.059,1.364.625,1.793,1.08,1.479,1.568,2.074,3.693,3.707,5.172,1.657,1.501,3.727,2.44,5.404,3.907,1.007.881,1.639,2.271,2.261,3.733.923,2.169,1.677,4.413,2.433,6.644.402,1.185.796,2.373,1.191,3.561.319.96,1.185,2.444.77,3.465-.393.967-1.745,1.831-2.509,2.5-1.062.929-2.152,1.828-3.283,2.671-1.681,1.254-3.867,3.359-6.118,3.147-1.31-.123-2.363-1.024-3.517-1.573-1.293-.616-2.641-1.104-3.922-1.747-2.591-1.3-4.926-2.972-7.005-4.988-1.849-1.793-4.681,1.032-2.828,2.828,2.258,2.189,4.821,4.085,7.624,5.518,1.405.718,2.894,1.24,4.308,1.935,1.385.681,2.612,1.579,4.161,1.878,3.324.642,5.864-1.053,8.442-2.904,1.339-.961,2.646-1.974,3.911-3.032,1.289-1.079,2.75-2.172,3.752-3.53,2.109-2.856.458-6.084-.529-9.04-.961-2.878-1.921-5.764-3.092-8.565-.794-1.9-1.636-3.942-3.221-5.33-1.943-1.702-4.688-2.74-6.27-4.815-.972-1.276-1.533-2.766-2.606-4.001-.941-1.083-2.171-2.008-3.584-2.354-3.111-.761-5.542,1.396-5.697,4.428-.132,2.573,3.869,2.566,4,0h0Z"></path><path class="i" d="M225.143,156.322c.878,2.274,2.253,4.205,3.54,6.253.305.485.595.983.82,1.511-.114-.267.113.315.109.306.093.264.175.532.247.803s.133.544.184.819c.026.138.049.276.069.415-.027-.183-.026-.15.003.098.034.572.056,1.136.033,1.71-.043,1.047.951,2.047,2,2,1.121-.05,1.954-.879,2-2,.103-2.474-.443-4.963-1.672-7.122-.588-1.034-1.292-2.003-1.93-3.007-.319-.502-.629-1.009-.913-1.531-.141-.259-.276-.52-.403-.786-.063-.132-.124-.266-.183-.4.061.14.045.096-.047-.132-.375-.973-1.361-1.752-2.46-1.397-.947.307-1.8,1.415-1.397,2.46h0Z"></path><path class="i" d="M226.329,158.384c1.861-1.005,4.051-2.374,4.616-4.569.496-1.926-.504-3.993-2.152-5.017-2.259-1.404-5.341-.997-7.79-.429-2.201.511-4.746,1.446-6.242,3.233-.432.516-.776,1.061-.971,1.712-.095.316-.145.659-.147.988,0,.079.005.152.01.23.092,1.614-.136-.79.104.809.225,1.498,1.116,2.701,2.048,3.845.682.838,2.12.709,2.828,0,.829-.829.684-1.988,0-2.828-.207-.254-.431-.555-.646-.921-.073-.125-.276-.591-.144-.227-.074-.204-.129-.406-.18-.616-.01-.042-.05-.31-.011-.052.061.4-.053-.464-.054-.426,0-.02.077.46.045.243-.011-.072-.028-.361-.01-.02.013.246,0,.147.014.038.025-.187.104-.037-.014.014-.119.052-.08.143.041-.039.031-.048.2-.3.033-.07-.173.237.17-.172.222-.223.111-.108.23-.207.349-.307-.297.25.089-.048.21-.126.178-.114.36-.22.545-.321.196-.107.397-.206.599-.3.09-.042.18-.084.271-.122-.085.036-.291.111.089-.029.47-.173.944-.332,1.428-.464,1.012-.277,1.822-.424,2.715-.492.478-.036.949-.037,1.427-.012.408.021.138.01.043-.005.089.014.178.031.267.049.215.045.434.145.647.178.207.031-.081-.037-.121-.059.064.034.132.061.195.098.235.137.35.281.103.024.083.087.18.18.271.259.281.241-.136-.101-.094-.123.004-.002.11.182.116.2.129.406-.028-.146-.014-.055.014.09.061.193.089.281.14.437-.09,0,.003-.111-.009.011-.006.371-.002.376-.101-.129.123-.512-.016-.104-.131.386.235-.345-.011.007-.03.044-.066.1-.089.148-.144.302.22-.221.055-.055-.114.115-.213.243-.329.357-.15.148-.31.284-.471.42.3-.253-.252.177-.334.232-.502.339-1.028.639-1.56.926-.95.513-1.25,1.827-.718,2.736.562.96,1.783,1.233,2.736.718h0Z"></path><path class="i" d="M215.278,140.837c2.005,2.905,3.972,5.837,6.039,8.699.611.846,1.768,1.342,2.736.718.839-.541,1.373-1.829.718-2.736-2.067-2.861-4.034-5.793-6.039-8.699-.593-.859-1.781-1.333-2.736-.718-.855.551-1.353,1.815-.718,2.736h0Z"></path><path class="i" d="M315.62,230.789c-1.836,1.081-3.636,2.221-5.396,3.422-1.724,1.177-3.772,2.346-4.509,4.42-.691,1.947-.343,4.106,1,5.681,1.308,1.533,3.638,2.206,5.584,2.274l-1.929-1.468c.542,1.762,1.055,3.404,2.224,4.863.676.843,2.124.705,2.828,0,.833-.833.678-1.983,0-2.828.074.093-.224-.363-.288-.478-.067-.122-.13-.247-.187-.373.106.234-.054-.144-.081-.219-.241-.666-.432-1.351-.64-2.028-.268-.869-1.026-1.437-1.929-1.468-.983-.034-2.322-.484-2.704-1.073-.39-.601-.333-1.513.368-2.188,1-.961,2.364-1.731,3.542-2.508,1.355-.894,2.734-1.75,4.133-2.574,2.217-1.305.206-4.764-2.019-3.454h0Z"></path><path class="i" d="M319.081,230.348c-1.858-.454-3.767-.601-5.636-.991-.788-.164-2.57-.329-2.03-1.478.487-1.035,2.75-.957,3.625-.999,1.755-.083,3.506-.239,5.262-.302,1.741-.062,3.483-.009,5.224-.002,1.685.007,3.394-.008,5.046.367,1.612.366,3.021,1.357,4.634,1.624.848.14,1.703.177,2.561.161.642-.012,1.714-.304,2.293-.076l-.883-.514c.558.472.875,2.394,1.119,3.203.417,1.386.788,2.786,1.122,4.195.341,1.439.643,2.887.912,4.342.14.758.27,1.517.392,2.277.062.387.122.774.179,1.162l.068.469c.037.62.086.628.149.024l.883-.514c-1.271.51-2.686.61-3.967,1.127-1.558.628-2.98,1.679-4.372,2.606-1.576,1.049-3.131,2.129-4.713,3.169-1.454.956-3.017,2.149-4.661,2.752-2.397.879-1.361,4.747,1.063,3.857,3.214-1.179,6.082-3.458,8.897-5.362,1.373-.928,2.747-1.858,4.168-2.711,1.096-.658,2.152-.951,3.478-1.262,1.575-.369,3.032-1.136,3.129-2.963.092-1.736-.485-3.762-.796-5.47-.608-3.337-1.383-6.651-2.423-9.881-.456-1.416-.82-3.351-2.204-4.161-1.282-.75-2.97-.252-4.37-.265-1.53-.014-2.133-.459-3.585-1.024s-2.969-.854-4.518-1.006c-2.947-.289-6.036-.232-8.995-.117-1.382.054-2.758.183-4.139.255-1.494.078-3.074.053-4.519.488-3.213.968-5.278,4.356-3.365,7.499,1.847,3.035,6.9,2.644,9.907,3.379,2.5.611,3.567-3.245,1.063-3.857h0Z"></path><path class="i" d="M340.771,226.885c2.455-.799,4.818-2.03,7.148-3.128,3.183-1.499,6.345-3.044,9.479-4.644.962-.491,1.241-1.842.718-2.736-.572-.977-1.771-1.21-2.736-.718-3.066,1.565-6.16,3.077-9.273,4.546-1.366.645-2.736,1.282-4.117,1.894-.278.123-.556.244-.835.365-.11.048-.552.231-.064.029-.103.042-.205.085-.308.127-.355.145-.711.288-1.076.406-1.027.334-1.693,1.384-1.397,2.46.277,1.007,1.429,1.733,2.46,1.397h0Z"></path><path class="i" d="M358.716,205.607c-1.767-3.78-3.53-7.562-5.299-11.341-.844-1.803-1.689-3.606-2.538-5.407-.625-1.325-1.149-2.89-2.024-4.071-1.288-1.739-3.281-1.723-5.114-.998-1.665.658-3.323,1.334-4.979,2.015-4.334,1.782-8.653,3.601-12.97,5.426-4.535,1.917-9.061,3.852-13.591,5.78-2.026.862-4.051,1.726-6.077,2.588-1.699.722-3.646,1.283-4.203,3.288-.459,1.653.449,3.221,1.081,4.703l2.689,6.308c1.657,3.886,3.314,7.772,4.971,11.659.424.994,1.888,1.214,2.736.718,1.028-.601,1.143-1.739.718-2.736-2.774-6.505-5.467-13.051-8.323-19.521-.047-.107-.098-.216-.139-.326-.066-.178.138.35.116.341-.056-.022.216-.069.487-.178,1.577-.639,3.135-1.332,4.701-1.999,4.211-1.794,8.42-3.595,12.634-5.382,7.301-3.097,14.715-5.965,21.985-9.128.095-.041.459-.041.268-.105-.115-.039-.213-.118-.123.048.149.273.27.565.404.846.344.723.687,1.447,1.028,2.172.83,1.758,1.655,3.518,2.479,5.279,1.879,4.013,3.752,8.03,5.628,12.044.457.979,1.865,1.227,2.736.718,1.003-.587,1.177-1.754.718-2.736h0Z"></path><path class="i" d="M204.819,255.516h101.9c2.574,0,2.578-4,0-4h-101.9c-2.574,0-2.578,4,0,4h0Z"></path><path class="i" d="M325.939,255.516h11.07l-1.929-1.468c2.038,8.84,4.08,17.68,6.12,26.52.579,2.507,4.436,1.446,3.857-1.063-2.04-8.84-4.082-17.68-6.12-26.52-.196-.85-1.078-1.468-1.929-1.468h-11.07c-2.574,0-2.578,4,0,4h0Z"></path><path class="i" d="M350.058,301.175c-.611-2.654-1.22-5.308-1.84-7.96-.238-1.02-1.46-1.72-2.46-1.397-1.064.344-1.652,1.368-1.397,2.46.62,2.652,1.229,5.306,1.84,7.96.235,1.02,1.463,1.72,2.46,1.397,1.067-.345,1.649-1.367,1.397-2.46h0Z"></path><path class="i" d="M364.248,362.625c-1.671-7.24-3.341-14.481-5.02-21.72-.581-2.507-4.439-1.446-3.857,1.063,1.679,7.239,3.349,14.48,5.02,21.72.579,2.507,4.436,1.446,3.857-1.063h0Z"></path><path class="i" d="M157.059,251.516h-6.745c-1.964,0-3.937-.056-5.901,0-1.251.036-1.874.6-2.838,1.353l-2.748,2.147c-7.132,5.572-14.263,11.144-21.395,16.716l-12.17,9.508c-.852.666-.698,2.13,0,2.828.841.841,1.974.667,2.828,0,12.431-9.713,24.863-19.425,37.294-29.138l-1.414.586h13.087c2.574,0,2.578-4,0-4h0Z"></path><path class="i" d="M149.539,285.26c3.229-10.951,6.537-21.878,9.93-32.779,1.696-5.451,3.413-10.895,5.15-16.333.227-.709.452-1.419.681-2.127.037-.114.339-.986.212-.864.503-.484,2.687.331,3.25.445,2.671.542,5.341,1.087,8.01,1.638,5.44,1.122,10.875,2.265,16.304,3.437,2.717.586,5.432,1.18,8.145,1.783.962.214,2.332.275,3.163.838.68.461.576,1.395.479,2.126-.447,3.365-1.513,6.751-2.287,10.055-.878,3.747-1.767,7.492-2.663,11.234-3.504,14.64-7.09,29.261-10.741,43.865-.563,2.253-1.128,4.506-1.699,6.757-.334,1.317-.791,2.316-2.326,2.337-1.156.016-2.313,0-3.468-.001-6.552-.003-13.105-.007-19.657-.011-14.495-.009-28.989-.02-43.484-.023-1.216,0-2.432,0-3.649,0-2.574,0-2.578,4,0,4,14.603,0,29.207.012,43.81.021,7.119.004,14.238.009,21.357.013,2.981.002,6.695.614,9.139-1.423,2.126-1.772,2.447-5.072,3.087-7.624,3.717-14.8,7.352-29.621,10.915-44.458,1.788-7.443,3.574-14.888,5.254-22.356.486-2.159.87-4.609-.493-6.541-1.593-2.259-4.812-2.475-7.29-3.022-5.631-1.243-11.269-2.45-16.913-3.632-2.838-.594-5.678-1.182-8.518-1.765s-5.728-1.388-8.607-1.705c-1.059-.117-2.157.01-3.09.558-1.226.72-1.682,1.973-2.097,3.256-.916,2.834-1.813,5.674-2.711,8.514-3.592,11.359-7.095,22.746-10.507,34.16-.853,2.854-1.7,5.709-2.543,8.566-.729,2.474,3.13,3.531,3.857,1.063h0Z"></path><path class="i" d="M153.432,293.428c6.587,4.116,13.043,8.441,19.647,12.53,2.195,1.359,4.206-2.1,2.019-3.454-6.604-4.089-13.06-8.414-19.647-12.53-2.189-1.368-4.2,2.091-2.019,3.454h0Z"></path><path class="i" d="M195.718,247.727c-3.174,12.771-6.539,25.495-9.858,38.229-.852,3.267-1.704,6.533-2.554,9.8-.649,2.493,3.208,3.557,3.857,1.063,3.402-13.069,6.827-26.132,10.179-39.214.752-2.936,1.502-5.873,2.233-8.815.621-2.498-3.236-3.564-3.857-1.063h0Z"></path><path class="i" d="M366.282,188.101c4.874,1.547,9.087,4.612,12.605,8.268,1.515,1.574,3.003,3.234,4.067,5.153,1.117,2.015,1.768,4.26,2.612,6.395.397,1.004,1.338,1.705,2.46,1.397.956-.263,1.796-1.45,1.397-2.46-.953-2.411-1.704-4.944-2.947-7.229-1.225-2.251-2.99-4.246-4.76-6.085-3.998-4.155-8.844-7.543-14.37-9.297-2.459-.78-3.512,3.08-1.063,3.857h0Z"></path><path class="i" d="M389.788,208.529c1.391-1.179,3.727-1.548,4.733.032,1.061,1.666.714,3.748.119,5.579-.546,1.683-1.466,3.099-2.855,4.32-1.338,1.176-3.322,2.051-5.213,2.579-2.476.692-1.424,4.552,1.063,3.857,4.161-1.163,8.038-3.563,9.99-7.55.981-2.003,1.683-4.352,1.55-6.601-.15-2.53-1.194-5.26-3.58-6.474-2.967-1.51-6.21-.625-8.636,1.431-.825.699-.719,2.109,0,2.828.817.817,2.002.7,2.828,0h0Z"></path><path class="i" d="M363.501,200.535c-.666,1.38-.948,4.759,1.612,5.47,3.45.543,4.308-3.457,3.465-5.543-.69-1.707-3.375-2.811-5.077.072Z"></path><path class="i" d="M381.276,243.279c-.449-1.352-.973-2.673-1.546-3.978-.194-.44-.395-.877-.603-1.311-.074-.155-.14-.334-.232-.48l-.049-.101c.221.532.205.497-.047-.105-1.406-2.934-4.479-1.782-7.044-1.91-2.541-.126-5.198-.707-7.529-1.74-2.072-.919-3.501-2.6-4.288-4.718-1.037-2.789-1.262-5.923-1.358-8.872-.042-1.272.019-2.454-.402-3.681-.492-1.434-1.277-2.628-2.296-3.74-.434-.473-1.243-1.079-1.14-1.785.154-1.054,1.689-1.433,2.431-1.898,2.026-1.269,3.318-3.255,4.2-5.431,2.213-5.461,1.493-11.523,2.876-17.162.613-2.5-3.243-3.566-3.857-1.063-1.275,5.199-.795,10.664-2.389,15.795-.594,1.913-1.539,3.743-3.374,4.705-2.407,1.262-4.656,3.61-3.709,6.58.735,2.303,3.359,3.482,3.638,5.987.137,1.228.04,2.509.133,3.747.125,1.683.322,3.37.642,5.027.541,2.805,1.613,5.547,3.608,7.647,1.743,1.835,4.113,2.815,6.498,3.522,2.905.861,6.11,1.355,9.135.989-.218.026.834-.083.852-.118.249-.003.175-.062-.223-.179-.106-.286-.054-.169.157.353.132.291.279.576.415.865.633,1.341,1.176,2.711,1.644,4.119.807,2.431,4.672,1.389,3.857-1.063h0Z"></path><path class="i" d="M410.978,237.658c.8-2.358,2.894-4.193,4.696-5.804,1.646-1.472,3.373-2.851,4.932-4.418,3.022-3.036,5.637-6.544,7.618-10.343,5.623-10.785,5.804-23.344.87-34.421-4.058-9.11-11.528-16.944-20.971-20.395-10.187-3.723-22.071-2.774-31.697,2.139-4.115,2.1-7.965,5.059-10.833,8.702-3.145,3.995-4.85,8.882-5.562,13.868-.153,1.068.262,2.149,1.397,2.46.938.258,2.307-.321,2.46-1.397.615-4.307,1.915-8.298,4.397-11.908.053-.077.11-.151.165-.227.3-.416-.273.336.076-.102.195-.244.393-.485.596-.721.498-.58,1.022-1.138,1.566-1.675,1.482-1.463,3.106-2.757,4.858-3.882,8.67-5.567,19.91-6.961,29.735-3.993,8.486,2.563,14.95,8.982,19.142,16.677,5.309,9.747,5.715,21.765.89,31.773-1.933,4.01-4.546,7.648-7.703,10.784-3.702,3.677-8.731,6.636-10.489,11.82-.829,2.443,3.033,3.492,3.857,1.063h0Z"></path><path class="i" d="M362.015,218.367c-.875.277-1.766.498-2.675.626l.532-.071c-.836.11-1.676.135-2.515.034l.532.071c-.204-.027-.407-.062-.609-.103-.53-.108-1.063-.078-1.541.202-.415.243-.811.718-.919,1.195-.227.998.301,2.236,1.397,2.46,2.304.471,4.64.146,6.862-.556.491-.155.932-.469,1.195-.919.251-.429.357-1.061.202-1.541-.323-1-1.392-1.735-2.46-1.397h0Z"></path><path class="i" d="M391.116,221.058c.661,2.919,2.235,5.691,3.886,8.156,1.815,2.709,3.929,5.355,6.509,7.376.849.665,2,.829,2.828,0,.692-.692.855-2.159,0-2.828-2.382-1.866-4.276-4.167-5.884-6.566-.842-1.258-1.617-2.564-2.284-3.924-.16-.325-.312-.654-.458-.986.084.19.032.084-.019-.045-.067-.17-.135-.339-.198-.51-.211-.568-.39-1.145-.523-1.736-.239-1.054-1.453-1.674-2.46-1.397-1.083.298-1.636,1.403-1.397,2.46h0Z"></path><path class="i" d="M379.852,307.574c-2.47,7.011-4.778,14.184-7.92,20.932-2.274,4.882-6.421,9.143-11.778,10.48-.908.227-1.623.342-2.26.403-1.041.1-2.089.122-3.134.083-2.689-.101-5.334-.635-7.923-1.349-6.966-1.921-13.564-5.164-20.005-8.389-3.318-1.661-6.606-3.391-9.81-5.264-2.255-1.319-4.658-2.706-6.421-4.363l.514,1.946c1.418-6.195,4.306-12.146,7.556-17.576,1.325-2.214-2.132-4.228-3.454-2.019-2.268,3.79-4.211,7.786-5.837,11.893-.827,2.089-1.633,4.258-2.083,6.466-.392,1.927,1.34,2.922,2.701,3.911,6.39,4.645,13.818,8.102,20.951,11.427,7.518,3.504,15.509,7.049,23.936,7.323,6.736.218,12.886-2.578,17.246-7.774,2.639-3.145,4.109-6.954,5.606-10.735,2.133-5.389,4.046-10.865,5.971-16.33.857-2.433-3.006-3.479-3.857-1.063h0Z"></path><path class="i" d="M399.046,346.374c.402-8.319,1.367-16.589,1.981-24.893.242-3.271,1.918-6.168,5.191-7.136,3.751-1.109,7.515-2.174,11.271-3.265,8.01-2.326,16.017-4.66,24.026-6.99,3.005-.874,6.497-2.425,9.005.36,1.144,1.27,1.146,2.666,1.023,4.283-.17,2.233-.333,4.468-.488,6.702-.52,7.537-.893,15.083-1.409,22.621-.176,2.569,3.825,2.558,4,0,.489-7.154.847-14.316,1.33-21.47.156-2.303.321-4.605.494-6.907.167-2.21.262-4.222-.809-6.244-1.897-3.584-6.228-5.284-10.101-4.389-4.04.934-8.027,2.326-12.008,3.485-4.391,1.278-8.783,2.557-13.175,3.833-4.125,1.199-8.251,2.397-12.378,3.589-2.01.581-3.935,1.123-5.608,2.437-1.445,1.134-2.559,2.612-3.29,4.295-1.03,2.372-1.072,4.882-1.276,7.422-.192,2.392-.414,4.782-.64,7.171-.475,5.026-.898,10.051-1.142,15.094-.124,2.573,3.876,2.567,4,0h0Z"></path><path class="i" d="M341.194,307.356c-3.52-1.045-7.145-1.812-10.712-2.676-4.011-.971-8.035-2.062-12.102-2.778-1.063-.187-2.155.286-2.46,1.397-.265.966.327,2.272,1.397,2.46,4.067.717,8.091,1.807,12.102,2.778,3.567.864,7.192,1.631,10.712,2.676,2.473.734,3.529-3.125,1.063-3.857h0Z"></path><path class="i" d="M371.599,253.074c-3.736,2.628-7.189,5.757-10.084,9.298-3.017,3.691-5.094,7.892-6.856,12.295-3.339,8.343-5.858,16.927-8.21,25.591-1.396,5.141-2.817,10.274-4.396,15.363-.765,2.464,3.096,3.518,3.857,1.063,2.582-8.322,4.656-16.784,7.132-25.136,1.23-4.149,2.589-8.259,4.112-12.31,1.621-4.31,3.343-8.594,5.972-12.404,2.751-3.987,6.539-7.526,10.491-10.306,2.09-1.47.093-4.939-2.019-3.454h0Z"></path><path class="i" d="M420.967,246.712c11.814,8.41,18.318,22.087,22.076,35.709,1.203,4.359,2.165,8.779,3.028,13.217.491,2.524,4.347,1.456,3.857-1.063-2.99-15.358-7.494-30.936-17.868-43.047-2.677-3.125-5.723-5.884-9.074-8.269-.88-.627-2.226-.156-2.736.718-.587,1.004-.165,2.108.718,2.736h0Z"></path><path class="i" d="M410.605,243.558c-7.218.743-14.446,1.71-21.49,3.492-6.184,1.564-12.147,3.822-17.881,6.61-2.315,1.125-.289,4.576,2.019,3.454,11.78-5.727,24.398-8.222,37.352-9.555,1.074-.111,2-.84,2-2,0-.996-.919-2.111-2-2h0Z"></path><path class="i" d="M418.075,243.163c-1.888-3.036-4.522-6.633-8.061-7.842-1.238-.423-2.508-.223-3.771-.055-1.634.217-3.258.495-4.876.805-3.78.723-7.64,1.484-11.29,2.721-3.679,1.246-7.272,2.982-10.539,5.084-1.365.878-2.682,1.786-3.594,3.154-1.094,1.64-1.769,3.553-2.523,5.363-.416.998.449,2.2,1.397,2.46,1.152.316,2.043-.396,2.46-1.397.545-1.309,1.067-2.639,1.784-3.867.563-.964,1.22-1.418,2.114-2.011,2.752-1.826,5.762-3.371,8.853-4.532,3.209-1.205,6.614-1.925,9.962-2.628,2.62-.55,5.333-1.173,7.969-1.344.965-.063,1.849.501,2.761,1.312,1.554,1.382,2.805,3.035,3.9,4.795,1.356,2.182,4.818.176,3.454-2.019h0Z"></path><path class="i" d="M300.961,297.745c-5.86-9.355-10.937-19.171-16.685-28.59l-.718,2.736c9.779-6.858,19.652-13.585,29.538-20.288,2.668-1.809,5.339-3.613,8.018-5.406l-2.736-.718c8.016,12.593,16.257,25.044,24.331,37.6,1.838,2.858,3.675,5.716,5.473,8.599l.313-2.424c-5.44,4.624-10.879,9.247-16.319,13.871-.791.672-1.582,1.345-2.374,2.017-1.964,1.67.877,4.487,2.828,2.828,5.44-4.624,10.879-9.247,16.319-13.871.791-.672,1.582-1.345,2.374-2.017.652-.554.753-1.718.313-2.424-8.046-12.894-16.461-25.562-24.724-38.317-1.699-2.623-3.401-5.246-5.079-7.883-.553-.869-1.809-1.338-2.736-.718-10.344,6.924-20.615,13.96-30.855,21.037-2.238,1.546-4.473,3.096-6.7,4.658-.871.611-1.319,1.751-.718,2.736,5.748,9.42,10.824,19.236,16.685,28.59,1.363,2.177,4.826.171,3.454-2.019h0Z"></path><path class="i" d="M301.783,297.563c-.203-1.488-.394-2.977-.579-4.467-.081-.65-.177-1.3-.233-1.952-.021-.245-.035-.491-.034-.737,0-.089.076-.702.022-.447.032-.152.254-.555.032-.282.108-.134.258-.196.315-.212.134-.038.478.026.778.17,1.081.518,1.81,1.578,2.428,2.56,1.453,2.308,2.819,4.673,4.185,7.033,1.487,2.568,3.054,5.071,4.024,7.892.351,1.021,1.372,1.696,2.46,1.397.993-.273,1.75-1.434,1.397-2.46-.968-2.812-2.396-5.328-3.875-7.891-1.313-2.275-2.63-4.548-3.997-6.791-1.394-2.287-2.912-4.635-5.544-5.609-2.951-1.093-5.818.843-6.173,3.877-.147,1.25.095,2.508.25,3.747.218,1.746.448,3.491.686,5.235.146,1.071,1.518,1.656,2.46,1.397,1.155-.317,1.543-1.386,1.397-2.46h0Z"></path><path class="i" d="M292.518,287.846c-1.71.652-3.392,1.425-4.658,2.792-1.466,1.583-2.578,4.159-2.107,6.338.225,1.04.958,1.779,1.319,2.737.329.873-.419,1.682-.621,2.557-.579,2.514.586,4.967,2.661,6.385l-.718-2.736c-2.092,4.915-.613,10.636,4.12,13.417,2.335,1.372,5.172,1.597,7.786,2.068,3.039.548,6.078,1.095,9.117,1.643,1.062.191,2.156-.289,2.46-1.397.266-.969-.328-2.268-1.397-2.46-2.399-.432-4.798-.864-7.198-1.297-2.363-.426-4.812-.709-7.129-1.341-3.648-.995-5.827-5.04-4.306-8.614.448-1.052.27-2.061-.718-2.736-1.476-1.009-.501-2.439-.125-3.709.583-1.968-.315-3.234-1.134-4.916-.51-1.048.163-2.408.915-3.218.744-.802,1.793-1.274,2.796-1.656,1.009-.385,1.703-1.347,1.397-2.46-.265-.966-1.446-1.784-2.46-1.397h0Z"></path><path class="i" d="M14.439,324.376c.325-10.738,1.269-21.517,2.402-32.2.59-5.566,1.359-11.109,2.253-16.633,1.012-6.255,2.655-12.495,4.623-18.518,1.809-5.539,4.287-10.883,7.729-15.609.636-.874.149-2.23-.718-2.736-1.012-.592-2.099-.158-2.736.718-3.133,4.302-5.516,9.178-7.314,14.174-2.099,5.831-3.766,11.964-4.967,18.044-2.164,10.949-3.132,22.198-4.011,33.311-.512,6.482-1.064,12.949-1.261,19.451-.078,2.575,3.922,2.572,4,0h0Z"></path><path class="i" d="M99.556,298.465c.996,7.414,1.436,14.887,1.317,22.366-.041,2.575,3.959,2.576,4,0,.119-7.479-.321-14.952-1.317-22.366-.144-1.07-.816-2-2-2-.969,0-2.145.922-2,2h0Z"></path><path class="i" d="M38.847,298.498c1.14,4.134,2.297,8.306,4.543,12.001,2.299,3.781,5.473,6.644,9.42,8.641,9.297,4.703,20.164,4.619,30.341,4.602,6.235-.01,12.466-.293,18.677-.831,2.545-.22,2.568-4.222,0-4-10.285.891-20.647,1.1-30.955.503-8.075-.468-18.073-2.317-23.059-9.45-2.658-3.802-3.891-8.11-5.11-12.529-.683-2.478-4.544-1.426-3.857,1.063h0Z"></path><path class="i" d="M59.28,232.093c3.224,1.392,6.442,2.817,9.564,4.427.327.169.652.335.957.54-.23-.155-.015-.012.09.085.133.122.256.252.375.387.091.108.079.09-.036-.053.052.073.102.147.148.223.079.127.147.259.22.389.212.375-.023-.203.071.184.042.174.093.348.138.521.113.438.021-.231.018.188-.001.186.003.366-.006.552-.016.311-.043.621-.066.931-.06.81-.129,1.62-.204,2.429-.097,1.045.989,2.045,2,2,1.167-.052,1.896-.881,2-2,.155-1.668.437-3.411.132-5.074-.335-1.823-1.582-3.485-3.17-4.413-1.454-.849-3.029-1.535-4.555-2.245-1.872-.871-3.761-1.706-5.657-2.525-.958-.413-2.19-.316-2.736.718-.455.862-.308,2.294.718,2.736h0Z"></path><path class="i" d="M69.868,255.25c1.968,3.532,3.185,7.433,4.256,11.315,1.317,4.772,2.362,9.615,3.44,14.444.75,3.36,1.526,6.587,3.873,9.226,1.898,2.134,4.589,3.436,7.332,4.091,4.023.961,8.253.85,12.349.557,2.553-.183,2.573-4.184,0-4-5.305.38-12.652.936-16.609-3.212-2.113-2.215-2.585-5.472-3.241-8.415-.995-4.46-1.971-8.928-3.172-13.338-1.184-4.349-2.571-8.734-4.774-12.687-1.253-2.249-4.709-.234-3.454,2.019h0Z"></path><path class="i" d="M57.955,241.751c2.651,2.058,5.167,4.294,7.431,6.775.196.215.392.43.576.655.06.073.118.147.176.222-.31-.394.041.063.078.114.375.511.734,1.034,1.085,1.562.905,1.358,1.761,2.75,2.571,4.168.536.937,1.811,1.259,2.736.718.942-.551,1.255-1.795.718-2.736-1.445-2.529-2.983-5.169-4.942-7.343-2.305-2.557-4.884-4.853-7.601-6.962-.852-.662-1.997-.831-2.828,0-.69.69-.858,2.162,0,2.828h0Z"></path><path class="i" d="M79.463,262.515c0-2.914-.046-5.828-.067-8.742-.021-3.012.105-6.061-.417-9.039-.187-1.065-1.49-1.664-2.46-1.397-1.124.309-1.584,1.393-1.397,2.46.474,2.703.257,5.577.276,8.312.02,2.802.064,5.604.064,8.405,0,2.574,4,2.578,4,0h0Z"></path><path class="i" d="M14.673,269.72c-4.335,0-8.496,1.542-11.328,4.937-2.186,2.621-3.323,5.83-3.339,9.239-.015,3.241,0,6.483,0,9.724v46.093c0,2.574,4,2.578,4,0v-54.734c0-1.766.065-3.474.768-5.146,1.709-4.068,5.645-6.113,9.899-6.113,2.574,0,2.578-4,0-4h0Z"></path><path class="i" d="M86.484,189.343c.654,1.355.93,4.672-1.583,5.37-3.387.533-4.229-3.394-3.401-5.441.678-1.676,3.314-2.759,4.984.071Z"></path><path class="i" d="M72.857,232.359c.418-1.258.894-2.49,1.45-3.693.156-.337.323-.668.479-1.005.072-.155.319-.626.289-.66l-.047.128c-.423.126-.506.19-.25.194.061.151,1.652.197,1.88.208.612.031,1.226.025,1.838-.009,1.425-.079,2.855-.284,4.25-.586,2.419-.523,4.985-1.319,6.977-2.833,2.254-1.713,3.699-4.256,4.435-6.963.796-2.926,1.063-6.051,1.132-9.074.026-1.151.073-2.061.71-3.077.634-1.011,1.621-1.75,2.272-2.758,1.603-2.485.515-5.48-1.81-7.064-.797-.543-1.715-.825-2.427-1.495-.726-.683-1.246-1.552-1.644-2.461-.949-2.165-1.288-4.62-1.551-6.95-.376-3.323-.466-6.61-1.268-9.88-.613-2.499-4.471-1.441-3.857,1.063,1.225,4.995.804,10.227,2.25,15.189.612,2.101,1.563,4.204,3.136,5.765.804.799,1.722,1.302,2.704,1.833.644.349,1.47.93,1.169,1.733-.322.859-1.406,1.602-1.955,2.334-.854,1.14-1.526,2.585-1.688,4.013-.134,1.181-.046,2.409-.119,3.6-.102,1.654-.275,3.306-.616,4.93-.49,2.334-1.391,4.752-3.407,6.19-1.923,1.372-4.596,1.954-6.888,2.308-1.362.21-2.788.293-4.162.155-1.502-.15-2.915-.292-4.057.941-.143.154-.384.462-.508.674-.119.261-.232.524-.341.789.165-.381.207-.484.124-.311-.171.352-.341.704-.505,1.059-.7,1.515-1.327,3.065-1.854,4.649-.814,2.448,3.048,3.498,3.857,1.063h0Z"></path><path class="i" d="M86.89,210.671c2.189.692,4.488,1.01,6.756.546.472-.097.958-.514,1.195-.919.251-.429.357-1.061.202-1.541-.352-1.088-1.36-1.622-2.46-1.397-.198.041-.397.074-.598.101l.532-.071c-.823.1-1.648.075-2.469-.033l.532.071c-.893-.125-1.767-.343-2.627-.614-.998-.315-2.227.371-2.46,1.397-.248,1.09.328,2.123,1.397,2.46h0Z"></path><path class="i" d="M83.758,171.272c-4.209,9.934-12.673,17.291-22.139,22.098-2.296,1.166-.274,4.618,2.019,3.454,9.988-5.072,19.133-13.049,23.574-23.533.421-.994.298-2.142-.718-2.736-.839-.491-2.313-.283-2.736.718h0Z"></path><path class="i" d="M57.847,210.807c-1.244,5.273-2.493,10.843-.973,16.202,1.255,4.424,3.769,9.628,8.348,11.339,2.414.902,3.457-2.963,1.063-3.857-1.528-.571-2.653-2.23-3.456-3.596-1-1.701-1.746-3.543-2.234-5.454-.098-.382-.182-.766-.252-1.153-.013-.07-.07-.535-.029-.163-.03-.271-.044-.543-.061-.815-.078-1.253-.092-2.508-.004-3.761.183-2.602.858-5.151,1.455-7.68.591-2.503-3.265-3.572-3.857-1.063h0Z"></path><path class="i" d="M90.708,176.136c-.742-5.55-2.628-10.937-6.304-15.242-3.817-4.47-8.985-7.754-14.467-9.779-12.384-4.574-27.081-3.085-37.408,5.411-5.779,4.754-10.196,11.458-12.596,18.517-1.348,3.964-2.118,8.192-2.153,12.383-.032,3.818.565,7.745,1.139,11.517.506,3.322,1.267,6.568,1.432,9.939.13,2.67-.06,5.314-.534,7.94-1.075,5.955-3.244,12.511.254,18.054,1.781,2.823,4.535,4.816,7.339,6.539,2.858,1.756,6.213,2.788,9.487,3.412,8.432,1.607,17.107.651,24.728-3.387,1.802-.955,3.513-2.062,5.139-3.292.86-.651,1.309-1.726.718-2.736-.495-.847-1.87-1.373-2.736-.718-6.391,4.836-13.779,7.218-21.798,6.85-6.281-.288-12.676-2.088-17.426-6.38-2.241-2.024-3.492-4.517-3.391-7.554.086-2.592.645-5.148,1.15-7.683.479-2.402.91-4.819,1.055-7.268.189-3.188-.119-6.375-.616-9.523-1.068-6.761-2.647-13.618-1.557-20.487,1.154-7.265,4.412-14.052,9.307-19.543,7.786-8.735,19.472-12.056,30.898-9.901,6.207,1.171,12.108,3.723,16.792,8.024.758.697,1.484,1.43,2.165,2.203.241.274.473.554.704.836.068.083.134.168.2.253-.006-.008-.216-.284-.087-.11.091.124.183.247.272.373,1.377,1.956,2.499,4.222,3.228,6.498.505,1.578.849,3.214,1.068,4.855.143,1.07.817,2,2,2,.969,0,2.144-.922,2-2h0Z"></path><path class="i" d="M63.481,194.388c-2.068-1.752-4.782-2.746-7.474-1.852-2.529.839-4.062,3.111-4.45,5.68-.642,4.256,1.306,8.988,4.598,11.73,1.938,1.614,4.206,2.671,6.627,3.348,2.483.694,3.543-3.164,1.063-3.857-1.073-.3-1.923-.589-2.827-1.046-.847-.428-1.755-1.021-2.274-1.477-.704-.618-1.202-1.182-1.6-1.781-.59-.888-.902-1.546-1.193-2.444-.595-1.835-.905-3.806.113-5.448.938-1.512,3.228-1.177,4.589-.024.824.698,2.02.808,2.828,0,.716-.716.828-2.127,0-2.828h0Z"></path><path class="i" d="M112.594,296.022c2.713-1.563,5.645-3.168,8.853-3.266,2.275-.07,4.827.699,6.153,2.689.598.898,1.765,1.286,2.736.718.892-.522,1.319-1.833.718-2.736-2.022-3.035-5.495-4.61-9.093-4.673-4.11-.072-7.914,1.817-11.386,3.816-2.23,1.284-.218,4.742,2.019,3.454h0Z"></path><path class="i" d="M128.029,296.931c.192-.058.384-.098.578-.144.274-.065-.091.033-.169.017.089.018.219-.022.31-.028.387-.026.777-.016,1.163.02.428.04-.031-.055-.065-.016.026-.029.301.049.337.056.205.037.408.081.61.13.437.106.867.238,1.289.391.09.033.179.066.269.101.26.101.166.114-.013-.012.166.117.402.179.586.268.402.195.795.408,1.176.64.344.21.659.484,1.007.681-.402-.227-.162-.13-.049-.034.079.068.161.134.24.203.152.133.298.271.441.413.743.738,2.096.798,2.828,0s.793-2.041,0-2.828c-1.514-1.503-3.428-2.567-5.422-3.289-1.932-.7-4.179-1.032-6.18-.426-1,.303-1.735,1.414-1.397,2.46.327,1.01,1.388,1.722,2.46,1.397h0Z"></path><path class="i" d="M131.176,301.111c.291-.092.584-.18.881-.25.148-.035.302-.054.448-.093.298-.08-.444.022.102-.015.515-.035,1.025-.025,1.539.021.285.026-.033.028-.121-.017.08.041.24.043.334.062.221.046.439.103.654.17.221.068.434.151.65.232.252.095-.444-.213-.016-.002.112.055.225.106.337.162.468.233.923.493,1.371.762.256.153.532.391.808.497.237.091-.345-.331-.211-.161.043.055.109.104.156.156.053.057.248.301.043.038-.22-.283.019.04.046.082.085.131.198.505.317.577-.076-.047-.128-.362-.04-.08.037.12.077.237.109.358.029.112.088.259.081.378l-.032-.216c.009.108.014.217.014.326.022,1.045.904,2.049,2,2,1.065-.048,2.024-.879,2-2-.032-1.512-.573-2.88-1.508-4.054-.736-.924-1.961-1.517-2.996-2.047-2.547-1.304-5.277-1.615-8.027-.742-.996.316-1.738,1.405-1.397,2.46.323.999,1.392,1.736,2.46,1.397h0Z"></path><path class="i" d="M104.549,312.951c.731,1.594,2.394,2.585,3.968,3.189,1.864.716,3.754.508,5.687.224,2.085-.307,4.119-.865,6.102-1.57.983-.349,1.954-.733,2.917-1.134,1.039-.433,1.692-.755,2.823-.624,1.075.125,2-1.009,2-2,0-1.185-.922-1.875-2-2-1.978-.23-3.551.657-5.338,1.354s-3.609,1.306-5.48,1.729c-.866.196-1.741.359-2.625.449-.718.073-1.476.148-1.936.046-1.107-.246-2.251-.783-2.663-1.682-.45-.982-1.87-1.224-2.736-.718-1.008.59-1.17,1.751-.718,2.736h0Z"></path><path class="i" d="M106.165,297.482c1.802.111,3.533-.527,5.297-.77l-.532.071c.06-.008.119-.015.179-.022.549-.065,1.008-.18,1.414-.586.347-.347.608-.916.586-1.414-.023-.517-.193-1.054-.586-1.414-.364-.334-.9-.647-1.414-.586-1.364.163-2.68.538-4.037.729l.532-.071c-.478.063-.957.093-1.439.063-.493-.03-1.073.245-1.414.586-.347.347-.608.916-.586,1.414.051,1.139.879,1.931,2,2h0Z"></path><path class="i" d="M108.199,291.203c3.469-2.862,7.6-4.862,11.976-5.879,2.081-.483,4.393-.901,6.53-.599,1.027.145,1.99.53,2.859,1.088.385.247.722.526,1.048.847.176.174.33.373.508.545.232.224.135.418.223.147-.29.895.211,1.76.919,2.259,1.529,1.076,2.905,2.351,4.122,3.77.598.697,1.137,1.435,1.634,2.207.374.581,1.151,1.483,1.11,2.181l.273-1.009.336-.225h1.063l-.265-.094c-2.43-.864-3.476,2.999-1.063,3.857,1.718.611,3.541-.759,3.656-2.529.107-1.647-1.002-3.226-1.879-4.54-1.866-2.796-4.224-5.141-6.967-7.072l.919,2.259c.92-2.834-2.337-5.52-4.592-6.599-2.891-1.382-5.958-1.275-9.057-.813-5.976.891-11.538,3.541-16.181,7.371-1.987,1.639.857,4.455,2.828,2.828h0Z"></path><path class="i" d="M126.046,313.092c2.649.325,5.306.584,7.969.751,2.506.157,5.184.513,7.511-.648,2.08-1.038,3.224-3.138,2.636-5.428-.565-2.201-2.384-3.36-4.499-3.781-2.771-.552-5.604-.906-8.405-1.266-1.073-.138-2,1.018-2,2,0,1.195.924,1.862,2,2,2.447.314,4.922.639,7.342,1.123.274.055.549.114.818.192.102.03.59.223.166.03.19.087.365.192.541.304-.341-.217.084.136-.077-.106.077.112.146.23.207.352-.05-.123-.052-.119-.007.012.034.1.062.203.084.306-.009-.189-.007-.162.008.079-.011.251-.002.26.028.027-.058.196-.06.219-.006.069.278-.215-.415.435-.027.029-.124.13-.248.264-.39.375.266-.209-.364.195-.437.229.233-.11-.301.104-.358.12-.287.083-.445.118-.7.139-1.307.105-2.682-.053-3.989-.13-2.812-.165-5.617-.435-8.413-.778-1.074-.132-2,1.014-2,2,0,1.19.923,1.868,2,2h0Z"></path><path class="i" d="M263.83,44.64v85.439l2-2H87.86c-2.574,0-2.578,4,0,4h177.97c1.081,0,2-.916,2-2V44.64c0-2.574-4-2.578-4,0h0Z"></path><path class="i" d="M187.796.108c-9.566,5.153-19.951,11.191-30.853,13.82-.92.222-.922,1.525-.002,1.75l9.766,2.385c.646.158.917.937.496,1.451-15.077,18.425-43.413,35.584-67.926,45.48-1.22.493-.705,2.317.595,2.115,13.9-2.158,27.158-6.219,40.89-12.942,13.921-6.815,25.23-13.35,34.277-24.577.385-.478,1.121-.432,1.424.102,1.444,2.545,3.63,6.008,5.625,9.342.419.7,1.478.53,1.65-.267,2.326-10.76,4.384-26.905,5.37-37.787.064-.711-.684-1.211-1.312-.873Z"></path><path class="i" d="M239.509,107.387v1.228c-4.741.008-11.425,0-19.272-.008V28.648h19.272v78.739Z"></path><path class="i" d="M190.918,107.916v-54.873h19.272v55.564c-6.115-.008-12.62-.008-19.272-.008v-.683Z"></path><path class="i" d="M180.872,107.387v1.195c-6.513,0-13.019-.008-19.272-.016v-31.128h19.272v29.949Z"></path><path class="i" d="M132.281,99.924c0-1.326,0-2.158,0-2.158,6.425,0,12.849,0,19.274,0v10.795c-7.17-.006-13.739-.013-19.277-.021.002-3.224.002-6.531.003-8.616Z"></path></g></g></svg>