<svg xmlns="http://www.w3.org/2000/svg" width="204.879" height="246.384" viewBox="0 0 204.879 246.384"><defs><style>.a{fill:#fff;}.b{fill:#211715;}.c{fill:#3d8dcc;}</style></defs><path class="a" d="M202.452,2.4h-200V243.984h200Z"/><path class="b" d="M202.452,0h-200a2.435,2.435,0,0,0-2.4,2.4V226.772c0,5.6-.117,11.209,0,16.805,0,.136,0,.272,0,.407a2.435,2.435,0,0,0,2.4,2.4h200a2.434,2.434,0,0,0,2.4-2.4V12.162c0-3.119.061-6.246,0-9.364,0-.133,0-.266,0-.4,0-3.089-4.8-3.094-4.8,0V233.924c0,3.193-.106,6.406,0,9.6,0,.154,0,.308,0,.462l2.4-2.4h-200l2.4,2.4V2.4l-2.4,2.4H189.487c4.247,0,8.527.155,12.773,0,.064,0,.128,0,.192,0C205.541,4.8,205.546,0,202.452,0Z"/><path class="b" d="M58.477,90.628h83.829c3.088,0,3.094-4.8,0-4.8H58.477c-3.088,0-3.093,4.8,0,4.8Z"/><path class="c" d="M29.349,117.621h-2.8v20.093H178.36V117.621H29.349Z"/><path class="b" d="M142.131,117.621v92.37h4.8v-2.443c0-3.089-4.8-3.094-4.8,0v2.443c0,3.088,4.8,3.093,4.8,0v-92.37c0-3.088-4.8-3.094-4.8,0Z"/><path class="b" d="M108.3,117.621v92.37h4.8v-2.443c0-3.089-4.8-3.094-4.8,0v2.443c0,3.088,4.8,3.093,4.8,0v-92.37c0-3.088-4.8-3.094-4.8,0Z"/><path class="b" d="M27.37,140.114H178.36c3.088,0,3.093-4.8,0-4.8H27.37c-3.089,0-3.094,4.8,0,4.8Z"/><path class="b" d="M27.888,164.206H178.36c3.088,0,3.093-4.8,0-4.8H27.888c-3.089,0-3.094,4.8,0,4.8Z"/><path class="b" d="M27.37,188.3H176.287c3.088,0,3.093-4.8,0-4.8H27.37c-3.089,0-3.094,4.8,0,4.8Z"/><path class="b" d="M180.76,209.991v-92.37c0-3.088-4.8-3.094-4.8,0v92.37c0,3.088,4.8,3.093,4.8,0Z"/><path class="b" d="M26.544,212.391H178.36c3.088,0,3.093-4.8,0-4.8H26.544c-3.088,0-3.093,4.8,0,4.8Z"/><path class="b" d="M24.144,117.621v92.37c0,3.088,4.8,3.093,4.8,0v-92.37c0-3.088-4.8-3.094-4.8,0Z"/><path class="b" d="M178.36,115.221H26.544c-3.088,0-3.093,4.8,0,4.8H178.36c3.088,0,3.093-4.8,0-4.8Z"/><path class="b" d="M26.875,84.023H45.263c3.089,0,3.094-4.8,0-4.8H26.875c-3.089,0-3.094,4.8,0,4.8Z"/><path class="b" d="M27.2,91.06H44.935c3.088,0,3.094-4.8,0-4.8H27.2c-3.089,0-3.094,4.8,0,4.8Z"/><path class="b" d="M37.975,81.915l8.413-10.026A2.4,2.4,0,0,0,42.994,68.5L34.581,78.521a2.453,2.453,0,0,0,0,3.394,2.428,2.428,0,0,0,3.394,0Z"/><path class="b" d="M37.557,78.521,29.144,68.5a2.41,2.41,0,0,0-3.394,0,2.464,2.464,0,0,0,0,3.394l8.413,10.026a2.409,2.409,0,0,0,3.394,0,2.464,2.464,0,0,0,0-3.394Z"/><path class="b" d="M33.669,81.154V97.2a2.4,2.4,0,1,0,4.8,0V81.154a2.4,2.4,0,0,0-4.8,0Z"/><path class="b" d="M132.485,44.094H180.67c3.089,0,3.094-4.8,0-4.8H132.485c-3.088,0-3.093,4.8,0,4.8Z"/><path class="b" d="M132.485,32.213H180.67c3.089,0,3.094-4.8,0-4.8H132.485c-3.088,0-3.093,4.8,0,4.8Z"/></svg>